<svg width="16" height="17" viewBox="0 0 16 17" fill="none" xmlns="http://www.w3.org/2000/svg">
<g clip-path="url(#clip0_125_23079)">
<path d="M16.0003 8.5C16.0003 10.6107 15.1828 12.5305 13.8473 13.9601C12.3872 15.523 10.3078 16.3606 8.00026 16.3606C3.58198 16.3606 0.15332 12.9183 0.15332 8.5C0.15332 6.19256 0.977133 4.11328 2.53988 2.65319C3.96951 1.31753 5.88941 0.5 8.00026 0.5C12.4185 0.5 16.0003 4.08172 16.0003 8.5Z" fill="#FFD05B"/>
<path d="M7.99996 14.9521C11.5631 14.9521 14.4516 12.0636 14.4516 8.50045C14.4516 4.93732 11.5631 2.04883 7.99996 2.04883C4.43683 2.04883 1.54834 4.93732 1.54834 8.50045C1.54834 12.0636 4.43683 14.9521 7.99996 14.9521Z" fill="#FFEAA5"/>
<path d="M13.4192 8.5004C13.4192 9.88102 12.9029 11.1411 12.0529 12.098C11.0602 13.2156 9.61228 13.7784 7.99987 13.7784C5.00684 13.7784 2.75928 11.4934 2.75928 8.50043C2.75928 6.88902 3.28381 5.4419 4.40018 4.44921C5.35737 3.59805 6.61825 3.08105 7.99987 3.08105C10.9929 3.08105 13.4192 5.50737 13.4192 8.5004Z" fill="#FC9B40"/>
<path d="M8.38709 16.113C3.96881 16.113 0.387094 12.5313 0.387094 8.11301C0.387094 6.00235 1.20416 4.08288 2.53966 2.65332C0.976688 4.11341 0 6.19248 0 8.5001C0 12.9184 3.58172 16.5001 8 16.5001C10.3076 16.5001 12.3869 15.5232 13.847 13.9602C12.4175 15.2957 10.4978 16.113 8.38709 16.113Z" fill="#FFC244"/>
<path d="M8.45007 13.4696C5.45704 13.4696 3.03072 11.0433 3.03072 8.05025C3.03072 6.66838 3.54885 5.40647 4.40025 4.44922C3.28416 5.44184 2.58057 6.88928 2.58057 8.50041C2.58057 11.4934 5.00691 13.9198 7.99991 13.9198C9.61107 13.9198 11.0603 13.2141 12.053 12.098C11.0957 12.9494 9.83197 13.4696 8.45007 13.4696Z" fill="#FC9B40"/>
</g>
<defs>
<clipPath id="clip0_125_23079">
<rect width="16" height="16" fill="white" transform="translate(0 0.5)"/>
</clipPath>
</defs>
</svg>
