<svg xmlns="http://www.w3.org/2000/svg" xmlns:xlink="http://www.w3.org/1999/xlink" viewBox="0 0 190 190"><defs><radialGradient id="a" cx="-1333.23" cy="1008.14" r="1.35" gradientTransform="matrix(18.57, 94.57, 94.57, -18.57, -70477.85, 144861.89)" gradientUnits="userSpaceOnUse"><stop offset="0" stop-color="#5761aa"/><stop offset="1" stop-color="#1f2340"/></radialGradient></defs><title>dice_planet</title><circle cx="95" cy="95" r="94.98" style="fill:url(#a)"/><path d="M71.73,22.64c7.43-3.58,15.45-2.77,19,1.7a6.12,6.12,0,0,0-.55-1.76c-2.78-5.78-11.74-7.26-20-3.28S57.55,31.2,60.34,37a5.89,5.89,0,0,0,1,1.53C59.94,33,64.3,26.22,71.73,22.64Z" style="fill:#4e558c"/><path d="M80.25,40.3c8.16-3.93,12.86-11.08,10.51-16s-10.87-5.64-19-1.7-12.87,11.08-10.51,16S72.09,44.23,80.25,40.3Z" style="fill:#41497c"/><path d="M102.76,169.45c-7.88.34-14.43-2.91-15.88-7.4a3.76,3.76,0,0,0-.18,1.52c.21,5.29,7.44,9.32,16.14,9s15.52-4.94,15.26-10.32a4.14,4.14,0,0,0-.3-1.47C116.87,165.39,110.55,169.15,102.76,169.45Z" style="fill:#4e558c"/><path d="M102,153.34c-7.87.34-14.19,4.1-15.2,8.75,1.37,4.53,8,7.74,15.87,7.4s14.2-4.1,15.21-8.75C116.51,156.21,109.88,153,102,153.34Z" style="fill:#41497c"/><path d="M162.48,112.94c-1.55,8.18-7,14-12.66,14.25a6.15,6.15,0,0,0,1.79.56c6.29,1.23,12.78-5.15,14.55-14.14s-2-17.32-8.3-18.48A15.42,15.42,0,0,0,156,95C161.14,97.31,164.07,104.85,162.48,112.94Z" style="fill:#4e558c"/><path d="M162.53,113c1.69-8.9-1.25-16.94-6.57-18s-11,5.39-12.7,14.29,1.25,16.93,6.57,17.94S160.83,121.88,162.53,113Z" style="fill:#41497c"/><path d="M157.94,57.76c3,5,3,10.57.05,13.4a2.8,2.8,0,0,0,1.16-.56c3.85-2.36,4.26-8.66,1-14.2s-9.18-8.08-13-5.72a7,7,0,0,0-1,.8C149.93,50.23,154.94,52.8,157.94,57.76Z" style="fill:#4e558c"/><path d="M146.2,64.85c3,5,8,7.53,11.79,6.31,2.83-2.78,2.95-8.44-.05-13.4s-8-7.53-11.79-6.31C143.24,54.27,143.2,59.89,146.2,64.85Z" style="fill:#41497c"/><path d="M29.42,124.11c-3.08-8.28-1.4-16.62,3.69-20a13.21,13.21,0,0,0-1.93.42c-6.39,2.37-8.9,11.71-5.42,20.82S37.1,140,43.53,137.55a7.66,7.66,0,0,0,1.78-1C39.27,137.57,32.5,132.39,29.42,124.11Z" style="fill:#4e558c"/><path d="M49,116.88c-3.35-9-10.41-14.69-15.77-12.7s-7,10.91-3.63,19.93,10.41,14.7,15.77,12.7S52.31,125.9,49,116.88Z" style="fill:#41497c"/><path d="M100.32,46.08a8.16,8.16,0,0,1,2.4,4.75,8.87,8.87,0,0,0-2.5-6.23,8.66,8.66,0,0,0-12.21,0A8.44,8.44,0,0,0,85.57,52a8.55,8.55,0,0,1,2.59-6A8.71,8.71,0,0,1,100.32,46.08Z" style="fill:#4e558c"/><path d="M100.17,56.94a8.91,8.91,0,0,0,2.59-6,8.16,8.16,0,0,0-2.4-4.75,8.66,8.66,0,0,0-12.21,0,8.86,8.86,0,0,0-2.58,6A8.12,8.12,0,0,0,88,56.93,8.66,8.66,0,0,0,100.17,56.94Z" style="fill:#41497c"/><path d="M62.27,85.28a17.07,17.07,0,0,1,8.61-6.39A17,17,0,0,0,59.55,86a17.28,17.28,0,0,0,4.17,24,17,17,0,0,0,15.41,2.23,16.85,16.85,0,0,1-12.7-2.93A17.26,17.26,0,0,1,62.27,85.28Z" style="fill:#4e558c"/><path d="M83.58,81.82a17.11,17.11,0,0,0-12.7-2.93,17.22,17.22,0,0,0-4.45,30.43,17.15,17.15,0,0,0,12.7,2.92,17.21,17.21,0,0,0,4.45-30.42Z" style="fill:#41497c"/></svg>