<svg width="24" height="24" viewBox="0 0 24 24" fill="none" xmlns="http://www.w3.org/2000/svg">
<path d="M20.5292 3.56546C20.3125 3.53211 20.1965 3.29177 20.3053 3.10136L20.3559 3.01287C20.5411 2.68874 20.2001 2.31836 19.8618 2.47623L19.8126 2.49917C19.5667 2.61393 19.2803 2.45566 19.2467 2.18638L19.2271 2.03012C19.1848 1.69139 18.7367 1.5997 18.5647 1.89456C18.4468 2.09668 18.1668 2.12978 18.0014 1.96432C17.7544 1.71732 17.3282 1.91623 17.3715 2.26285L17.3881 2.39528C17.4225 2.67087 17.1804 2.90111 16.9069 2.85285L16.7958 2.83325C16.4081 2.76483 16.1545 3.22714 16.4205 3.51735L16.4931 3.59656C16.6458 3.76312 16.5922 4.0301 16.387 4.12478L16.2887 4.17015C16.018 4.29512 16.0744 4.69548 16.3691 4.74083C16.5777 4.77293 16.6894 5.00428 16.5846 5.18757L16.479 5.37233C16.3083 5.6712 16.6227 6.01274 16.9346 5.86717C17.1967 5.74485 17.4709 5.97232 17.3337 6.22694C17.1529 6.56226 16.8747 6.85904 16.4741 6.99259C15.6687 7.16517 15.2335 7.33772 14.9221 7.55811C14.4592 7.88584 13.8581 7.98029 13.4003 7.64539C12.6534 7.09895 12.0444 6.85733 11.8 7.10175L10.9649 7.86722C10.6752 8.13285 10.2579 8.19682 9.87777 8.0966C9.238 7.92792 8.52166 7.86657 7.86667 7.86657C3.4963 7.86657 0 11.3629 0 15.7332C0 20.1036 3.4963 23.5999 7.86667 23.5999C12.237 23.5999 15.7333 20.1036 15.7333 15.7332C15.7333 14.7803 15.5273 13.8274 15.2241 12.9834C15.0842 12.594 15.1616 12.1531 15.4542 11.8606L15.9519 11.3629C16.2056 11.1091 15.9355 10.4624 15.3949 9.67627C15.1062 9.2564 15.0782 8.62365 15.4977 8.33446C15.7377 8.16904 16.0866 8.03172 16.8019 7.86667C17.6541 7.611 18.1739 7.02296 18.4651 6.3618C18.5692 6.12557 18.8918 6.04657 19.0655 6.23757C19.2777 6.47104 19.6644 6.29318 19.6253 5.98009L19.5989 5.76932C19.5663 5.50856 19.7955 5.2907 20.0542 5.33637L20.2262 5.36672C20.5851 5.43005 20.8123 4.99376 20.5546 4.73606L20.5064 4.68788C20.3502 4.53168 20.3929 4.26835 20.5905 4.16956L20.6215 4.15407C20.8941 4.01778 20.8304 3.6118 20.5292 3.56546Z" fill="#4457FF"/>
</svg>
