<svg xmlns="http://www.w3.org/2000/svg" viewBox="0 0 24 24"><title>icon_keys</title><path d="M2,10.8a7.37,7.37,0,0,1,.33-3.16A2.87,2.87,0,0,1,3.64,6.33,7.37,7.37,0,0,1,6.8,6H17.2a7.37,7.37,0,0,1,3.16.33,2.87,2.87,0,0,1,1.31,1.31A7.37,7.37,0,0,1,22,10.8v6.4a7.37,7.37,0,0,1-.33,3.16,2.87,2.87,0,0,1-1.31,1.31A7.37,7.37,0,0,1,17.2,22H6.8a7.37,7.37,0,0,1-3.16-.33,2.87,2.87,0,0,1-1.31-1.31A7.37,7.37,0,0,1,2,17.2ZM10,16a1,1,0,0,1,1-1h2a1,1,0,0,1,0,2H11A1,1,0,0,1,10,16Zm7-1a1,1,0,1,0,1,1A1,1,0,0,0,17,15ZM6,16a1,1,0,1,1,1,1A1,1,0,0,1,6,16Zm9-5a1,1,0,0,0,0,2h2a1,1,0,0,0,0-2Zm-5,1a1,1,0,1,1,1,1A1,1,0,0,1,10,12ZM7,11a1,1,0,1,0,1,1A1,1,0,0,0,7,11Z" style="fill:#3e447c;fill-rule:evenodd"/></svg>