<svg width="12" height="16" viewBox="0 0 12 16" fill="none" xmlns="http://www.w3.org/2000/svg">
<path d="M0.245235 1.72852C0 2.20982 0 2.83988 0 4.1V11.9C0 13.1601 0 13.7902 0.245235 14.2715C0.46095 14.6948 0.805157 15.039 1.22852 15.2548C1.70982 15.5 2.33988 15.5 3.6 15.5H8.4C9.66012 15.5 10.2902 15.5 10.7715 15.2548C11.1948 15.039 11.539 14.6948 11.7548 14.2715C12 13.7902 12 13.1601 12 11.9V6.35C12 6.13998 12 6.03497 11.9591 5.95475C11.9232 5.88419 11.8658 5.82683 11.7952 5.79087C11.715 5.75 11.61 5.75 11.4 5.75H9.75C8.09315 5.75 6.75 4.40685 6.75 2.75V1.1C6.75 0.88998 6.75 0.78497 6.70913 0.704754C6.67317 0.634193 6.61581 0.576825 6.54525 0.540873C6.46503 0.5 6.36002 0.5 6.15 0.5H3.6C2.33988 0.5 1.70982 0.5 1.22852 0.745235C0.805157 0.96095 0.46095 1.30516 0.245235 1.72852Z" fill="#3E447C"/>
</svg>
