<svg width="24" height="24" viewBox="0 0 24 24" fill="none" xmlns="http://www.w3.org/2000/svg">
<path fill-rule="evenodd" clip-rule="evenodd" d="M6.35134 8.75209C6.57638 8.52712 6.88155 8.40074 7.19974 8.40074C7.51794 8.40074 7.82311 8.52712 8.04814 8.75209L11.9997 12.7037L15.9513 8.75209C16.062 8.63748 16.1945 8.54606 16.3409 8.48317C16.4873 8.42028 16.6447 8.38717 16.8041 8.38579C16.9634 8.3844 17.1214 8.41476 17.2689 8.4751C17.4164 8.53544 17.5503 8.62454 17.663 8.73721C17.7757 8.84989 17.8648 8.98387 17.9251 9.13134C17.9855 9.27882 18.0158 9.43683 18.0144 9.59617C18.0131 9.7555 17.98 9.91297 17.9171 10.0594C17.8542 10.2058 17.7628 10.3382 17.6481 10.4489L12.8481 15.2489C12.6231 15.4739 12.3179 15.6002 11.9997 15.6002C11.6815 15.6002 11.3764 15.4739 11.1513 15.2489L6.35134 10.4489C6.12638 10.2239 6 9.91868 6 9.60049C6 9.28229 6.12638 8.97712 6.35134 8.75209V8.75209Z" fill="#767FD1"/>
</svg>
