<svg width="935" height="935" viewBox="0 0 935 935" fill="none" xmlns="http://www.w3.org/2000/svg">
<g filter="url(#filter0_d_10_38800)">
<path d="M207.303 256.718C251.745 201.838 312.421 162.436 380.633 144.161L391.883 186.15C332.538 202.05 279.751 236.329 241.086 284.075L207.303 256.718Z" fill="url(#paint0_radial_10_38800)"/>
</g>
<path d="M228.222 259.667C225.554 257.324 225.286 253.256 227.682 250.634C265.288 209.489 312.877 178.74 365.842 161.364C369.217 160.257 372.815 162.173 373.855 165.569L376.037 172.693C377.076 176.089 375.164 179.678 371.791 180.79C322.427 197.056 278.062 225.722 242.946 264.04C240.547 266.658 236.488 266.927 233.82 264.583L228.222 259.667Z" fill="#DD385F"/>
<defs>
<filter id="filter0_d_10_38800" x="155.859" y="92.7163" width="287.468" height="242.803" filterUnits="userSpaceOnUse" color-interpolation-filters="sRGB">
<feFlood flood-opacity="0" result="BackgroundImageFix"/>
<feColorMatrix in="SourceAlpha" type="matrix" values="0 0 0 0 0 0 0 0 0 0 0 0 0 0 0 0 0 0 127 0" result="hardAlpha"/>
<feOffset/>
<feGaussianBlur stdDeviation="25.7222"/>
<feComposite in2="hardAlpha" operator="out"/>
<feColorMatrix type="matrix" values="0 0 0 0 0.87451 0 0 0 0 0.196078 0 0 0 0 0.356863 0 0 0 0.4 0"/>
<feBlend mode="normal" in2="BackgroundImageFix" result="effect1_dropShadow_10_38800"/>
<feBlend mode="normal" in="SourceGraphic" in2="effect1_dropShadow_10_38800" result="shape"/>
</filter>
<radialGradient id="paint0_radial_10_38800" cx="0" cy="0" r="1" gradientUnits="userSpaceOnUse" gradientTransform="translate(497.194 311.953) rotate(68.6374) scale(457.14)">
<stop stop-color="#FF3665"/>
<stop offset="1" stop-color="#A6072B"/>
</radialGradient>
</defs>
</svg>
