<svg width="821" height="821" viewBox="0 0 821 821" fill="none" xmlns="http://www.w3.org/2000/svg">
    <g filter="url(#filter0_d_10_38800)">
        <path d="M410.61 75.7695C481.228 75.8624 550.004 98.3098 607.079 139.894L581.481 175.028C531.825 138.85 471.99 119.321 410.553 119.24L410.61 75.7695Z" fill="url(#paint0_radial_10_38800)"/>
    </g>
    <path d="M421.459 93.8968C421.605 90.3484 424.602 87.584 428.147 87.8009C483.785 91.206 537.607 108.909 584.402 139.197C587.384 141.127 588.154 145.13 586.166 148.073L581.994 154.245C580.006 157.188 576.012 157.955 573.028 156.029C529.357 127.847 479.182 111.343 427.308 108.099C423.764 107.877 421.005 104.889 421.151 101.341L421.459 93.8968Z" fill="#DD385F"/>
    <defs>
        <filter id="filter0_d_10_38800" x="359.108" y="24.3252" width="299.415" height="202.147" filterUnits="userSpaceOnUse" color-interpolation-filters="sRGB">
        <feFlood flood-opacity="0" result="BackgroundImageFix"/>
        <feColorMatrix in="SourceAlpha" type="matrix" values="0 0 0 0 0 0 0 0 0 0 0 0 0 0 0 0 0 0 127 0" result="hardAlpha"/>
        <feOffset/>
        <feGaussianBlur stdDeviation="25.7222"/>
        <feComposite in2="hardAlpha" operator="out"/>
        <feColorMatrix type="matrix" values="0 0 0 0 0.87451 0 0 0 0 0.196078 0 0 0 0 0.356863 0 0 0 0.4 0"/>
        <feBlend mode="normal" in2="BackgroundImageFix" result="effect1_dropShadow_10_38800"/>
        <feBlend mode="normal" in="SourceGraphic" in2="effect1_dropShadow_10_38800" result="shape"/>
        </filter>
        <radialGradient id="paint0_radial_10_38800" cx="0" cy="0" r="1" gradientUnits="userSpaceOnUse" gradientTransform="translate(549.778 336) rotate(119.712) scale(457.14)">
        <stop stop-color="#FF3665"/>
        <stop offset="1" stop-color="#A6072B"/>
        </radialGradient>
    </defs>
</svg>
