<svg xmlns="http://www.w3.org/2000/svg" xmlns:xlink="http://www.w3.org/1999/xlink" viewBox="0 0 820 820"><defs><radialGradient id="a" cx="-1029.22" cy="1312.47" r="1.02" gradientTransform="matrix(-226.58, 397.04, 397.04, 226.58, -753747.9, 111582.87)" gradientUnits="userSpaceOnUse"><stop offset="0" stop-color="#ff3665"/><stop offset="1" stop-color="#a6072b"/></radialGradient></defs><title>part1</title><path d="M410.06,54.52A340.26,340.26,0,0,1,610,119.78l-26,35.75A296,296,0,0,0,410,98.76Z" style="fill:url(#a)"/><path d="M421.61,72.46a6.45,6.45,0,0,1,6.8-6.21,329.69,329.69,0,0,1,159,52.31,6.44,6.44,0,0,1,1.8,9L585,133.87a6.64,6.64,0,0,1-9.12,1.82,309.11,309.11,0,0,0-148.3-48.78A6.67,6.67,0,0,1,421.29,80Z" style="fill:#dd385f"/></svg>