<svg width="1535" height="940" viewBox="0 0 1535 940" fill="none" xmlns="http://www.w3.org/2000/svg">
<path d="M513.752 83.1193C506.361 85.3405 505.902 86.0681 506.668 93.7273C504.446 86.3362 503.719 85.8766 496.06 86.6426C503.451 84.4214 503.91 83.6938 503.144 76.0346C505.404 83.4257 506.093 83.8853 513.752 83.1193Z" fill="white"/>
<path d="M404.838 261.004C404.838 261.961 404.072 262.727 403.115 262.727C402.158 262.727 401.392 261.961 401.392 261.004C401.392 260.046 402.158 259.28 403.115 259.28C404.072 259.28 404.838 260.046 404.838 261.004Z" fill="#212444"/>
<path d="M734.183 17.4801C735.282 17.4801 736.174 16.5886 736.174 15.4888C736.174 14.3889 735.282 13.4973 734.183 13.4973C733.083 13.4973 732.191 14.3889 732.191 15.4888C732.191 16.5886 733.083 17.4801 734.183 17.4801Z" fill="#212444"/>
<path d="M625.193 67.2647C626.293 67.2647 627.184 66.3731 627.184 65.2733C627.184 64.1735 626.293 63.2819 625.193 63.2819C624.093 63.2819 623.202 64.1735 623.202 65.2733C623.202 66.3731 624.093 67.2647 625.193 67.2647Z" fill="#212444"/>
<path d="M117.888 221.597C117.888 222.708 117.007 223.588 115.896 223.588C114.785 223.588 113.905 222.708 113.905 221.597C113.905 220.486 114.785 219.606 115.896 219.606C117.007 219.606 117.888 220.486 117.888 221.597Z" fill="#212444"/>
<path d="M33.8665 120.764C33.8665 121.875 32.9856 122.755 31.8751 122.755C30.7645 122.755 29.8838 121.875 29.8838 120.764C29.8838 119.653 30.7645 118.773 31.8751 118.773C32.9856 118.773 33.8665 119.653 33.8665 120.764Z" fill="#212444"/>
<path d="M56.7672 287.275C57.867 287.275 58.7586 286.383 58.7586 285.283C58.7586 284.184 57.867 283.292 56.7672 283.292C55.6673 283.292 54.7759 284.184 54.7759 285.283C54.7759 286.383 55.6673 287.275 56.7672 287.275Z" fill="#212444"/>
<path d="M622.206 211.87C622.206 212.981 621.325 213.861 620.215 213.861C619.104 213.861 618.223 212.981 618.223 211.87C618.223 210.76 619.104 209.879 620.215 209.879C621.325 209.879 622.206 210.76 622.206 211.87Z" fill="#212444"/>
<path d="M716.069 285.283C718.438 285.283 720.359 283.363 720.359 280.994C720.359 278.625 718.438 276.705 716.069 276.705C713.701 276.705 711.78 278.625 711.78 280.994C711.78 283.363 713.701 285.283 716.069 285.283Z" fill="#212444"/>
<path d="M223.507 225.886C225.876 225.886 227.797 223.966 227.797 221.597C227.797 219.228 225.876 217.308 223.507 217.308C221.138 217.308 219.218 219.228 219.218 221.597C219.218 223.966 221.138 225.886 223.507 225.886Z" fill="#212444"/>
<path d="M439.752 137.398C440.132 135.06 438.544 132.857 436.206 132.477C433.867 132.098 431.664 133.686 431.285 136.024C430.905 138.362 432.493 140.565 434.831 140.945C437.17 141.324 439.373 139.736 439.752 137.398Z" fill="#212444"/>
<path d="M679.037 151.746C682.59 151.746 685.471 148.865 685.471 145.312C685.471 141.759 682.59 138.878 679.037 138.878C675.484 138.878 672.604 141.759 672.604 145.312C672.604 148.865 675.484 151.746 679.037 151.746Z" fill="#212444"/>
<path d="M224.695 73.6599C224.695 74.3109 224.158 74.8471 223.507 74.8471C222.856 74.8471 222.32 74.3109 222.32 73.6599C222.32 73.0089 222.856 72.4727 223.507 72.4727C224.158 72.4727 224.695 72.9706 224.695 73.6599Z" fill="white"/>
<path d="M362.752 63.282C362.752 63.933 362.215 64.4691 361.564 64.4691C360.913 64.4691 360.377 63.933 360.377 63.282C360.377 62.6309 360.913 62.0948 361.564 62.0948C362.215 62.0948 362.752 62.6309 362.752 63.282Z" fill="#212444"/>
<path d="M94.6039 18.2461C94.6039 18.8971 94.0677 19.4333 93.4167 19.4333C92.7657 19.4333 92.2295 18.8971 92.2295 18.2461C92.2295 17.5951 92.7657 17.0589 93.4167 17.0589C94.0677 17.0589 94.6039 17.5568 94.6039 18.2461Z" fill="#212444"/>
<path d="M928.356 138.419C928.356 139.376 927.59 140.142 926.633 140.142C925.676 140.142 924.91 139.376 924.91 138.419C924.91 137.461 925.676 136.695 926.633 136.695C927.59 136.695 928.356 137.499 928.356 138.419Z" fill="#212444"/>
<path d="M890.481 192.071C890.481 193.028 889.715 193.794 888.758 193.794C887.801 193.794 887.035 193.028 887.035 192.071C887.035 191.114 887.801 190.348 888.758 190.348C889.715 190.348 890.481 191.114 890.481 192.071Z" fill="#212444"/>
<path d="M740.744 223.014C741.696 223.014 742.468 222.243 742.468 221.291C742.468 220.339 741.696 219.568 740.744 219.568C739.793 219.568 739.021 220.339 739.021 221.291C739.021 222.243 739.793 223.014 740.744 223.014Z" fill="#212444"/>
<path d="M1447.72 261.004C1447.72 261.961 1446.96 262.727 1446 262.727C1445.04 262.727 1444.28 261.961 1444.28 261.004C1444.28 260.046 1445.04 259.28 1446 259.28C1446.96 259.28 1447.72 260.046 1447.72 261.004Z" fill="#212444"/>
<path d="M740.553 3.65541C740.553 4.61281 739.787 5.37873 738.829 5.37873C737.872 5.37873 737.106 4.61281 737.106 3.65541C737.106 2.69802 737.872 1.9321 738.829 1.9321C739.787 1.9321 740.553 2.69802 740.553 3.65541Z" fill="#212444"/>
<path d="M748.173 145.159C750.035 145.159 751.543 143.65 751.543 141.789C751.543 139.927 750.035 138.419 748.173 138.419C746.312 138.419 744.803 139.927 744.803 141.789C744.803 143.65 746.312 145.159 748.173 145.159Z" fill="#212444"/>
<path d="M1160.77 221.597C1160.77 222.708 1159.89 223.588 1158.78 223.588C1157.67 223.588 1156.79 222.708 1156.79 221.597C1156.79 220.486 1157.67 219.606 1158.78 219.606C1159.89 219.606 1160.77 220.486 1160.77 221.597Z" fill="#212444"/>
<path d="M1076.75 120.764C1076.75 121.875 1075.87 122.755 1074.76 122.755C1073.65 122.755 1072.77 121.875 1072.77 120.764C1072.77 119.653 1073.65 118.773 1074.76 118.773C1075.87 118.773 1076.75 119.653 1076.75 120.764Z" fill="#212444"/>
<path d="M1099.65 287.275C1100.75 287.275 1101.65 286.383 1101.65 285.283C1101.65 284.184 1100.75 283.292 1099.65 283.292C1098.55 283.292 1097.66 284.184 1097.66 285.283C1097.66 286.383 1098.55 287.275 1099.65 287.275Z" fill="#212444"/>
<path d="M969.524 167.6C971.893 167.6 973.813 165.68 973.813 163.311C973.813 160.942 971.893 159.022 969.524 159.022C967.155 159.022 965.235 160.942 965.235 163.311C965.235 165.68 967.155 167.6 969.524 167.6Z" fill="#212444"/>
<path d="M1266.39 225.886C1268.76 225.886 1270.68 223.966 1270.68 221.597C1270.68 219.228 1268.76 217.308 1266.39 217.308C1264.02 217.308 1262.1 219.228 1262.1 221.597C1262.1 223.966 1264.02 225.886 1266.39 225.886Z" fill="#212444"/>
<path d="M1482.64 137.398C1483.02 135.06 1481.43 132.857 1479.09 132.477C1476.75 132.098 1474.55 133.686 1474.17 136.024C1473.79 138.362 1475.38 140.565 1477.72 140.945C1480.06 141.324 1482.26 139.736 1482.64 137.398Z" fill="#212444"/>
<path d="M769.006 64.3161C771.375 64.3161 773.296 62.3957 773.296 60.0269C773.296 57.6581 771.375 55.7378 769.006 55.7378C766.638 55.7378 764.717 57.6581 764.717 60.0269C764.717 62.3957 766.638 64.3161 769.006 64.3161Z" fill="#212444"/>
<path d="M851.573 261.003C856.035 261.003 859.653 257.386 859.653 252.923C859.653 248.46 856.035 244.843 851.573 244.843C847.11 244.843 843.492 248.46 843.492 252.923C843.492 257.386 847.11 261.003 851.573 261.003Z" fill="#212444"/>
<path d="M907.184 100.496C908.946 99.6216 909.665 97.4844 908.79 95.7226C907.915 93.9607 905.778 93.2415 904.016 94.1163C902.254 94.991 901.535 97.1283 902.41 98.8901C903.285 100.652 905.422 101.371 907.184 100.496Z" fill="#212444"/>
<path d="M1267.58 73.6599C1267.58 74.3109 1267.05 74.8471 1266.39 74.8471C1265.74 74.8471 1265.21 74.3109 1265.21 73.6599C1265.21 73.0089 1265.74 72.4727 1266.39 72.4727C1267.05 72.4727 1267.58 72.9706 1267.58 73.6599Z" fill="white"/>
<path d="M1405.64 63.282C1405.64 63.933 1405.1 64.4691 1404.45 64.4691C1403.8 64.4691 1403.26 63.933 1403.26 63.282C1403.26 62.6309 1403.8 62.0948 1404.45 62.0948C1405.1 62.0948 1405.64 62.6309 1405.64 63.282Z" fill="#212444"/>
<path d="M1137.49 18.2461C1137.49 18.8971 1136.95 19.4333 1136.3 19.4333C1135.65 19.4333 1135.12 18.8971 1135.12 18.2461C1135.12 17.5951 1135.65 17.0589 1136.3 17.0589C1136.95 17.0589 1137.49 17.5568 1137.49 18.2461Z" fill="#212444"/>
<path d="M513.752 825.627C506.361 827.849 505.902 828.576 506.668 836.235C504.446 828.844 503.719 828.385 496.06 829.151C503.451 826.929 503.91 826.202 503.144 818.543C505.404 825.934 506.093 826.393 513.752 825.627Z" fill="white"/>
<path d="M481.737 458.753C477.448 457.029 476.95 457.183 474.422 461.051C476.146 456.761 475.992 456.264 472.125 453.736C476.414 455.459 476.912 455.306 479.439 451.438C477.716 455.727 477.869 456.225 481.737 458.753Z" fill="white"/>
<path d="M204.628 635.373C200.147 636.561 199.841 636.944 200.147 641.577C198.96 637.097 198.577 636.79 193.943 637.097C198.424 635.91 198.73 635.527 198.424 630.893C199.611 635.373 200.032 635.641 204.628 635.373Z" fill="#212444"/>
<path d="M408.131 315.335C403.459 311.467 402.808 311.428 398.06 315.296C401.927 310.624 401.966 309.973 398.098 305.263C402.77 309.131 403.421 309.169 408.17 305.301C404.302 309.935 404.263 310.624 408.131 315.335Z" fill="#212444"/>
<path d="M410.238 310.318C404.187 310.854 403.728 311.352 403.077 317.403C402.541 311.352 402.043 310.892 395.992 310.241C402.043 309.705 402.502 309.207 403.153 303.157C403.728 309.207 404.187 309.705 410.238 310.318Z" fill="#212444"/>
<path d="M696.921 547.829C689.301 548.556 688.726 549.169 687.96 556.79C687.233 549.169 686.62 548.595 678.999 547.829C686.62 547.101 687.194 546.488 687.96 538.868C688.688 546.488 689.301 547.101 696.921 547.829Z" fill="#212444"/>
<path d="M694.279 541.51C689.416 547.408 689.416 548.25 694.279 554.148C688.382 549.284 687.539 549.284 681.642 554.148C686.505 548.25 686.505 547.408 681.642 541.51C687.539 546.374 688.382 546.374 694.279 541.51Z" fill="white"/>
<path d="M48.4195 344.937C50.2807 344.937 51.7894 343.429 51.7894 341.567C51.7894 339.706 50.2807 338.197 48.4195 338.197C46.5582 338.197 45.0493 339.706 45.0493 341.567C45.0493 343.429 46.5582 344.937 48.4195 344.937Z" fill="#212444"/>
<path d="M720.09 618.6C720.09 619.71 719.209 620.591 718.099 620.591C716.988 620.591 716.107 619.71 716.107 618.6C716.107 617.489 716.988 616.608 718.099 616.608C719.209 616.608 720.09 617.489 720.09 618.6Z" fill="#212444"/>
<path d="M624.618 468.901C625.718 468.901 626.61 468.01 626.61 466.91C626.61 465.81 625.718 464.918 624.618 464.918C623.519 464.918 622.627 465.81 622.627 466.91C622.627 468.01 623.519 468.901 624.618 468.901Z" fill="#212444"/>
<path d="M732.192 352.443C733.292 352.443 734.183 351.552 734.183 350.452C734.183 349.352 733.292 348.46 732.192 348.46C731.092 348.46 730.201 349.352 730.201 350.452C730.201 351.552 731.092 352.443 732.192 352.443Z" fill="#212444"/>
<path d="M629.176 607.915C629.176 609.026 628.295 609.906 627.185 609.906C626.074 609.906 625.193 609.026 625.193 607.915C625.193 606.805 626.074 605.924 627.185 605.924C628.295 605.924 629.176 606.805 629.176 607.915Z" fill="#212444"/>
<path d="M426.705 598.494C426.705 599.605 425.825 600.486 424.714 600.486C423.604 600.486 422.723 599.605 422.723 598.494C422.723 597.384 423.604 596.503 424.714 596.503C425.825 596.503 426.705 597.384 426.705 598.494Z" fill="#212444"/>
<path d="M333.915 377.795C335.015 377.795 335.906 376.904 335.906 375.804C335.906 374.704 335.015 373.812 333.915 373.812C332.815 373.812 331.923 374.704 331.923 375.804C331.923 376.904 332.815 377.795 333.915 377.795Z" fill="#212444"/>
<path d="M663.795 670.337C664.895 670.337 665.787 669.446 665.787 668.346C665.787 667.246 664.895 666.355 663.795 666.355C662.695 666.355 661.804 667.246 661.804 668.346C661.804 669.446 662.695 670.337 663.795 670.337Z" fill="#212444"/>
<path d="M734.183 759.988C735.282 759.988 736.174 759.097 736.174 757.997C736.174 756.897 735.282 756.005 734.183 756.005C733.083 756.005 732.191 756.897 732.191 757.997C732.191 759.097 733.083 759.988 734.183 759.988Z" fill="#212444"/>
<path d="M625.193 809.773C626.293 809.773 627.184 808.881 627.184 807.782C627.184 806.682 626.293 805.79 625.193 805.79C624.093 805.79 623.202 806.682 623.202 807.782C623.202 808.881 624.093 809.773 625.193 809.773Z" fill="#212444"/>
<path d="M33.8665 863.272C33.8665 864.383 32.9856 865.263 31.8751 865.263C30.7645 865.263 29.8838 864.383 29.8838 863.272C29.8838 862.162 30.7645 861.281 31.8751 861.281C32.9856 861.281 33.8665 862.162 33.8665 863.272Z" fill="#212444"/>
<path d="M679.037 638.207C680.137 638.207 681.029 637.316 681.029 636.216C681.029 635.116 680.137 634.224 679.037 634.224C677.937 634.224 677.046 635.116 677.046 636.216C677.046 637.316 677.937 638.207 679.037 638.207Z" fill="#212444"/>
<path d="M232.239 722.994C232.239 724.105 231.358 724.986 230.248 724.986C229.137 724.986 228.256 724.105 228.256 722.994C228.256 721.884 229.137 721.003 230.248 721.003C231.358 721.003 232.239 721.884 232.239 722.994Z" fill="#212444"/>
<path d="M596.701 340.189C597.801 340.189 598.693 339.297 598.693 338.197C598.693 337.097 597.801 336.206 596.701 336.206C595.601 336.206 594.71 337.097 594.71 338.197C594.71 339.297 595.601 340.189 596.701 340.189Z" fill="#212444"/>
<path d="M87.4034 530.481C88.5032 530.481 89.3948 529.589 89.3948 528.49C89.3948 527.39 88.5032 526.498 87.4034 526.498C86.3036 526.498 85.4121 527.39 85.4121 528.49C85.4121 529.589 86.3036 530.481 87.4034 530.481Z" fill="#212444"/>
<path d="M96.327 486.134C96.327 486.938 95.6759 487.589 94.8717 487.589C94.0675 487.589 93.4165 486.938 93.4165 486.134C93.4165 485.33 94.0675 484.679 94.8717 484.679C95.6759 484.679 96.327 485.33 96.327 486.134Z" fill="white"/>
<path d="M166.447 289.063C166.447 289.868 165.796 290.519 164.992 290.519C164.188 290.519 163.537 289.868 163.537 289.063C163.537 288.259 164.188 287.608 164.992 287.608C165.796 287.608 166.447 288.259 166.447 289.063Z" fill="#212444"/>
<path d="M54.7756 466.91C55.8755 466.91 56.7669 466.018 56.7669 464.918C56.7669 463.818 55.8755 462.927 54.7756 462.927C53.6758 462.927 52.7842 463.818 52.7842 464.918C52.7842 466.018 53.6758 466.91 54.7756 466.91Z" fill="#212444"/>
<path d="M435.475 395.909C436.575 395.909 437.467 395.018 437.467 393.918C437.467 392.818 436.575 391.926 435.475 391.926C434.375 391.926 433.484 392.818 433.484 393.918C433.484 395.018 434.375 395.909 435.475 395.909Z" fill="#212444"/>
<path d="M293.704 350.452C294.804 350.452 295.695 349.56 295.695 348.46C295.695 347.36 294.804 346.469 293.704 346.469C292.604 346.469 291.712 347.36 291.712 348.46C291.712 349.56 292.604 350.452 293.704 350.452Z" fill="#212444"/>
<path d="M226.188 408.585C227.287 408.585 228.179 407.693 228.179 406.594C228.179 405.494 227.287 404.602 226.188 404.602C225.088 404.602 224.196 405.494 224.196 406.594C224.196 407.693 225.088 408.585 226.188 408.585Z" fill="#212444"/>
<path d="M534.47 315.641C535.57 315.641 536.461 314.749 536.461 313.649C536.461 312.55 535.57 311.658 534.47 311.658C533.37 311.658 532.479 312.55 532.479 313.649C532.479 314.749 533.37 315.641 534.47 315.641Z" fill="#212444"/>
<path d="M512.259 622.889C514.628 622.889 516.548 620.969 516.548 618.6C516.548 616.231 514.628 614.311 512.259 614.311C509.89 614.311 507.97 616.231 507.97 618.6C507.97 620.969 509.89 622.889 512.259 622.889Z" fill="#212444"/>
<path d="M145.881 543.195C148.25 543.195 150.17 541.275 150.17 538.906C150.17 536.537 148.25 534.617 145.881 534.617C143.512 534.617 141.592 536.537 141.592 538.906C141.592 541.275 143.512 543.195 145.881 543.195Z" fill="#212444"/>
<path d="M439.752 879.906C440.132 877.568 438.544 875.365 436.206 874.985C433.867 874.606 431.664 876.194 431.285 878.532C430.905 880.87 432.493 883.073 434.831 883.453C437.17 883.832 439.373 882.244 439.752 879.906Z" fill="#212444"/>
<path d="M679.037 894.254C682.59 894.254 685.471 891.373 685.471 887.82C685.471 884.267 682.59 881.386 679.037 881.386C675.484 881.386 672.604 884.267 672.604 887.82C672.604 891.373 675.484 894.254 679.037 894.254Z" fill="#212444"/>
<path d="M490.664 732.015C492.728 729.951 492.728 726.605 490.664 724.541C488.601 722.477 485.254 722.477 483.191 724.541C481.127 726.605 481.127 729.951 483.19 732.015C485.254 734.079 488.601 734.079 490.664 732.015Z" fill="#212444"/>
<path d="M691.904 305.224C696.367 305.224 699.985 301.607 699.985 297.144C699.985 292.681 696.367 289.064 691.904 289.064C687.442 289.064 683.824 292.681 683.824 297.144C683.824 301.607 687.442 305.224 691.904 305.224Z" fill="#212444"/>
<path d="M224.695 816.168C224.695 816.819 224.158 817.355 223.507 817.355C222.856 817.355 222.32 816.819 222.32 816.168C222.32 815.517 222.856 814.981 223.507 814.981C224.158 814.981 224.695 815.479 224.695 816.168Z" fill="white"/>
<path d="M324.57 690.673C324.57 691.324 324.034 691.86 323.383 691.86C322.732 691.86 322.196 691.324 322.196 690.673C322.196 690.022 322.732 689.485 323.383 689.485C324.034 689.485 324.57 690.022 324.57 690.673Z" fill="#212444"/>
<path d="M362.752 805.79C362.752 806.441 362.215 806.977 361.564 806.977C360.913 806.977 360.377 806.441 360.377 805.79C360.377 805.139 360.913 804.603 361.564 804.603C362.215 804.603 362.752 805.139 362.752 805.79Z" fill="#212444"/>
<path d="M94.6039 760.754C94.6039 761.405 94.0677 761.941 93.4167 761.941C92.7657 761.941 92.2295 761.405 92.2295 760.754C92.2295 760.103 92.7657 759.567 93.4167 759.567C94.0677 759.567 94.6039 760.065 94.6039 760.754Z" fill="#212444"/>
<path d="M303.125 517.077C303.125 517.728 302.589 518.265 301.938 518.265C301.287 518.265 300.75 517.728 300.75 517.077C300.75 516.426 301.287 515.89 301.938 515.89C302.589 515.89 303.125 516.426 303.125 517.077Z" fill="#212444"/>
<path d="M866.853 717.671C859.462 719.892 859.002 720.62 859.768 728.279C857.547 720.888 856.819 720.428 849.16 721.194C856.551 718.973 857.011 718.246 856.245 710.586C858.466 717.978 859.194 718.437 866.853 717.671Z" fill="white"/>
<path d="M975.307 348.46C969.792 343.099 968.949 343.022 962.592 347.388C967.954 341.873 968.03 341.031 963.665 334.674C969.179 340.035 970.022 340.112 976.379 335.746C971.017 341.261 970.941 342.103 975.307 348.46Z" fill="#212444"/>
<path d="M1524.62 458.753C1520.33 457.029 1519.84 457.183 1517.31 461.05C1519.03 456.761 1518.88 456.263 1515.01 453.736C1519.3 455.459 1519.8 455.306 1522.33 451.438C1520.6 455.727 1520.76 456.225 1524.62 458.753Z" fill="white"/>
<path d="M1247.51 635.373C1243.03 636.561 1242.73 636.943 1243.03 641.577C1241.85 637.097 1241.46 636.79 1236.83 637.097C1241.31 635.909 1241.62 635.527 1241.31 630.893C1242.5 635.373 1242.92 635.641 1247.51 635.373Z" fill="#212444"/>
<path d="M1451.02 315.335C1446.35 311.467 1445.69 311.428 1440.95 315.296C1444.81 310.624 1444.85 309.973 1440.98 305.263C1445.66 309.131 1446.31 309.169 1451.06 305.301C1447.19 309.935 1447.15 310.624 1451.02 315.335Z" fill="#212444"/>
<path d="M1453.12 310.318C1447.07 310.854 1446.61 311.352 1445.96 317.403C1445.43 311.352 1444.93 310.892 1438.88 310.241C1444.93 309.705 1445.39 309.207 1446.04 303.156C1446.61 309.207 1447.07 309.705 1453.12 310.318Z" fill="#212444"/>
<path d="M1022.14 678.763C1024 678.763 1025.51 677.254 1025.51 675.393C1025.51 673.531 1024 672.022 1022.14 672.022C1020.28 672.022 1018.77 673.531 1018.77 675.393C1018.77 677.254 1020.28 678.763 1022.14 678.763Z" fill="#212444"/>
<path d="M928.356 880.927C928.356 881.884 927.59 882.65 926.633 882.65C925.676 882.65 924.91 881.884 924.91 880.927C924.91 879.969 925.676 879.203 926.633 879.203C927.59 879.203 928.356 880.008 928.356 880.927Z" fill="#212444"/>
<path d="M890.481 934.579C890.481 935.537 889.715 936.302 888.758 936.302C887.801 936.302 887.035 935.537 887.035 934.579C887.035 933.622 887.801 932.856 888.758 932.856C889.715 932.856 890.481 933.622 890.481 934.579Z" fill="#212444"/>
<path d="M740.553 746.163C740.553 747.121 739.787 747.887 738.829 747.887C737.872 747.887 737.106 747.121 737.106 746.163C737.106 745.206 737.872 744.44 738.829 744.44C739.787 744.44 740.553 745.206 740.553 746.163Z" fill="#212444"/>
<path d="M748.173 887.667C750.035 887.667 751.543 886.158 751.543 884.297C751.543 882.435 750.035 880.927 748.173 880.927C746.312 880.927 744.803 882.435 744.803 884.297C744.803 886.158 746.312 887.667 748.173 887.667Z" fill="#212444"/>
<path d="M843.021 532.497C843.32 530.66 842.073 528.928 840.236 528.629C838.399 528.331 836.667 529.577 836.368 531.414C836.069 533.251 837.316 534.983 839.153 535.282C840.99 535.581 842.722 534.334 843.021 532.497Z" fill="#212444"/>
<path d="M825.532 317.02C827.393 317.02 828.902 315.511 828.902 313.65C828.902 311.788 827.393 310.279 825.532 310.279C823.67 310.279 822.162 311.788 822.162 313.65C822.162 315.511 823.67 317.02 825.532 317.02Z" fill="#212444"/>
<path d="M1091.3 344.937C1093.17 344.937 1094.67 343.429 1094.67 341.567C1094.67 339.706 1093.17 338.197 1091.3 338.197C1089.44 338.197 1087.93 339.706 1087.93 341.567C1087.93 343.429 1089.44 344.937 1091.3 344.937Z" fill="#212444"/>
<path d="M806.766 620.591C807.866 620.591 808.758 619.7 808.758 618.6C808.758 617.5 807.866 616.608 806.766 616.608C805.667 616.608 804.775 617.5 804.775 618.6C804.775 619.7 805.667 620.591 806.766 620.591Z" fill="white"/>
<path d="M1469.59 598.494C1469.59 599.605 1468.71 600.486 1467.6 600.486C1466.49 600.486 1465.61 599.605 1465.61 598.494C1465.61 597.384 1466.49 596.503 1467.6 596.503C1468.71 596.503 1469.59 597.384 1469.59 598.494Z" fill="#212444"/>
<path d="M1376.8 377.795C1377.9 377.795 1378.79 376.904 1378.79 375.804C1378.79 374.704 1377.9 373.812 1376.8 373.812C1375.7 373.812 1374.81 374.704 1374.81 375.804C1374.81 376.904 1375.7 377.795 1376.8 377.795Z" fill="#212444"/>
<path d="M1076.75 863.272C1076.75 864.383 1075.87 865.263 1074.76 865.263C1073.65 865.263 1072.77 864.383 1072.77 863.272C1072.77 862.162 1073.65 861.281 1074.76 861.281C1075.87 861.281 1076.75 862.162 1076.75 863.272Z" fill="#212444"/>
<path d="M1275.13 722.994C1275.13 724.105 1274.24 724.986 1273.13 724.986C1272.02 724.986 1271.14 724.105 1271.14 722.994C1271.14 721.884 1272.02 721.003 1273.13 721.003C1274.24 721.003 1275.13 721.884 1275.13 722.994Z" fill="#212444"/>
<path d="M894.464 587.848C895.564 587.848 896.455 586.956 896.455 585.857C896.455 584.757 895.564 583.865 894.464 583.865C893.364 583.865 892.473 584.757 892.473 585.857C892.473 586.956 893.364 587.848 894.464 587.848Z" fill="#212444"/>
<path d="M1130.29 530.481C1131.39 530.481 1132.28 529.589 1132.28 528.489C1132.28 527.39 1131.39 526.498 1130.29 526.498C1129.19 526.498 1128.3 527.39 1128.3 528.489C1128.3 529.589 1129.19 530.481 1130.29 530.481Z" fill="#212444"/>
<path d="M1139.21 486.134C1139.21 486.938 1138.56 487.589 1137.76 487.589C1136.95 487.589 1136.3 486.938 1136.3 486.134C1136.3 485.33 1136.95 484.679 1137.76 484.679C1138.56 484.679 1139.21 485.33 1139.21 486.134Z" fill="white"/>
<path d="M1209.33 289.063C1209.33 289.868 1208.68 290.519 1207.88 290.519C1207.07 290.519 1206.42 289.868 1206.42 289.063C1206.42 288.259 1207.07 287.608 1207.88 287.608C1208.68 287.608 1209.33 288.259 1209.33 289.063Z" fill="#212444"/>
<path d="M1097.66 466.91C1098.76 466.91 1099.65 466.018 1099.65 464.918C1099.65 463.818 1098.76 462.927 1097.66 462.927C1096.56 462.927 1095.67 463.818 1095.67 464.918C1095.67 466.018 1096.56 466.91 1097.66 466.91Z" fill="#212444"/>
<path d="M1478.36 395.909C1479.46 395.909 1480.35 395.017 1480.35 393.918C1480.35 392.818 1479.46 391.926 1478.36 391.926C1477.26 391.926 1476.37 392.818 1476.37 393.918C1476.37 395.017 1477.26 395.909 1478.36 395.909Z" fill="#212444"/>
<path d="M1336.59 350.452C1337.69 350.452 1338.58 349.56 1338.58 348.46C1338.58 347.36 1337.69 346.469 1336.59 346.469C1335.49 346.469 1334.6 347.36 1334.6 348.46C1334.6 349.56 1335.49 350.452 1336.59 350.452Z" fill="#212444"/>
<path d="M1269.07 408.585C1270.17 408.585 1271.07 407.693 1271.07 406.594C1271.07 405.494 1270.17 404.602 1269.07 404.602C1267.97 404.602 1267.08 405.494 1267.08 406.594C1267.08 407.693 1267.97 408.585 1269.07 408.585Z" fill="#212444"/>
<path d="M986.26 397.939C986.26 399.049 985.379 399.93 984.268 399.93C983.158 399.93 982.277 399.049 982.277 397.939C982.277 396.828 983.158 395.947 984.268 395.947C985.379 395.947 986.26 396.828 986.26 397.939Z" fill="#212444"/>
<path d="M825.532 378.944C826.631 378.944 827.523 378.052 827.523 376.952C827.523 375.853 826.631 374.961 825.532 374.961C824.432 374.961 823.54 375.853 823.54 376.952C823.54 378.052 824.432 378.944 825.532 378.944Z" fill="#212444"/>
<path d="M825.532 571.189C826.631 571.189 827.523 570.298 827.523 569.198C827.523 568.098 826.631 567.207 825.532 567.207C824.432 567.207 823.54 568.098 823.54 569.198C823.54 570.298 824.432 571.189 825.532 571.189Z" fill="#212444"/>
<path d="M842.956 611.783C845.325 611.783 847.245 609.863 847.245 607.494C847.245 605.125 845.325 603.205 842.956 603.205C840.587 603.205 838.667 605.125 838.667 607.494C838.667 609.863 840.587 611.783 842.956 611.783Z" fill="#212444"/>
<path d="M1188.77 543.195C1191.14 543.195 1193.06 541.275 1193.06 538.906C1193.06 536.537 1191.14 534.617 1188.77 534.617C1186.4 534.617 1184.48 536.537 1184.48 538.906C1184.48 541.275 1186.4 543.195 1188.77 543.195Z" fill="#212444"/>
<path d="M751.544 381.242C753.913 381.242 755.833 379.321 755.833 376.953C755.833 374.584 753.913 372.663 751.544 372.663C749.175 372.663 747.255 374.584 747.255 376.953C747.255 379.321 749.175 381.242 751.544 381.242Z" fill="#212444"/>
<path d="M969.524 910.108C971.893 910.108 973.813 908.188 973.813 905.819C973.813 903.45 971.893 901.53 969.524 901.53C967.155 901.53 965.235 903.45 965.235 905.819C965.235 908.188 967.155 910.108 969.524 910.108Z" fill="#212444"/>
<path d="M1482.64 879.906C1483.02 877.568 1481.43 875.365 1479.09 874.985C1476.75 874.606 1474.55 876.194 1474.17 878.532C1473.79 880.87 1475.38 883.073 1477.72 883.453C1480.06 883.832 1482.26 882.244 1482.64 879.906Z" fill="#212444"/>
<path d="M769.006 806.824C771.375 806.824 773.296 804.904 773.296 802.535C773.296 800.166 771.375 798.246 769.006 798.246C766.638 798.246 764.717 800.166 764.717 802.535C764.717 804.904 766.638 806.824 769.006 806.824Z" fill="#212444"/>
<path d="M1533.55 732.015C1535.61 729.951 1535.61 726.605 1533.55 724.541C1531.49 722.477 1528.14 722.477 1526.08 724.541C1524.01 726.605 1524.01 729.951 1526.08 732.015C1528.14 734.079 1531.49 734.079 1533.55 732.015Z" fill="#212444"/>
<path d="M907.184 843.005C908.946 842.13 909.665 839.993 908.79 838.231C907.915 836.469 905.778 835.75 904.016 836.624C902.254 837.499 901.535 839.637 902.41 841.398C903.285 843.16 905.422 843.879 907.184 843.005Z" fill="#212444"/>
<path d="M1267.58 816.168C1267.58 816.819 1267.05 817.355 1266.39 817.355C1265.74 817.355 1265.21 816.819 1265.21 816.168C1265.21 815.517 1265.74 814.981 1266.39 814.981C1267.05 814.981 1267.58 815.479 1267.58 816.168Z" fill="white"/>
<path d="M1367.46 690.673C1367.46 691.324 1366.92 691.86 1366.27 691.86C1365.62 691.86 1365.08 691.324 1365.08 690.673C1365.08 690.022 1365.62 689.485 1366.27 689.485C1366.92 689.485 1367.46 690.022 1367.46 690.673Z" fill="#212444"/>
<path d="M1405.64 805.79C1405.64 806.441 1405.1 806.977 1404.45 806.977C1403.8 806.977 1403.26 806.441 1403.26 805.79C1403.26 805.139 1403.8 804.603 1404.45 804.603C1405.1 804.603 1405.64 805.139 1405.64 805.79Z" fill="#212444"/>
<path d="M1137.49 760.754C1137.49 761.405 1136.95 761.941 1136.3 761.941C1135.65 761.941 1135.12 761.405 1135.12 760.754C1135.12 760.103 1135.65 759.567 1136.3 759.567C1136.95 759.567 1137.49 760.065 1137.49 760.754Z" fill="#212444"/>
<path d="M1346.01 517.077C1346.01 517.728 1345.47 518.265 1344.82 518.265C1344.17 518.265 1343.64 517.728 1343.64 517.077C1343.64 516.426 1344.17 515.89 1344.82 515.89C1345.47 515.89 1346.01 516.426 1346.01 517.077Z" fill="#212444"/>
<path d="M-336.735 79C-183.369 130.555 108.142 230.587 264.076 297.58C482.105 391.225 785.576 471.971 806.947 513.96C828.318 555.949 734.274 552.729 883.894 591.498C1033.51 630.267 1435.31 840.159 1614.86 898.296C1648.77 909.278 1682.54 922.219 1715 936H1334.53C1264.02 893.709 1202.72 858.462 1170.26 843.387C1059.14 791.71 785.559 691.604 725.709 668.996C665.859 646.387 695.806 623.774 635.956 585.038C576.106 546.302 195.677 429.982 28.9606 355.689C-78.0679 308.019 -266.048 231.056 -387 182.069V79H-336.735Z" fill="url(#paint0_linear_2_5961)"/>
<path d="M473.985 -93.6011C612.671 -22.2696 834.324 104.411 897.565 214.277C991.686 377.756 969.756 331.193 1106.48 403.589C1243.2 475.986 1378.27 617.497 1332.27 610.613C1286.27 603.728 1122.37 461.543 996.049 435.428C869.724 409.314 783.768 384.191 637.338 236.714C524.743 123.25 126.67 -37.9847 -51.2332 -106.417L473.985 -93.6011Z" fill="url(#paint1_linear_2_5961)"/>
<path d="M388.487 19.1991C388.871 0.655464 395.137 -18.3678 389.574 -36.5917C384.906 -51.9062 372.085 -64.1194 358.497 -71.8246C342.639 -80.7767 324 -79.306 307.918 -87.4269C300.277 -91.2955 294.618 -98.0415 287.648 -102.869C280.55 -107.793 273.101 -111.182 264.628 -112.908C250.241 -115.818 234.159 -112.653 221.051 -106.482C213.409 -102.869 206.024 -98.8728 198.095 -95.8994C190.262 -92.958 181.885 -91.7111 174.02 -88.8656C161.103 -84.1657 149.849 -75.2456 141.473 -64.4711C137.636 -59.5794 136.901 -52.9932 136.101 -47.0145C135.942 -45.8635 135.75 -44.7445 135.462 -43.6255C127.149 -30.9327 115.288 -21.0854 106.655 -8.32861C96.3925 6.82603 94.8899 25.8173 96.8401 43.5297C98.8544 61.6577 111.419 77.5477 123.696 90.3364C130.379 97.3063 136.357 104.852 143.455 111.47C150.169 117.736 153.654 126.56 158.642 134.138C168.233 148.717 183.835 152.649 200.237 148.173C208.741 145.839 216.702 142.003 225.047 139.221C236.333 135.481 247.491 136.983 258.841 139.349C278.472 143.41 297.08 143.569 316.646 138.902C332.632 135.129 349.705 129.502 363.517 120.454C396.448 98.7769 387.815 52.4818 388.487 19.1991Z" fill="url(#paint2_radial_2_5961)"/>
<path opacity="0.35" d="M388.455 19.9983C388.935 1.45468 395.329 -17.5046 389.862 -35.7925C385.29 -51.1389 372.533 -63.4481 358.977 -71.1853C343.151 -80.2333 324.511 -78.8904 308.494 -87.0752C300.884 -90.9758 295.257 -97.7858 288.319 -102.646C281.254 -107.601 273.804 -111.054 265.332 -112.781C250.944 -115.754 234.863 -112.685 221.722 -106.578C214.049 -102.997 206.631 -99.0327 198.702 -96.1233C190.837 -93.2458 182.461 -92.0309 174.564 -89.2173C161.615 -84.5814 150.329 -75.7252 141.857 -64.9827C137.988 -60.091 137.253 -53.5368 136.389 -47.5581C136.23 -46.4071 136.006 -45.2881 135.75 -44.1691C127.373 -31.5402 115.448 -21.7249 106.752 -9.03207C96.4247 6.05862 94.7941 25.0499 96.6804 42.7623C98.5987 60.9222 111.068 76.8762 123.281 89.7288C129.931 96.7307 135.846 104.308 142.912 110.958C149.594 117.257 153.047 126.113 157.97 133.722C167.466 148.365 183.068 152.394 199.47 148.013C207.974 145.743 215.999 141.939 224.344 139.221C235.63 135.544 246.788 137.111 258.138 139.541C277.769 143.729 296.344 143.953 315.943 139.413C331.929 135.704 349.066 130.205 362.91 121.189C396 99.6081 387.624 53.249 388.455 19.9983ZM323.456 -40.1406C320.995 -36.0163 316.263 -34.1619 312.042 -32.3075C305.776 -29.558 300.852 -26.2968 297.016 -20.446C293.147 -14.5632 290.174 -8.10489 286.817 -1.90236C284.259 2.7975 281.605 8.4565 277.097 11.6217C274.284 13.572 271.087 14.691 268.273 16.5773C264.213 19.263 264.053 22.8119 263.094 27.0961C262.007 31.9558 259.321 34.0659 254.557 35.121C241.065 38.0944 228.116 46.0553 222.841 59.1638C231.857 55.1034 241.513 50.2437 251.424 53.4089C252.447 53.7605 252.447 55.1673 251.424 55.487C239.371 59.2917 227.733 73.4552 224.695 85.5725C223.385 90.8479 223.097 106.226 214.305 105.555C209.061 105.139 204.553 101.846 199.63 100.343C192.884 98.2333 185.434 97.2102 178.688 100.056C175.331 101.462 171.91 105.267 168.105 104.692C163.15 103.956 162.894 96.347 157.139 96.5388C152.951 96.6987 149.114 97.8497 145.469 95.0361C141.857 92.2546 138.915 88.8656 135.718 85.6684C127.533 77.5156 117.91 69.8743 111.004 60.5705C101.988 48.4532 99.8776 31.7959 101.924 17.1528C102.499 12.9645 103.49 8.68031 104.865 4.65186C108.222 -5.16348 114.808 -13.5081 122.162 -20.6698C126.031 -24.4425 130.826 -26.9043 135.206 -29.9416C141.857 -34.5456 140.897 -40.5243 140.802 -47.7499C140.802 -48.6132 142.048 -49.2846 142.656 -48.5172C145.853 -44.5847 146.876 -39.7889 148.059 -35.0251C149.722 -43.9453 151.704 -54.4 160.304 -58.6203C162.702 -59.8033 167.914 -63.0005 170.663 -61.8815C174.212 -60.4427 176.45 -57.1496 179.2 -54.5599C177.729 -59.3237 175.779 -63.9596 174.468 -68.8193C174.308 -69.4268 174.66 -69.9703 175.235 -70.1302C179.935 -71.8247 181.629 -77.7714 186.425 -79.0823C188.28 -79.5938 190.134 -79.6898 192.02 -79.5938C191.093 -80.6489 190.134 -81.672 189.047 -82.6312C188.376 -83.2067 188.823 -84.1658 189.527 -84.4536C192.596 -85.6365 195.985 -86.5957 198.734 -88.45C196.816 -88.5459 194.898 -88.4181 192.947 -88.3861C191.637 -88.3541 191.605 -90.0806 192.66 -90.4962C209.925 -97.6579 225.527 -108.528 244.71 -109.647C251.2 -110.031 259.481 -109.392 263.349 -103.317C266.035 -99.1286 263.541 -90.0166 261.911 -85.8283C261.559 -84.9331 260.056 -84.6774 259.832 -85.8283C259.257 -89.0255 259.001 -92.2227 258.809 -95.4518C258.106 -92.2227 257.211 -89.0255 255.772 -86.0202C255.516 -85.4766 254.781 -85.3488 254.301 -85.6365C250.625 -87.7147 246.948 -89.8568 243.303 -92.0628C243.655 -91.2316 244.006 -90.4003 244.39 -89.569C244.774 -88.7058 243.879 -87.395 242.919 -88.0983C239.211 -90.8159 229.14 -94.7485 225.399 -90.0486C221.978 -85.7644 228.884 -79.434 230.45 -75.5654C230.61 -75.1497 230.354 -74.5423 229.939 -74.3505C223.417 -71.1533 213.633 -70.29 209.797 -63.48C216.926 -61.0502 225.751 -62.6808 232.88 -63.9277C236.301 -64.5031 239.722 -65.1426 243.111 -65.814C244.774 -66.1337 247.108 -66.901 248.706 -65.9738C252.863 -63.544 249.57 -56.5741 247.811 -53.7286C245.221 -49.5084 242.44 -45.5119 240.426 -41.1957C240.394 -40.876 240.33 -40.5243 240.362 -40.2046C248.291 -43.114 252.639 -51.3308 259.353 -56.1265C259.928 -56.5422 260.76 -56.0946 260.951 -55.4871C261.527 -53.6967 261.495 -51.7464 261.591 -49.892C261.687 -48.5492 261.687 -47.1424 261.975 -45.8316C262.422 -43.7215 264.277 -44.201 264.916 -46.0234C266.227 -49.8601 266.579 -54.2402 268.561 -57.853C269.584 -59.7074 271.182 -61.6257 273.516 -60.5706C277.193 -58.9081 279.239 -55.8068 283.3 -55.3592C282.533 -57.5653 281.19 -59.3237 279.623 -61.1781C278.728 -62.2331 280.103 -63.6079 281.158 -62.6807C288 -56.766 295.737 -51.8103 304.433 -49.1247C310.827 -47.1425 317.638 -45.6717 323.169 -41.7392C323.52 -41.2596 323.776 -40.6522 323.456 -40.1406Z" fill="#171B34"/>
<path d="M199.448 131.72C192.159 130.205 186.859 125.216 186.752 120.04C186.473 120.574 186.291 121.043 186.173 121.61C184.994 127.279 190.594 133.259 198.693 134.943C206.792 136.626 214.312 133.374 215.49 127.705C215.608 127.138 215.645 126.554 215.584 126.034C213.585 130.773 206.737 133.235 199.448 131.72Z" fill="#171B34"/>
<path d="M203.051 114.389C195.045 112.724 187.748 115.254 186.753 120.04C185.758 124.826 191.442 130.055 199.448 131.72C207.454 133.384 214.751 130.854 215.746 126.068C216.741 121.282 211.057 116.053 203.051 114.389Z" fill="#0B0D19"/>
<path d="M152.116 111.747C151.886 110.01 152.223 108.39 153.012 107.033C151.751 108.63 151.151 110.702 151.378 112.861C151.93 117.116 155.865 120.131 160.12 119.579C162.718 119.274 164.823 117.684 165.925 115.632C164.681 117.147 162.92 118.302 160.761 118.529C156.604 119.017 152.668 116.002 152.116 111.747Z" fill="#171B34"/>
<path d="M158.193 104.055C156.115 104.299 154.273 105.437 153.029 106.952C152.24 108.309 151.886 110.01 152.133 111.666C152.685 115.921 156.62 118.936 160.875 118.384C162.953 118.14 164.795 117.002 166.04 115.487C166.829 114.13 167.182 112.429 166.935 110.773C166.383 106.518 162.448 103.503 158.193 104.055Z" fill="#0B0D19"/>
<path opacity="0.6" d="M141.409 -32.9789C136.453 -29.2382 132.617 -24.4105 127.565 -20.6698C123.377 -17.6005 119.668 -14.1475 116.247 -10.247C108.382 -1.29488 104.578 9.67144 103.554 21.3731C102.435 33.9061 105.952 46.0554 112.602 56.5741C116.279 62.393 121.043 67.1248 125.711 72.0804C129.388 76.0129 132.649 80.425 137.189 83.3984C137.508 83.6222 138.276 82.9188 137.956 82.5991C122.642 65.9098 107.295 49.0287 106.336 25.2097C105.824 12.389 110.173 0.591454 118.07 -9.41572C121.491 -13.7319 125.903 -17.2808 130.123 -20.7657C134.439 -24.3785 137.476 -29.0464 141.697 -32.6272C142.048 -32.915 141.729 -33.2027 141.409 -32.9789Z" fill="#0B0D19"/>
<path opacity="0.7" d="M347.914 108.273C343.598 109.935 339.41 111.853 335.254 113.9C331.065 115.978 326.397 118.216 322.369 121.125C319.108 122.564 315.879 124.994 314.376 127.743C311.882 132.347 319.46 131.964 322.049 131.644C330.362 130.717 338.675 127.04 345.964 123.139C351.431 120.198 359.712 115.242 362.877 109.711C367.961 100.663 350.568 107.249 347.914 108.273Z" fill="#0C0E16"/>
<g opacity="0.7">
<path opacity="0.7" d="M122.002 19.3269C121.586 19.3269 121.138 19.3589 120.723 19.3589C120.179 19.3269 119.987 19.1031 119.572 18.8793C119.284 18.7514 118.932 19.1031 118.836 19.3269C118.389 20.7017 120.978 20.2221 121.65 20.1901C122.002 20.1901 122.545 19.3269 122.002 19.3269Z" fill="#0B0D19"/>
</g>
<path opacity="0.7" d="M352.072 58.2047C350.857 58.3006 349.706 59.1639 348.842 59.9632C347.947 60.8264 347.116 61.9135 347.02 63.1604C346.988 63.4801 347.18 63.8957 347.5 63.9916C348.587 64.3114 349.578 64.0556 350.537 63.4161C351.336 62.9046 352.807 61.5618 352.583 60.4108C352.775 60.0271 352.935 59.6435 353.031 59.2598C353.223 58.5564 352.807 58.1728 352.072 58.2047Z" fill="#0B0D19"/>
<path opacity="0.7" d="M377.585 19.4549C376.018 16.9291 372.693 17.2808 370.711 19.1032C368.984 20.7018 368.025 22.5562 367.194 24.5704C365.499 27.1921 364.38 30.3253 364.188 32.1477C364.028 33.5545 364.156 35.281 364.636 36.8476C364.668 37.1033 364.7 37.3591 364.764 37.6149C365.339 40.5563 368.664 42.5705 371.318 40.7801C373.46 40.3645 375.315 39.0856 376.785 37.2952C380.654 32.6273 380.686 24.4425 377.585 19.4549Z" fill="#0C0E16"/>
<path opacity="0.7" d="M370.998 2.41398C370.711 1.99835 370.199 1.99835 369.751 2.09426C368.984 2.25412 368.185 2.95751 368.249 3.82075C368.153 4.07652 368.121 4.3323 368.057 4.62004C367.993 5.03568 368.441 5.22751 368.792 5.16357C369.304 5.09962 369.688 4.71596 369.943 4.30033C369.975 4.23638 370.007 4.17244 370.039 4.14047C370.135 4.07652 370.231 4.04455 370.327 3.98061C370.807 3.69286 371.414 2.98947 370.998 2.41398Z" fill="#0B0D19"/>
<path d="M346.157 -7.0497C334.935 -2.47773 322.562 7.72126 321.315 20.5739C320.931 19.9025 320.483 19.359 320.004 18.8475C320.164 15.4265 320.324 12.0694 321.315 8.68043C321.443 8.2648 320.835 8.52057 320.739 8.77634C319.684 11.5899 319.013 14.6272 318.693 17.6965C316.423 16.0979 313.546 15.6503 310.284 15.8101C307.918 15.6503 305.617 15.8421 303.347 16.3217C302.867 14.2755 302.483 12.2293 302.483 9.89535C302.483 6.57029 303.155 0.143959 305.553 -2.5097C305.904 -2.92533 305.425 -3.11718 305.105 -2.8614C301.908 -0.239715 301.108 5.32339 300.533 9.16001C300.309 10.6947 299.989 14.2115 300.469 17.089C296.92 18.208 293.499 19.9345 290.078 21.9487C285.57 24.6344 281.254 27.6077 277.257 30.9328C277.002 30.709 276.746 30.4852 276.522 30.2294C275.755 29.4301 274.988 28.6308 274.252 27.7996C273.517 26.9683 272.75 26.201 271.854 25.5296C271.087 24.9541 270.16 24.5065 269.456 23.8351C269.169 23.5473 268.465 24.1548 268.721 24.4745C269.233 25.1139 269.872 25.5296 270.448 26.0731C271.375 26.9683 272.174 27.8635 272.973 28.8866C273.709 29.8457 274.508 30.7729 275.275 31.7321C275.435 31.9239 275.563 32.0838 275.691 32.2436C275.275 32.6273 274.892 33.011 274.508 33.3626C274.22 33.1388 273.964 32.9151 273.741 32.6593C273.069 31.9879 272.462 31.2525 271.662 30.709C271.407 30.5491 270.831 31.0927 271.087 31.3165C271.822 31.9879 272.366 32.8511 272.973 33.6504C273.133 33.8742 273.325 34.098 273.517 34.3218C271.95 35.8245 270.416 37.3591 268.977 38.9897C266.099 37.9346 262.071 38.2224 259.609 38.3183C253.119 38.606 248.035 40.3005 242.344 43.21C242.089 43.3379 242.025 43.8174 242.408 43.6576C248.579 41.1957 254.014 40.0128 260.696 40.2046C262.87 40.2686 265.012 40.6203 267.091 41.2277C266.995 41.3556 266.899 41.4515 266.803 41.5794C262.998 46.4071 259.737 52.5138 258.682 58.7483C255.325 59.4516 251.616 61.3699 249.506 63.1604C247.332 64.9828 245.446 66.965 243.719 69.235C242.376 71.0254 241.801 74.3186 240.266 75.7893C240.106 75.9491 240.074 76.3008 240.394 76.1729C242.696 75.2137 244.454 70.6418 245.957 68.8833C249.474 64.8229 253.63 62.7447 258.362 61.1461C258.298 62.0094 258.266 62.8726 258.298 63.7359C258.362 65.4943 258.778 66.965 259.417 68.2439C258.458 68.6275 257.499 69.5228 256.955 70.0663C255.74 71.3771 254.813 72.9437 253.63 74.2546C253.247 74.7022 253.79 74.9899 254.174 74.6382C255.101 73.743 255.9 72.7519 256.764 71.7608C257.243 71.1853 257.787 70.7057 258.362 70.2261C258.874 69.8105 259.545 69.6187 260.121 69.3309C260.92 70.4499 261.943 71.4091 263.126 72.1445C262.359 72.5601 261.687 73.3594 261.368 74.0628C261.208 74.3825 261.016 74.7022 260.792 75.0219C260.664 75.2138 260.408 75.4376 260.536 75.6614C260.536 75.6614 260.536 75.6613 260.536 75.6933C260.568 75.7573 260.728 75.7572 260.792 75.7572C261.304 75.6613 261.687 75.0219 261.975 74.6063C262.551 73.807 263.254 73.2954 263.957 72.656C267.186 74.4464 271.343 75.1178 275.019 75.1178C281.957 75.1498 289.759 74.3505 297.048 72.2084C297.176 73.1675 297.656 74.0628 298.135 74.926C298.838 76.2368 299.286 77.6436 300.341 78.7306C300.629 79.0184 301.364 78.4429 301.172 78.1232C300.501 76.9402 300.341 75.5654 300.085 74.2226C299.926 73.4873 299.574 72.7839 299.35 72.0166C299.286 71.8567 299.254 71.6649 299.222 71.505C308.526 68.3718 316.679 62.8406 320.611 53.7287C322.721 48.837 323.808 43.5936 324.064 38.3183C324.48 38.0945 324.864 37.8707 325.311 37.7428C325.951 37.519 326.622 37.3911 327.261 37.2312C327.613 37.1353 328.125 36.336 327.485 36.4319C326.302 36.5918 325.119 36.6558 324.096 37.2312C324.128 35.5367 324.096 33.8102 323.968 32.0838C324.927 31.1246 326.334 30.5491 327.549 30.0376C328.412 29.6859 329.244 29.2703 330.107 28.8866C330.555 28.6948 331.002 28.5029 331.45 28.3431C331.098 28.471 334.487 27.3839 332.825 28.2152C332.729 28.2472 332.697 28.439 332.857 28.3751C333.592 28.0553 333.368 28.1832 334.071 27.7676C334.167 27.7036 334.327 27.5118 334.167 27.4159C332.057 26.1051 328.412 28.0553 326.398 28.8546C325.759 29.1104 324.736 29.558 323.776 30.1655C323.585 28.5988 323.361 27.0322 323.041 25.4976C322.977 25.1139 322.881 24.7942 322.785 24.4425C324.704 18.1441 325.887 12.1973 329.883 6.69817C334.167 0.751419 340.242 -2.50972 346.189 -6.44225C346.572 -6.53816 346.732 -7.30547 346.157 -7.0497ZM318.213 52.0981C312.97 68.5316 292.892 70.9295 278.121 72.2404C270.288 72.9437 262.103 70.6098 261.08 62.0094C261.208 62.1053 261.336 62.2012 261.463 62.2971C264.661 66.0059 273.485 66.5174 277.417 66.7092C284.291 67.0929 291.005 63.0644 296.664 59.6435C302.132 56.3823 310.061 52.0342 313.577 46.567C315.911 42.9222 316.807 38.9897 317.766 34.8014C318.501 31.5722 318.341 27.8635 318.821 24.5704C319.204 25.6894 319.524 26.7445 319.78 27.6717C321.922 35.6646 320.707 44.297 318.213 52.0981Z" fill="#0B0D19"/>
<path d="M167.786 6.98589C162.414 8.42462 155.764 9.9273 150.201 9.76744C146.301 9.63955 142.656 9.2559 138.755 9.35181C138.563 5.13153 137.764 1.10309 136.134 -2.47776C137.604 -2.89339 139.075 -3.02127 140.61 -3.2131C142.432 -3.43691 144.286 -4.07634 146.109 -4.49198C146.461 -4.58789 146.972 -5.38719 146.333 -5.29127C144.35 -4.97155 142.336 -4.52396 140.322 -4.30015C138.723 -4.14029 137.093 -4.14028 135.686 -3.30902C135.59 -3.50085 135.494 -3.69269 135.398 -3.88452C135.846 -3.94847 136.326 -4.01239 136.805 -4.10831C137.54 -4.26817 138.244 -4.52396 138.915 -4.93959C139.363 -5.19536 139.299 -5.83479 138.723 -5.51508C137.86 -5.06747 136.805 -4.84368 135.846 -4.84368C135.494 -4.84368 135.206 -4.8117 134.919 -4.71578C134.599 -5.22733 134.247 -5.67493 133.864 -6.09057C134.247 -6.09057 134.631 -6.09056 135.015 -6.18648C136.869 -6.5062 138.627 -7.78508 140.29 -8.5524C142.848 -9.76733 145.693 -11.7496 146.812 -14.4672C146.972 -14.8189 146.429 -14.691 146.301 -14.4991C144.255 -11.6856 137.732 -9.06395 134.343 -9.35169C132.265 -9.54352 130.666 -9.22381 129.324 -7.97691C128.364 -7.84902 127.405 -7.33747 126.542 -6.37832C124.272 -3.82058 122.801 -0.91113 121.778 2.12619C115.512 13.1565 113.274 29.0784 115.416 40.3325C115.959 43.146 117.43 49.2206 121.267 49.3485C122.769 50.3716 125.167 51.107 125.839 51.3628C128.045 52.258 130.187 53.345 132.265 54.496C135.334 56.1585 136.453 58.6523 138.627 61.1142C138.851 61.4019 139.395 60.8904 139.331 60.6026C138.723 58.5564 137.956 56.6701 136.837 54.8477C135.91 53.313 133.064 52.3219 131.562 51.5866C129.388 50.4995 127.182 49.7002 124.88 48.9009C124.752 48.869 124.464 48.773 124.08 48.6771C126.574 47.5261 128.492 45.0004 130.027 42.3787C130.89 42.6664 131.785 42.9222 132.617 43.21C134.567 43.8494 136.038 45.0323 137.796 45.9595C138.116 46.1514 138.755 45.48 138.372 45.2242C136.677 44.1371 135.398 42.9222 133.512 42.0909C132.617 41.7073 131.722 41.3236 130.826 40.94C131.466 39.757 132.009 38.574 132.489 37.5829C132.681 37.1992 132.841 36.8156 133.032 36.4319C134.151 36.6877 135.27 36.9435 136.389 37.1673C139.778 37.8707 143.295 38.9577 146.716 39.3414C147.164 39.3733 147.867 38.5421 147.228 38.3822C145.469 37.9985 143.807 37.0394 142.08 36.4959C140.546 36.0163 138.947 35.7286 137.413 35.3129C136.389 35.0571 135.175 34.5776 133.992 34.2259C135.43 30.7409 136.645 26.8084 137.508 22.748C137.732 22.5881 138.084 22.1725 137.732 22.0446C137.7 22.0446 137.668 22.0126 137.636 22.0126C138.052 19.9025 138.34 17.7604 138.532 15.6183C139.491 15.6502 140.418 15.6503 141.345 15.7462C143.167 15.938 144.926 16.4176 146.748 16.4815C147.1 16.4815 147.707 15.7782 147.164 15.7142C145.405 15.5224 143.743 14.8829 141.985 14.5632C140.897 14.3394 139.746 14.2755 138.595 14.2755C138.627 13.4762 138.659 12.6769 138.691 11.8776C139.331 11.9735 140.066 11.9415 141.057 12.0055C144.127 12.2293 147.292 12.6769 150.393 12.6129C155.796 12.4851 162.638 9.7035 167.562 7.68927C167.946 7.59336 168.297 6.858 167.786 6.98589ZM134.407 -0.91113C131.146 6.47436 126.958 12.9966 125.135 20.9896C123.537 28.0873 124.688 36.7197 126.382 43.7535C124.144 45.9915 121.586 46.7269 119.668 42.4426C118.325 39.4053 118.166 35.8884 118.166 32.5314C118.261 32.5314 118.357 32.4674 118.453 32.3715C119.348 32.4035 120.403 32.2116 120.915 32.0838C121.267 31.9878 121.586 31.7321 121.714 31.3804C121.778 31.1566 121.714 30.9967 121.523 30.9328V30.9008C120.467 30.5811 119.157 30.8688 118.197 30.1974C118.165 30.1655 118.134 30.1655 118.102 30.1655C118.102 29.0145 118.134 27.7676 118.166 26.5207C118.997 26.3608 119.828 26.0411 120.531 25.7214C120.979 25.5295 121.331 24.5704 120.563 24.8262C119.828 25.0819 118.997 25.3057 118.197 25.3057C118.389 21.4052 118.805 17.2488 119.604 13.1884C119.636 13.4122 120.084 13.1565 120.116 12.9966C121.491 8.04098 123.153 3.469 125.199 -1.26283C128.109 -8.00888 132.201 -5.0355 134.599 -1.19888C134.567 -1.10297 134.471 -1.00705 134.407 -0.91113Z" fill="#0B0D19"/>
<g opacity="0.6">
<path d="M948.835 249.031C944.801 254.143 939.019 258.144 936.719 264.426C934.784 269.703 935.789 275.837 937.963 280.872C940.509 286.736 946.041 290.271 948.826 295.95C950.147 298.651 950.303 301.738 951.233 304.566C952.179 307.447 953.548 309.974 955.555 312.251C958.968 316.112 964.142 318.63 969.12 319.677C972.025 320.283 974.939 320.727 977.79 321.573C980.606 322.407 983.216 323.831 986.021 324.7C990.634 326.118 995.674 326.002 1000.3 324.758C1002.41 324.2 1004.01 322.511 1005.5 321.006C1005.79 320.718 1006.08 320.445 1006.4 320.192C1011.41 318.398 1016.82 318.151 1021.94 316.406C1028.02 314.334 1032.46 309.333 1035.67 303.96C1038.94 298.456 1038.78 291.346 1038.05 285.165C1037.66 281.799 1037.58 278.42 1036.99 275.064C1036.44 271.887 1037.33 268.678 1037.54 265.5C1037.94 259.386 1034.4 254.982 1028.86 252.763C1025.99 251.616 1022.94 251.006 1020.02 250.018C1016.06 248.676 1013.26 245.893 1010.58 242.828C1005.94 237.535 1000.76 233.55 994.296 230.715C989.021 228.388 983.048 226.349 977.264 225.959C963.452 225.058 956.069 239.851 948.835 249.031Z" fill="url(#paint3_radial_2_5961)"/>
<path opacity="0.35" d="M949.013 248.814C944.953 253.905 939.148 257.862 936.808 264.141C934.839 269.407 935.806 275.555 937.965 280.592C940.481 286.476 945.986 290.046 948.739 295.729C950.045 298.433 950.179 301.531 951.093 304.361C952.023 307.245 953.378 309.789 955.385 312.066C958.785 315.945 963.939 318.49 968.912 319.562C971.819 320.183 974.736 320.643 977.572 321.507C980.384 322.366 982.987 323.799 985.795 324.683C990.403 326.126 995.438 326.035 1000.09 324.82C1002.2 324.269 1003.8 322.589 1005.31 321.098C1005.59 320.809 1005.89 320.543 1006.2 320.284C1011.22 318.52 1016.64 318.296 1021.76 316.582C1027.85 314.542 1032.33 309.569 1035.55 304.209C1038.86 298.717 1038.74 291.609 1038.04 285.424C1037.66 282.055 1037.61 278.68 1037.04 275.322C1036.5 272.143 1037.41 268.932 1037.64 265.759C1038.08 259.647 1034.56 255.216 1029.04 252.97C1026.18 251.806 1023.13 251.172 1020.22 250.167C1016.28 248.807 1013.48 246.006 1010.82 242.923C1006.21 237.594 1001.05 233.599 994.602 230.721C989.34 228.375 983.376 226.288 977.59 225.882C963.754 224.92 956.285 239.677 949.013 248.814ZM954.485 279.417C956.048 278.783 957.766 279.266 959.34 279.64C961.677 280.196 963.746 280.325 966.06 279.499C968.389 278.67 970.589 277.491 972.842 276.465C974.553 275.69 976.494 274.667 978.427 274.735C979.628 274.784 980.76 275.148 981.948 275.215C983.653 275.322 984.449 274.362 985.625 273.366C986.958 272.235 988.157 272.212 989.715 272.925C994.123 274.949 999.435 275.461 1003.69 272.906C1000.3 272.135 996.57 271.452 994.464 268.467C994.252 268.152 994.55 267.758 994.904 267.885C999.085 269.371 1005.34 267.868 1008.76 265.118C1010.24 263.918 1013.58 259.672 1015.9 261.721C1017.28 262.947 1017.85 264.824 1018.91 266.287C1020.35 268.306 1022.22 270.17 1024.71 270.801C1025.95 271.118 1027.71 270.777 1028.66 271.743C1029.89 272.999 1028.35 275.184 1030 276.348C1031.21 277.19 1032.53 277.68 1032.95 279.24C1033.37 280.784 1033.48 282.355 1033.7 283.928C1034.26 287.944 1035.34 292.121 1035.31 296.189C1035.27 301.491 1032.33 306.603 1028.66 310.271C1027.61 311.322 1026.43 312.312 1025.19 313.149C1022.17 315.188 1018.56 316.13 1014.98 316.579C1013.1 316.817 1011.24 316.491 1009.37 316.414C1006.53 316.296 1005.53 318.173 1004.03 320.217C1003.85 320.459 1003.36 320.383 1003.35 320.04C1003.28 318.261 1004.01 316.702 1004.69 315.117C1002.34 317.263 999.568 319.772 996.266 319.133C995.344 318.956 993.208 318.749 992.674 317.853C991.985 316.699 992.055 315.303 991.834 313.995C991.237 315.641 990.802 317.352 990.14 318.991C990.056 319.195 989.843 319.272 989.648 319.195C987.973 318.675 986.239 319.982 984.618 319.334C983.991 319.084 983.451 318.718 982.943 318.292C982.979 318.784 983.031 319.274 983.133 319.772C983.199 320.076 982.871 320.25 982.613 320.181C981.503 319.863 980.351 319.414 979.188 319.351C979.705 319.784 980.269 320.154 980.822 320.558C981.196 320.827 980.839 321.317 980.456 321.21C974.105 319.561 967.434 319.302 961.824 315.554C959.925 314.288 957.742 312.356 957.944 309.835C958.079 308.094 960.706 306.07 962.049 305.242C962.337 305.066 962.812 305.312 962.631 305.682C962.116 306.699 961.511 307.649 960.881 308.594C961.761 307.838 962.689 307.133 963.728 306.595C963.915 306.497 964.148 306.617 964.221 306.799C964.811 308.16 965.387 309.538 965.941 310.928C966.018 310.62 966.096 310.313 966.164 309.999C966.24 309.676 966.768 309.498 966.888 309.898C967.351 311.445 969.339 314.678 971.382 314.154C973.247 313.678 972.653 310.443 973.033 309.028C973.076 308.878 973.277 308.762 973.434 308.796C975.937 309.282 978.86 311.111 981.376 310.016C979.894 307.826 977.077 306.415 974.816 305.254C973.736 304.691 972.643 304.146 971.552 303.617C971.018 303.354 970.202 303.075 969.951 302.477C969.301 300.917 971.699 299.662 972.794 299.237C974.413 298.603 976.038 298.073 977.516 297.291C977.592 297.208 977.685 297.123 977.743 297.027C974.907 296.163 971.95 297.543 969.054 297.465C968.805 297.46 968.667 297.158 968.742 296.948C968.959 296.324 969.381 295.785 969.747 295.245C970.004 294.849 970.302 294.455 970.499 294.027C970.82 293.341 970.2 293.083 969.635 293.458C968.455 294.255 967.43 295.407 966.11 295.999C965.43 296.302 964.577 296.501 964.146 295.711C963.469 294.467 963.552 293.166 962.51 292.181C962.257 292.961 962.261 293.738 962.307 294.589C962.335 295.074 961.659 295.168 961.56 294.685C960.896 291.58 959.778 288.554 957.911 285.96C956.54 284.052 954.944 282.198 954.227 279.926C954.23 279.717 954.287 279.493 954.485 279.417Z" fill="#171B34"/>
<path d="M1025.6 257.538C1027.32 259.506 1027.75 262.025 1026.68 263.497C1026.87 263.407 1027.02 263.314 1027.18 263.18C1028.71 261.842 1028.4 258.982 1026.49 256.796C1024.58 254.609 1021.79 253.928 1020.26 255.267C1020.1 255.4 1019.97 255.556 1019.88 255.714C1021.44 254.811 1023.88 255.571 1025.6 257.538Z" fill="#171B34"/>
<path d="M1020.92 261.629C1022.81 263.79 1025.39 264.627 1026.68 263.497C1027.97 262.367 1027.49 259.699 1025.6 257.538C1023.71 255.377 1021.13 254.541 1019.84 255.671C1018.55 256.8 1019.03 259.468 1020.92 261.629Z" fill="#0B0D19"/>
<path d="M1034.63 273.152C1034.32 273.688 1033.89 274.07 1033.38 274.283C1034.07 274.103 1034.68 273.65 1035.07 272.997C1035.82 271.688 1035.35 270.011 1034.04 269.265C1033.25 268.8 1032.33 268.8 1031.58 269.141C1032.25 268.98 1032.99 269.029 1033.64 269.423C1034.91 270.166 1035.37 271.844 1034.63 273.152Z" fill="#171B34"/>
<path d="M1031.3 274.02C1031.93 274.392 1032.69 274.463 1033.36 274.302C1033.86 274.089 1034.32 273.688 1034.61 273.172C1035.35 271.863 1034.89 270.186 1033.58 269.439C1032.95 269.068 1032.19 268.996 1031.52 269.157C1031.01 269.37 1030.55 269.772 1030.27 270.288C1029.52 271.597 1029.99 273.274 1031.3 274.02Z" fill="#0B0D19"/>
<path opacity="0.6" d="M1006.99 315.952C1009.17 315.953 1011.26 315.413 1013.47 315.435C1015.29 315.462 1017.06 315.28 1018.85 314.912C1022.94 314.07 1026.33 311.804 1029.09 308.744C1032.06 305.471 1033.65 301.323 1034.01 296.97C1034.21 294.562 1033.88 292.228 1033.62 289.852C1033.43 287.972 1033.45 286.046 1032.81 284.252C1032.76 284.122 1032.4 284.156 1032.42 284.313C1033.18 292.23 1033.9 300.206 1029.13 307.08C1026.56 310.779 1022.84 313.163 1018.51 314.294C1016.64 314.778 1014.65 314.838 1012.73 314.921C1010.76 315.019 1008.92 315.683 1006.98 315.792C1006.82 315.798 1006.85 315.947 1006.99 315.952Z" fill="#0B0D19"/>
<path opacity="0.7" d="M939.546 269.137C938.856 269.994 938.878 271.77 938.769 272.659C938.458 275.322 938.773 278.107 939.956 280.507C940.424 281.452 941.52 283.11 942.745 283.445C943.454 283.995 944.524 284.312 945.272 284.736C946.497 285.423 947.499 286.518 948.548 287.438C948.593 287.472 948.777 287.471 948.742 287.387C948.235 285.47 945.959 284.256 944.011 283.501C944.406 283.35 944.677 282.992 944.863 282.542C945.78 282.911 946.843 283.068 947.679 283.544C947.739 283.576 947.955 283.514 947.856 283.44C947.03 282.801 945.997 282.456 945.024 282.03C945.25 281.174 945.253 280.163 945.278 279.591C945.307 278.994 945.278 278.381 945.209 277.766C945.312 277.759 945.415 277.753 945.518 277.747C945.566 277.74 945.615 277.749 945.664 277.758C945.673 277.765 945.794 277.772 945.729 277.765C945.779 277.775 945.842 277.766 945.86 277.723C945.921 277.586 945.555 277.549 945.194 277.543C945.187 277.44 945.165 277.339 945.159 277.236C945.377 277.245 945.592 277.24 945.808 277.29C945.94 277.319 946.165 277.152 945.959 277.108C945.694 277.049 945.409 277.017 945.135 277.007C945.091 276.748 945.056 276.497 945.006 276.247C945.495 276.308 946.002 276.325 946.48 276.363C946.949 276.394 947.4 276.355 947.861 276.323C948.274 276.298 948.854 276.089 949.273 276.167C949.314 276.169 949.444 276.127 949.373 276.073C949.245 275.962 949.202 276 949.02 276.018C948.403 276.072 947.788 276.085 947.166 276.107C946.4 276.134 945.655 275.965 944.91 275.852C944.789 275.324 944.661 274.805 944.501 274.29C944.586 274.27 944.681 274.257 944.759 274.246C945.658 274.081 946.537 273.775 947.402 273.486C947.555 273.433 947.45 273.311 947.327 273.344C946.547 273.557 945.774 273.761 944.983 273.895C944.788 273.93 944.59 273.949 944.392 273.969C944.199 273.386 943.984 272.815 943.748 272.271C944.364 272.033 944.947 271.616 945.513 271.369C945.687 271.289 945.465 271.191 945.366 271.229C944.948 271.391 944.547 271.567 944.149 271.759C943.976 271.839 943.792 271.897 943.616 271.961C943.469 271.653 943.338 271.343 943.184 271.043C942.975 270.632 942.669 270.105 942.303 269.659C943.469 269.457 944.651 268.508 945.469 267.705C945.588 267.584 945.27 267.54 945.189 267.592C944.635 267.989 944.032 268.321 943.416 268.615C942.957 268.831 942.386 268.991 941.999 269.317C941.786 269.114 941.569 268.936 941.327 268.809C942.608 267.934 943.704 266.484 944.472 265.319C944.578 265.16 944.246 265.134 944.163 265.226C942.812 266.752 941.19 267.763 939.645 269.043C939.582 269.052 939.557 269.104 939.546 269.137ZM941.149 269.772C941.092 269.828 941.011 269.879 940.968 269.917C940.91 269.957 940.887 270.025 940.912 270.085C940.923 270.108 940.932 270.114 940.943 270.137C940.167 271.014 940.91 276.36 941.023 276.825C941.209 277.584 942.577 282.01 943.706 282.117C943.37 282.581 942.889 282.752 942.173 281.986C941.1 280.837 940.481 279.44 940.078 277.926C939.439 275.515 939.626 272.772 940.116 270.356C940.304 269.4 940.712 269.4 941.149 269.772Z" fill="#0B0D19"/>
<path opacity="0.7" d="M979.055 232.674C980.615 233.122 982.195 233.471 983.792 233.778C985.405 234.083 987.186 234.444 988.93 234.482C990.148 234.77 991.567 234.773 992.57 234.321C994.243 233.56 992.039 232.063 991.246 231.604C988.722 230.104 985.616 229.374 982.748 228.923C980.594 228.589 977.226 228.224 975.169 229.103C971.829 230.561 978.095 232.398 979.055 232.674Z" fill="#0C0E16"/>
<g opacity="0.7">
<path opacity="0.7" d="M1023.49 305.411C1023.61 305.499 1023.74 305.585 1023.86 305.673C1024 305.797 1024.01 305.901 1024.08 306.051C1024.13 306.148 1024.31 306.124 1024.38 306.082C1024.8 305.791 1023.97 305.377 1023.78 305.244C1023.68 305.17 1023.34 305.296 1023.49 305.411Z" fill="#0B0D19"/>
</g>
<path opacity="0.7" d="M967.291 245.816C967.652 246.046 968.157 246.048 968.568 246.007C969.001 245.955 969.464 245.826 969.755 245.498C969.832 245.415 969.866 245.258 969.797 245.163C969.56 244.844 969.228 244.705 968.824 244.681C968.492 244.655 967.796 244.72 967.615 245.09C967.48 245.157 967.354 245.23 967.246 245.317C967.043 245.474 967.079 245.669 967.291 245.816Z" fill="#0B0D19"/>
<path opacity="0.7" d="M951.942 251.267C951.846 252.306 952.852 252.912 953.793 252.821C954.615 252.739 955.276 252.422 955.936 252.034C956.965 251.659 957.942 251.018 958.381 250.548C958.724 250.188 959.054 249.678 959.251 249.137C959.296 249.059 959.341 248.981 959.378 248.895C959.839 247.95 959.334 246.682 958.212 246.621C957.524 246.284 956.734 246.25 955.943 246.44C953.872 246.928 952.13 249.214 951.942 251.267Z" fill="#0C0E16"/>
<path opacity="0.7" d="M950.179 257.434C950.172 257.611 950.315 257.72 950.461 257.788C950.709 257.905 951.082 257.878 951.247 257.622C951.328 257.571 951.391 257.506 951.47 257.439C951.576 257.336 951.491 257.188 951.379 257.131C951.222 257.041 951.033 257.067 950.874 257.129C950.851 257.14 950.829 257.151 950.813 257.154C950.773 257.151 950.739 257.14 950.699 257.137C950.503 257.117 950.184 257.185 950.179 257.434Z" fill="#0B0D19"/>
<path opacity="0.7" d="M952.726 286.882C952.777 287.54 953.377 288.105 954.055 288.027C954.111 288.083 954.284 288.059 954.313 287.983C954.32 287.974 954.32 287.974 954.318 287.958C954.561 287.861 954.726 287.661 954.612 287.365C954.574 287.266 954.521 287.169 954.461 287.081C954.421 286.742 954.274 286.434 953.995 286.208C953.457 285.802 952.681 286.215 952.726 286.882Z" fill="#0B0D19"/>
<path opacity="0.6" d="M959.142 311.824C963.497 317.101 970.823 318.783 977.332 319.777C977.471 319.798 977.633 319.639 977.447 319.569C974.42 318.547 971.266 317.936 968.219 316.885C964.836 315.721 961.984 314.114 959.36 311.722C959.286 311.652 959.053 311.701 959.142 311.824Z" fill="#0B0D19"/>
<path opacity="0.7" d="M980.851 320.482C981.237 320.605 982.132 321.45 982.929 321.828C982.799 322.447 984.198 322.886 984.658 323.022C987.226 323.795 989.748 324.534 992.43 324.746C993.727 324.855 994.864 324.785 995.98 324.574C997.68 324.465 999.663 324.15 1000.53 323.075L1000.54 323.066C1000.76 322.852 1000.92 322.565 1001.07 322.312C1001.28 321.938 1001.68 321.681 1001.87 321.271C1001.95 321.092 1001.57 321.113 1001.48 321.204C1001.2 321.515 1000.8 321.772 1000.46 322.011C1000.37 322.08 1000.29 322.172 1000.21 322.27C999.824 322.02 999.241 321.804 998.746 321.641C998.809 321.52 998.872 321.399 998.934 321.262C999.117 320.852 999.361 320.474 999.596 320.088C999.804 319.739 1000.06 319.102 1000.4 318.839C1000.6 318.682 1000.24 318.564 1000.12 318.638C999.533 318.943 999.099 319.628 998.653 320.107C998.367 320.411 998.136 320.716 997.922 321.074C997.856 321.18 997.789 321.269 997.705 321.361C996.068 320.939 994.3 320.784 992.553 320.731C992.553 320.675 992.56 320.609 992.561 320.553C992.598 320.131 992.645 319.716 992.714 319.29C992.746 319.117 992.409 319.116 992.357 319.26C992.234 319.645 992.118 320.022 992.045 320.417C992.026 320.515 992.008 320.614 991.981 320.706C991.869 320.706 991.772 320.703 991.667 320.694C991.713 320.335 991.732 319.955 991.794 319.65C991.952 318.827 992.164 317.988 992.183 317.144C992.177 316.985 991.853 317.022 991.806 317.14C991.511 317.959 991.095 318.714 990.851 319.557C990.765 319.857 990.631 320.277 990.56 320.687C990.151 320.688 989.727 320.691 989.327 320.698C988.966 320.692 988.609 320.718 988.243 320.737C987.23 320.717 986.227 320.761 985.239 320.858C985.16 320.869 985.081 320.88 985.014 320.913C984.864 320.758 984.676 320.616 984.544 320.474C984.213 320.111 983.932 319.701 983.621 319.312C983.534 319.204 983.168 319.279 983.255 319.443C983.523 319.927 983.785 320.716 984.232 321.166C984.185 321.173 984.137 321.179 984.106 321.184C984.052 321.143 983.983 321.105 983.922 321.073C983.618 320.899 983.412 320.575 983.171 320.336C983.124 320.286 982.913 320.324 982.971 320.396C983.152 320.659 983.314 320.965 983.524 321.208C982.693 320.875 981.88 320.331 980.98 320.256C980.834 320.244 980.625 320.41 980.851 320.482ZM984.281 321.752C984.335 321.793 984.47 321.782 984.477 321.717C984.408 322.143 992.349 323.179 992.912 323.197C994.773 323.267 996.891 323.461 998.778 323.143C998.672 323.302 998.528 323.474 998.354 323.667C998.332 323.678 998.316 323.68 998.285 323.684C994.901 324.419 991.666 324.38 988.284 323.456C987.118 323.137 985.954 322.778 984.793 322.434C983.849 322.157 983.856 321.924 984.281 321.752Z" fill="#0B0D19"/>
<path d="M955.133 265.344C959.244 266.439 964.868 266.202 967.938 262.866C967.904 263.136 967.914 263.383 967.94 263.627C967.171 264.552 966.415 265.458 965.42 266.197C965.297 266.287 965.521 266.344 965.602 266.292C966.493 265.728 967.324 265.019 968.063 264.227C968.361 265.156 969.072 265.89 970.019 266.536C970.648 267.081 971.333 267.515 972.07 267.861C971.771 268.536 971.446 269.19 970.952 269.844C970.248 270.775 968.699 272.433 967.466 272.668C967.279 272.71 967.373 272.865 967.517 272.862C968.967 272.804 970.369 271.415 971.342 270.463C971.73 270.08 972.564 269.163 973.039 268.256C974.27 268.694 975.593 268.934 976.978 269.094C978.809 269.297 980.647 269.378 982.47 269.292C982.494 269.409 982.519 269.526 982.527 269.645C982.573 270.031 982.619 270.418 982.649 270.806C982.679 271.195 982.731 271.572 982.84 271.95C982.933 272.273 983.098 272.595 983.152 272.932C983.172 273.073 983.498 273.052 983.494 272.908C983.486 272.621 983.395 272.369 983.349 272.095C983.278 271.648 983.244 271.228 983.237 270.773C983.234 270.348 983.206 269.919 983.195 269.488C983.19 269.401 983.188 269.329 983.186 269.257C983.384 269.238 983.573 269.211 983.755 269.194C983.788 269.318 983.812 269.434 983.821 269.553C983.867 269.884 983.881 270.218 983.99 270.54C984.028 270.639 984.304 270.608 984.28 270.491C984.216 270.148 984.246 269.791 984.245 269.438C984.248 269.342 984.242 269.239 984.235 269.135C984.992 269.046 985.747 268.941 986.495 268.789C987.078 269.694 988.267 270.466 988.976 270.96C990.855 272.254 992.638 272.855 994.847 273.245C994.946 273.264 995.065 273.143 994.924 273.107C992.675 272.49 990.902 271.67 989.071 270.202C988.476 269.724 987.951 269.172 987.497 268.562C987.551 268.546 987.598 268.54 987.652 268.524C989.74 267.977 991.946 266.958 993.561 265.435C994.65 265.949 996.095 266.197 997.065 266.142C998.06 266.092 999.008 265.936 999.972 265.666C1000.73 265.449 1001.59 264.648 1002.33 264.561C1002.41 264.55 1002.49 264.458 1002.37 264.427C1001.52 264.208 1000.06 265.116 999.271 265.29C997.426 265.683 995.822 265.385 994.158 264.831C994.359 264.603 994.551 264.368 994.725 264.119C995.079 263.613 995.274 263.113 995.366 262.62C995.715 262.715 996.174 262.668 996.441 262.631C997.059 262.521 997.65 262.278 998.259 262.162C998.461 262.117 998.37 261.922 998.188 261.939C997.739 261.994 997.305 262.102 996.853 262.197C996.597 262.256 996.343 262.276 996.081 262.288C995.85 262.296 995.621 262.208 995.399 262.166C995.412 261.684 995.328 261.199 995.153 260.742C995.456 260.788 995.813 260.707 996.051 260.577C996.164 260.522 996.285 260.473 996.416 260.431C996.492 260.404 996.611 260.395 996.623 260.306C996.623 260.306 996.623 260.306 996.629 260.297C996.634 260.272 996.589 260.238 996.571 260.225C996.408 260.143 996.165 260.241 995.996 260.296C995.666 260.398 995.361 260.393 995.028 260.423C994.503 259.238 993.481 258.17 992.451 257.392C990.515 255.914 988.161 254.486 985.666 253.543C985.833 253.247 985.888 252.895 985.937 252.552C986.017 252.036 986.19 251.547 986.124 251.019C986.105 250.878 985.777 250.883 985.763 251.013C985.701 251.487 985.454 251.905 985.242 252.336C985.131 252.576 985.08 252.847 984.981 253.109C984.965 253.168 984.933 253.228 984.908 253.28C981.639 252.187 978.185 252.01 975.154 253.73C973.528 254.653 972.113 255.891 970.925 257.315C970.761 257.289 970.606 257.271 970.454 257.212C970.227 257.139 970.012 257.033 969.799 256.942C969.681 256.895 969.368 257.01 969.567 257.119C969.933 257.324 970.277 257.557 970.686 257.612C970.318 258.08 969.962 258.571 969.632 259.081C969.16 259.147 968.644 259.01 968.196 258.896C967.88 258.812 967.559 258.752 967.236 258.677C967.07 258.636 966.904 258.595 966.745 258.545C966.87 258.584 965.691 258.171 966.333 258.29C966.366 258.301 966.416 258.254 966.357 258.238C966.084 258.172 966.174 258.184 965.889 258.151C965.848 258.149 965.763 258.169 965.787 258.229C966.101 259.043 967.534 259.269 968.268 259.471C968.501 259.535 968.882 259.626 969.279 259.659C969.002 260.138 968.733 260.624 968.497 261.122C968.434 261.243 968.393 261.353 968.345 261.472C966.475 262.829 964.885 264.245 962.601 264.939C960.142 265.697 957.751 265.324 955.253 265.167C955.125 265.112 954.918 265.293 955.133 265.344ZM975.481 254.694C980.428 251.202 986.559 254.781 990.974 257.541C993.316 259.002 995.114 261.389 993.58 264.014C993.565 263.96 993.549 263.906 993.534 263.852C993.423 262.137 991.06 260.125 990 259.239C988.156 257.676 985.422 257.383 983.113 257.143C980.892 256.899 977.751 256.438 975.608 257.225C974.183 257.751 973.1 258.663 971.944 259.633C971.055 260.382 970.314 261.454 969.483 262.275C969.612 261.881 969.746 261.517 969.871 261.204C970.963 258.511 973.131 256.351 975.481 254.694Z" fill="#0B0D19"/>
<path d="M957.379 291.876C958.669 293.892 959.851 295.94 961.211 297.882C960.85 298.173 960.799 298.725 960.882 299.322C960.738 299.27 960.62 299.223 960.501 299.175C958.896 298.468 957.36 297.56 955.687 296.999C955.577 296.959 955.325 297.106 955.495 297.178C956.89 297.754 958.191 298.583 959.517 299.304C960.019 299.57 960.525 299.813 961.034 300.07C961.209 300.695 961.46 301.293 961.587 301.628C961.322 301.625 961.053 301.646 960.891 301.637C960.189 301.598 959.491 301.479 958.79 301.568C958.633 301.59 958.639 301.75 958.805 301.735C959.798 301.669 960.791 302.011 961.783 302.058C961.859 302.2 961.95 302.339 962.042 302.479C961.988 302.494 961.95 302.507 961.896 302.523C961.57 302.6 961.242 302.662 960.927 302.762C960.712 302.824 960.864 302.995 961.034 302.955C961.414 302.862 961.814 302.799 962.203 302.713C962.33 302.879 962.457 303.046 962.591 303.204C962.859 303.687 963.207 304.176 963.61 304.649C963.219 305.128 962.91 305.724 962.618 306.165C961.934 307.181 961.015 308.118 960.566 309.271C960.518 309.389 960.774 309.386 960.817 309.292C961.322 308.308 962.196 307.506 962.922 306.675C963.337 306.201 963.704 305.677 964.101 305.189C964.392 305.493 964.696 305.78 965.005 306.041C964.786 306.48 964.777 307.051 964.649 307.517C964.606 307.667 964.927 307.671 964.982 307.543C965.068 307.299 965.138 307.056 965.207 306.799C965.25 306.648 965.309 306.496 965.359 306.337C966.037 306.891 966.74 307.339 967.332 307.617C967.389 307.801 967.449 308.001 967.507 308.186C967.742 308.898 968.302 309.814 968.138 310.59C968.103 310.747 968.424 310.751 968.47 310.616C968.704 309.934 968.402 308.975 968.236 308.301C968.203 308.177 968.185 308.051 968.166 307.91C968.43 307.969 968.65 307.995 968.834 307.993C969.069 308.297 969.364 308.577 969.619 308.854C970.187 309.48 970.791 310.021 971.316 310.685C971.365 310.75 971.585 310.72 971.525 310.632C971.161 310.09 970.763 309.592 970.328 309.108C969.986 308.723 969.695 308.25 969.336 307.851C969.884 307.535 969.811 306.663 969.536 305.78C969.628 305.807 969.729 305.841 969.828 305.86C970.2 305.944 970.599 306.105 970.981 306.028C971.129 305.999 971.103 305.867 970.971 305.837C970.414 305.754 969.901 305.521 969.381 305.297C969.332 305.175 969.283 305.054 969.234 304.933C969.941 305.115 970.652 305.272 971.329 305.475C972.757 305.893 974.53 306.136 975.868 306.767C975.962 306.81 976.221 306.71 976.064 306.62C975.087 306.05 973.84 305.839 972.777 305.458C971.506 305.017 970.219 304.579 968.92 304.231C968.842 304.073 968.767 303.932 968.693 303.806C968.247 303.018 967.722 302.298 967.139 301.618C967.386 301.439 967.632 301.245 967.877 301.05C968.562 300.498 969.249 299.962 969.875 299.338C970.024 299.197 969.636 299.115 969.528 299.202C968.663 299.956 967.666 300.511 966.721 301.147C966.164 300.543 965.542 299.989 964.895 299.486C964.925 299.241 964.913 298.978 964.936 298.743C964.943 298.622 964.656 298.629 964.631 298.737C964.597 298.894 964.553 299.044 964.519 299.201C964.465 299.161 964.421 299.127 964.367 299.086C964.295 299.032 964.215 298.971 964.125 298.904C964.097 298.755 964.068 298.607 964.044 298.49C963.971 298.027 963.881 297.551 963.786 297.1C963.755 296.936 963.365 296.95 963.373 297.125C963.398 297.538 963.417 297.96 963.427 298.376C963.053 298.107 962.632 297.845 962.221 297.718C961.647 297.044 961.059 296.389 960.53 295.693C959.531 294.39 958.663 292.988 957.638 291.72C957.602 291.693 957.305 291.75 957.379 291.876Z" fill="#0B0D19"/>
<path d="M1008.06 299.175C1009.87 299.909 1012.05 300.896 1013.57 302.119C1014.64 302.98 1015.58 303.859 1016.69 304.658C1015.85 305.881 1015.22 307.178 1014.92 308.526C1014.42 308.331 1013.98 308.056 1013.51 307.785C1012.95 307.462 1012.3 307.248 1011.7 306.979C1011.58 306.931 1011.27 307.047 1011.47 307.155C1012.09 307.485 1012.75 307.786 1013.36 308.15C1013.84 308.444 1014.3 308.789 1014.87 308.854C1014.86 308.928 1014.84 309.002 1014.83 309.076C1014.69 308.999 1014.54 308.916 1014.39 308.841C1014.15 308.73 1013.9 308.653 1013.62 308.627C1013.44 308.604 1013.32 308.796 1013.55 308.829C1013.89 308.886 1014.23 309.047 1014.5 309.25C1014.6 309.324 1014.69 309.376 1014.79 309.41C1014.77 309.621 1014.77 309.821 1014.79 310.019C1014.68 309.938 1014.58 309.856 1014.45 309.802C1013.86 309.499 1013.1 309.485 1012.47 309.348C1011.5 309.147 1010.28 309.099 1009.39 309.623C1009.27 309.688 1009.45 309.767 1009.53 309.741C1010.7 309.386 1013.08 310.033 1013.97 310.831C1014.51 311.324 1015.02 311.573 1015.66 311.508C1015.96 311.675 1016.34 311.735 1016.78 311.649C1017.96 311.414 1018.99 310.91 1019.92 310.276C1024.01 308.514 1028 304.528 1029.79 300.923C1030.23 300.02 1031.1 298.007 1030.06 297.159C1029.85 296.554 1029.34 295.841 1029.2 295.627C1028.77 294.909 1028.4 294.151 1028.07 293.389C1027.56 292.274 1027.77 291.338 1027.69 290.189C1027.68 290.061 1027.42 290.089 1027.38 290.183C1027.12 290.885 1026.93 291.575 1026.86 292.323C1026.79 292.949 1027.38 293.829 1027.65 294.353C1028.03 295.118 1028.47 295.808 1028.95 296.52C1028.98 296.556 1029.04 296.643 1029.13 296.751C1028.18 296.546 1027.11 296.847 1026.13 297.256C1025.95 296.993 1025.75 296.732 1025.58 296.475C1025.17 295.883 1025.01 295.241 1024.71 294.609C1024.66 294.487 1024.34 294.54 1024.39 294.693C1024.64 295.356 1024.74 295.967 1025.09 296.599C1025.26 296.896 1025.43 297.193 1025.6 297.49C1025.17 297.686 1024.77 297.902 1024.42 298.078C1024.29 298.145 1024.16 298.219 1024.03 298.286C1023.77 297.977 1023.51 297.669 1023.24 297.369C1022.44 296.455 1021.69 295.406 1020.81 294.574C1020.69 294.47 1020.32 294.554 1020.46 294.734C1020.88 295.214 1021.14 295.835 1021.51 296.352C1021.83 296.811 1022.22 297.231 1022.56 297.672C1022.8 297.96 1023.03 298.352 1023.29 298.7C1022.15 299.372 1020.98 300.216 1019.88 301.17C1019.78 301.168 1019.59 301.21 1019.66 301.32C1019.67 301.327 1019.68 301.343 1019.68 301.349C1019.12 301.852 1018.59 302.391 1018.08 302.951C1017.82 302.739 1017.56 302.542 1017.32 302.319C1016.85 301.88 1016.46 301.373 1015.96 300.969C1015.86 300.895 1015.54 300.963 1015.68 301.096C1016.13 301.522 1016.46 302.053 1016.89 302.515C1017.15 302.808 1017.46 303.07 1017.78 303.313C1017.6 303.53 1017.42 303.747 1017.24 303.964C1017.08 303.802 1016.87 303.656 1016.61 303.428C1015.8 302.715 1015 301.92 1014.12 301.281C1012.58 300.173 1010.08 299.504 1008.27 299.025C1008.14 298.971 1007.89 299.103 1008.06 299.175ZM1015.74 308.453C1018.21 307.075 1020.77 306.135 1022.97 304.282C1024.92 302.633 1026.42 299.972 1027.44 297.643C1028.54 297.49 1029.41 297.826 1029.04 299.432C1028.78 300.567 1028.08 301.585 1027.36 302.526C1027.34 302.505 1027.3 302.503 1027.25 302.509C1027.01 302.311 1026.67 302.141 1026.5 302.069C1026.38 302.021 1026.24 302.025 1026.13 302.097C1026.06 302.146 1026.05 302.204 1026.09 302.263L1026.08 302.271C1026.31 302.584 1026.74 302.781 1026.86 303.172C1026.86 303.188 1026.87 303.195 1026.88 303.202C1026.64 303.524 1026.36 303.866 1026.09 304.209C1025.83 304.078 1025.52 303.991 1025.26 303.932C1025.09 303.891 1024.79 304.085 1025.06 304.176C1025.32 304.26 1025.6 304.373 1025.83 304.542C1024.95 305.594 1023.95 306.67 1022.87 307.638C1022.91 307.569 1022.73 307.546 1022.68 307.584C1021.25 308.68 1019.82 309.609 1018.24 310.501C1016 311.774 1015.48 310.075 1015.62 308.493C1015.65 308.473 1015.7 308.466 1015.74 308.453Z" fill="#0B0D19"/>
</g>
<path fill-rule="evenodd" clip-rule="evenodd" d="M1526.54 565.375L1522.27 615.086L1522.96 622.992C1514.79 664.856 1499.05 704.084 1499.05 704.084C1491.05 711.756 1457.91 726.751 1457.91 726.751L1438.12 766.607C1426.48 777.889 1400.59 782.225 1400.59 782.225L1400.35 789.504C1384.05 787.392 1359.44 777.523 1359.44 777.523L1353.06 755.993C1345.3 751.833 1317.03 732.198 1317.03 732.198L1310.84 706.819C1310.84 706.819 1289.97 687.667 1288.66 678.904C1288.5 677.902 1288.13 675.555 1287.57 672.175C1283.33 646.336 1268.89 560.569 1268.89 560.569C1268.89 560.569 1265.62 552.861 1266.04 545.993C1266.46 539.124 1268.64 517.879 1268.64 517.879C1268.64 517.879 1367.35 492.355 1384.23 491.038C1401.11 489.72 1469.82 490.663 1469.82 490.663L1471.49 441.204L1495.41 414.083C1500.3 419.675 1503.53 427.003 1505.71 433.741C1505.86 434.223 1506.02 434.706 1506.14 435.185L1506.16 435.234C1507.3 439.123 1508.22 443.075 1508.9 447.071V447.093L1508.96 447.454C1509.41 450.279 1509.58 452.048 1509.58 452.048L1508.22 427.518L1517.63 412.563C1520.93 394.119 1520.39 357.802 1520.39 357.802L1527.46 352.346L1529.36 319.968L1540.9 317.589L1547.82 359.738L1553.49 370.383C1553.49 370.383 1552.09 418.993 1550.6 439.404C1549.11 459.815 1554.24 520.695 1554.24 520.695C1544.03 548.786 1526.54 565.375 1526.54 565.375Z" fill="url(#paint4_linear_2_5961)"/>
<path fill-rule="evenodd" clip-rule="evenodd" d="M1526.54 565.375L1522.28 615.086L1522.97 622.992C1514.79 664.856 1499.05 704.085 1499.05 704.085C1491.05 711.756 1457.91 726.752 1457.91 726.752L1438.12 766.608C1426.48 777.889 1400.59 782.226 1400.59 782.226L1400.35 789.505C1384.05 787.393 1359.45 777.524 1359.45 777.524L1353.06 755.994C1345.3 751.833 1317.03 732.199 1317.03 732.199L1310.84 706.819C1310.84 706.819 1289.97 687.668 1288.66 678.904C1288.5 677.902 1288.13 675.556 1287.57 672.176L1301.78 680.533L1308.17 669.549L1306.44 640.389L1315.28 687.984L1316.44 719.459L1323.15 727.803L1345.52 741.17L1364.79 758.219L1380.19 748.656L1382.96 664.983L1378.49 653.376L1385.19 660.366L1391.89 719.107L1395.7 751.865L1421.21 752.709L1437.95 729.807L1456.18 710.714L1479.31 686.422L1492.77 658.981L1506.24 626.675L1521.03 621.711L1511.62 616.828L1482.65 618.435L1458.61 625.118C1458.61 625.118 1426.31 632.428 1414.38 635.226C1402.46 638.024 1382.26 637.992 1382.26 637.992L1339.31 628.304L1336.65 615.592L1329.15 595.479L1327.99 548.475L1327.14 520.154L1350.3 503.457L1400.99 499.517L1404.08 513.434L1403.35 599.518L1416.39 630.984L1437.2 624.36L1460.39 598.186L1464.91 547.933L1466.33 504.969C1473.52 496.489 1477.9 497.369 1477.9 497.369L1477.55 507.699L1481.24 580.533L1487.1 560.677L1485.93 520.194L1495.54 518.895L1512.5 514.621L1521.97 506.814L1509.97 499.594L1497.66 511.543L1492.92 496.259L1491.26 476.079L1487.24 447.911L1499.64 442.419L1505.72 433.781L1505.8 433.664L1506.14 435.226L1506.17 435.275L1508.9 447.071V447.094L1508.94 447.265V447.455L1511.5 494.386L1523.9 502.757L1524.16 526.512L1538.53 517.058L1540.44 508.186C1540.44 508.186 1535.62 489.783 1536.94 474.558C1538.25 459.332 1544.3 435.749 1544.3 435.749L1545.06 412.771L1544.73 379.057L1550.98 379.264L1546.3 375.419L1546.57 367.373C1546.57 367.373 1543.04 364.566 1541.45 360.798C1539.86 357.03 1539.62 344.806 1539.62 344.806L1541.58 334.629L1540.91 317.576L1547.82 359.724L1553.49 370.37C1553.49 370.37 1552.09 418.98 1550.61 439.391C1549.12 459.801 1554.25 520.682 1554.25 520.682C1544.04 548.786 1526.54 565.375 1526.54 565.375Z" fill="#0E1020"/>
<path fill-rule="evenodd" clip-rule="evenodd" d="M1012.1 779.14C1012.1 779.14 1017.04 789.329 1021.04 795.209C1023.31 798.589 1025.83 801.799 1028.56 804.813L1024.79 810.505L887.285 816.77L756 828.22C756 828.22 763.631 839.091 766.772 842.225C769.913 845.359 774.209 848.105 774.209 848.105C774.209 848.105 776.965 861.429 777.956 866.917C778.948 872.405 776.437 877.498 776.437 877.498L782.228 896.307L968.995 935.484H1088.55L1331.11 958.606L1583.69 971.302V840.014L1354.61 806.969L1012.1 779.14Z" fill="#14172D"/>
<path fill-rule="evenodd" clip-rule="evenodd" d="M1063.99 811.357C1063.99 811.357 1052.56 805.886 1045.21 805.003C1037.87 804.121 850.639 810.948 839.465 811.357L814.521 809.412C814.521 809.412 809.492 803.961 804.491 804.925C801.323 805.567 798.255 806.63 795.368 808.086C795.368 808.086 793.542 813.823 791.961 815.295C790.381 816.767 783.622 817.939 783.622 817.939L778.454 822.054L770.397 816.756L761.58 822.054L756 828.22C756 828.22 769.525 829.978 773.637 831.153C777.749 832.329 841.533 828.51 860.341 831.153C879.15 833.797 900.315 833.8 901.784 835.272C903.252 836.744 922.721 840.723 929.886 839.902C937.05 839.081 1009.42 828.22 1009.42 828.22L1051.09 819.57L1063.99 811.357Z" fill="url(#paint5_radial_2_5961)"/>
<path fill-rule="evenodd" clip-rule="evenodd" d="M1584.09 764H1253.21C1253.21 764 1244.88 767.577 1239 768.068C1233.12 768.558 1164.02 769.43 1154.29 769.584C1144.56 769.737 1118.25 768.262 1101.62 769.584C1084.98 770.905 1063.78 771.716 1057.14 772.881C1050.5 774.046 1031.62 776.005 1024.8 777.181C1017.98 778.356 1010.53 777.181 1012.1 779.139C1013.66 781.098 1029.34 781.49 1034.83 784.25C1040.31 787.009 1065.06 788.947 1070.91 790.518C1076.76 792.088 1108.53 796.398 1115.77 798.749C1123.01 801.099 1128.88 803.058 1128.88 803.058C1128.88 803.058 1066.42 810.113 1058.66 812.464C1050.89 814.815 1043.84 816.77 1043.84 816.77C1043.84 816.77 949.815 827.747 940.617 831.276C931.419 834.805 925.58 836.386 926.714 838.72C927.849 841.053 961.626 843.424 969.431 844.204C977.236 844.985 1011.72 835.977 1017.6 839.094C1023.48 842.211 1029.81 844.204 1033.11 846.93C1036.41 849.655 1046.64 847.322 1055.63 849.655C1064.63 851.989 1209.23 853.968 1217.07 855.532C1224.91 857.095 1231.96 864.546 1240.58 866.508C1249.19 868.47 1583.7 868.859 1583.7 868.859L1584.09 764Z" fill="url(#paint6_radial_2_5961)"/>
<path fill-rule="evenodd" clip-rule="evenodd" d="M1540.06 869.343L1547.38 966.073L1462.19 968.097L1348.94 958.82L1335.11 912.025L1324.38 869.332L1323.09 915.48L1324.38 946.14L1305.22 966.07L1257.9 955.993L1240.56 866.529L1217.06 855.552L1208.56 905.331L1198.77 909.641L1202.29 934.51L1147.43 936.033L1067.07 938.758L1055.62 849.682L1048.6 848.64L1056.84 898.433L1036.4 848.139L1035.04 915.79L1026.97 879.467L1010.18 879.1L1011.54 838.478L969.387 844.194L972.368 873.1L940.361 877.509L922.306 873.1L899.481 834.655L861.748 832.792L872.919 855.958L875.644 868.903L882.457 901.826L851.456 895.247L831.697 849.151L829.994 838.59L823.862 830.36L773.548 831.177L756 828.22C756 828.22 764.394 840.076 766.772 842.225C769.15 844.375 774.209 848.105 774.209 848.105L790.749 849.342L802.147 856.629L810.664 868.893L793.188 873.107L786.487 877.904L777.077 879.086L781.462 892.491L809.642 905.406L1023.16 952.419L1275.44 973.765L1547.38 975.809L1583.69 971.302V868.883L1540.06 869.343Z" fill="#0E1020"/>
<path fill-rule="evenodd" clip-rule="evenodd" d="M907.071 877.505L916.559 932.503C916.559 932.503 946.296 943.844 958.097 946.13C969.898 948.416 983.531 940.679 983.531 940.679L1005.31 938.744L1020.3 928.596L1026.99 879.464L989.823 879.076L907.071 877.505Z" fill="#0E1020"/>
<path fill-rule="evenodd" clip-rule="evenodd" d="M907.071 877.505C907.071 877.505 943.107 863.79 948.013 864.181C952.918 864.573 969.38 864.181 969.38 864.181C969.38 864.181 982.707 870.061 990.937 870.848C999.168 871.635 1026.99 879.474 1026.99 879.474C1026.99 879.474 1007.86 882.608 1001.75 882.608L1004.26 886.526C1004.26 886.526 990.937 888.88 970.558 886.526C970.558 886.516 953.709 882.993 907.071 877.505Z" fill="url(#paint7_radial_2_5961)"/>
<path fill-rule="evenodd" clip-rule="evenodd" d="M1123 801.099L1206.23 800.432L1255.33 801.099L1313.7 806.55L1430.02 815.101H1285.39L1223.69 812.941L1136.06 804.591L1123 801.099Z" fill="#14172D"/>
<path fill-rule="evenodd" clip-rule="evenodd" d="M919.703 841.438L969.417 844.191C969.417 844.191 986.045 843.823 1011.57 838.474L1036.41 848.136L1055.62 849.679L1059.41 854.077L1217.05 855.556L1277.35 847.015L1307.3 841.438L1430.01 815.101L1289.4 810.795L1265.22 815.101L1216.36 812.243L1128.86 803.044C1128.86 803.044 1069.31 809.933 1058.64 812.45C1047.97 814.968 975.958 824.922 975.958 824.922L907.053 837.057C907.053 837.057 906.577 839.752 919.703 841.438Z" fill="url(#paint8_radial_2_5961)"/>
<path fill-rule="evenodd" clip-rule="evenodd" d="M1466.13 815.452L1583.69 811.677L1584.09 824.922L1466.13 815.452Z" fill="#0E1020"/>
<path fill-rule="evenodd" clip-rule="evenodd" d="M1324.38 869.343L1365.18 873.097H1385.11L1426.8 871.22L1447.51 872.276L1475.65 873.097L1487.46 880.244L1513.79 879.072L1536.19 876.732L1543.76 869.343L1568.27 868.024L1583.69 868.883L1480.19 858.973L1425.58 864.171H1373.43L1324.38 869.343Z" fill="url(#paint9_radial_2_5961)"/>
<path fill-rule="evenodd" clip-rule="evenodd" d="M861.803 832.789L876.152 831.31L886.365 829.304L902.711 831.044L926.561 832.789L954.469 828.227L907.071 837.057L900.217 835.851L897.263 837.057L861.803 832.789Z" fill="#14172D"/>
<path fill-rule="evenodd" clip-rule="evenodd" d="M1217.06 855.556L1244.13 851.709L1277.37 847.015L1313.94 840.014L1267.27 845.387L1200.32 854.646L1212.73 877.505L1217.06 855.556Z" fill="#0E1020"/>
<path fill-rule="evenodd" clip-rule="evenodd" d="M1253.21 764L1305.73 769.447L1310.11 774.902L1288.38 773.202H1249.56L1220.62 769.447L1253.21 764Z" fill="url(#paint10_radial_2_5961)"/>
<path fill-rule="evenodd" clip-rule="evenodd" d="M1079 45.5748L1078.97 45.8145C1078.69 48.1562 1076.38 67.0331 1075.51 71.4026C1074.59 76.0311 1072.95 76.0505 1072.92 76.0505C1072.89 76.0505 1068.14 89.2041 1063.99 91.2738C1059.84 93.3435 1046.96 90.5386 1046.96 90.5386C1046.96 90.5386 1030.62 78.1883 1027.87 47.259C1027.87 47.259 1043.2 39.8936 1054.04 40.4247C1064.89 40.9559 1079 45.5748 1079 45.5748Z" fill="url(#paint11_linear_2_5961)"/>
<path fill-rule="evenodd" clip-rule="evenodd" d="M1078.97 45.8145C1078.69 48.1563 1076.38 67.0331 1075.51 71.4026C1074.59 76.0311 1072.95 76.0505 1072.92 76.0505C1072.89 76.0505 1068.14 89.2041 1063.99 91.2738C1059.84 93.3435 1046.96 90.5386 1046.96 90.5386C1046.96 90.5386 1030.62 78.1883 1027.87 47.259C1027.87 47.259 1032.08 68.4291 1039.44 77.1777C1046.79 85.9262 1054.64 82.684 1054.64 82.684L1062.06 66.2104L1065.65 53.3289L1068.24 47.6574L1071.54 58.6053L1069.81 69.5272H1074.65L1078.97 45.8145Z" fill="#0E1020"/>
<path fill-rule="evenodd" clip-rule="evenodd" d="M1027.88 47.2655L1042.04 47.0388L1055.42 45.8144L1072.91 45.5553L1078.98 45.8144C1078.98 45.8144 1063.85 39.9583 1055.21 39.0935C1046.57 38.2287 1027.88 47.2655 1027.88 47.2655Z" fill="url(#paint12_radial_2_5961)"/>
<path fill-rule="evenodd" clip-rule="evenodd" d="M347 245.579L349.188 259.599C349.188 259.599 356.629 262.091 357.79 264.507C358.952 266.923 363.699 310.486 363.699 310.486L368.839 314.501C368.839 314.501 372.058 322.475 374.66 321.574C377.262 320.672 379.951 309.851 379.951 309.851C379.951 309.851 380.363 309.374 380.986 308.538C381.61 307.702 382.499 306.446 383.433 304.921C384.597 303.039 385.895 295.708 386.715 290.421C387.212 287.2 387.534 284.732 387.534 284.732L400.596 281.992L402.215 278.773L413.071 272.208C416.22 256.085 412.852 235.758 412.852 235.758C409.303 232.972 392.908 229.109 387.488 229.597C382.387 230.053 371.839 233.593 370.55 234.038L370.417 234.077L368.609 244.338C359.942 241.804 347 245.579 347 245.579Z" fill="url(#paint13_linear_2_5961)"/>
<path fill-rule="evenodd" clip-rule="evenodd" d="M347 245.578L349.188 259.599C349.188 259.599 356.629 262.091 357.79 264.507C358.952 266.923 363.699 310.485 363.699 310.485L368.839 314.501C368.839 314.501 372.058 322.475 374.66 321.574C377.262 320.672 379.951 309.851 379.951 309.851C379.951 309.851 380.363 309.374 380.986 308.538L378.328 307.28L373.513 311.556L371.273 305.728L370.006 273.293L377.078 275.363L385.345 284.992L386.711 290.425C387.208 287.204 387.529 284.736 387.529 284.736L400.591 281.996L402.211 278.777L413.067 272.212L405.71 273.46L404.664 265.908L402.079 277.136L398.712 277.267L391.026 275.212C391.026 275.212 388.619 270.258 387.928 267.628C387.236 264.997 385.56 247.85 385.56 247.85L384.949 232.276L380.726 231.206L370.555 234.026L370.421 234.066L368.614 244.327C359.942 241.804 347 245.578 347 245.578Z" fill="#0E1020"/>
<path fill-rule="evenodd" clip-rule="evenodd" d="M183.189 463.1C183.189 463.1 179.627 480.689 180.032 484.883C180.437 489.077 188.484 498.411 188.484 498.411C188.484 498.411 196.969 516.677 199.662 525.609C202.356 534.541 211.535 545.903 211.535 545.903C211.535 545.903 266.49 554.428 281.508 554.428C296.525 554.428 304.09 547.392 304.09 547.392C304.09 547.392 325.283 510.592 327.143 508.764C329.004 506.936 339.559 503.151 339.559 503.151C339.559 503.151 356.731 472.14 358.082 463.968L310.329 465.942L183.189 463.1Z" fill="url(#paint14_linear_2_5961)"/>
<path fill-rule="evenodd" clip-rule="evenodd" d="M183.189 463.1L205.76 460.277L218.877 458.047C218.877 458.047 280.979 458.214 298.826 459.244C298.826 459.244 313.709 453.227 317.769 453.098C321.83 452.968 329.642 460.277 329.642 460.277L358.086 463.984C358.086 463.984 345.099 468.506 335.087 468.315L344.631 471.528C344.631 471.528 342.394 473.41 338.607 474.551C334.819 475.692 306.358 476.539 292.853 476.388C279.348 476.238 273.425 471.528 273.425 471.528L279.614 469.176L272.322 468.31C272.322 468.31 250.229 472.175 241.788 472.448C233.348 472.721 222.525 470.656 222.525 470.656L221.713 467.779C221.713 467.779 198.792 466.49 183.189 463.1Z" fill="url(#paint15_radial_2_5961)"/>
<path fill-rule="evenodd" clip-rule="evenodd" d="M216.362 467.412V479.684L203.895 481.801C203.895 481.801 203.346 482.036 201.977 485.565C200.608 489.093 194.257 497.797 194.257 497.797L188.482 498.427L193.104 508.778C193.104 508.778 199.773 508.846 202.42 510.49C205.066 512.135 210.947 517.051 210.947 517.051L214.475 526.715C214.475 526.715 218.004 508.837 218.239 506.014C218.474 503.191 221.899 491.062 221.363 489.016C220.827 486.969 221.575 478.976 221.575 478.976L222.516 470.649C222.516 470.649 240.572 473.097 242.452 473.803C244.331 474.509 245.155 482.036 245.155 482.036L251.309 496.223L244.416 516.924L247.088 534.494L247.931 547.707L257.738 558.203H265.5C265.5 558.203 271.852 523.875 272.322 521.76C272.793 519.646 270.647 514.703 270.647 514.703L273.736 493.135L273.432 471.507L279.621 469.155L272.329 468.289C272.329 468.289 249.387 471.724 245.59 472.074C241.793 472.425 222.485 468.851 222.485 468.851L234.063 466.029L216.362 467.412Z" fill="#0C0E1C"/>
<path fill-rule="evenodd" clip-rule="evenodd" d="M315.391 476.398L330.86 478.985L328.395 484.897L321.688 501.079L313.598 508.771L304.523 512.13L297.466 517.044H303.582L303.111 523.595L299.832 539.201L299.67 550.309L303.817 549.742C303.817 549.742 320.373 519.754 327.145 508.771C327.145 508.771 338.394 505.294 339.561 503.158C340.728 501.022 356.632 471.305 358.084 463.975L335.096 468.306L344.64 471.519C344.64 471.519 337.922 474.511 333.452 475.217C328.983 475.923 315.391 476.398 315.391 476.398Z" fill="#0C0E1C"/>
<path fill-rule="evenodd" clip-rule="evenodd" d="M298.826 459.235L293.83 461.689C293.83 461.689 297.476 462.509 299.591 463.1C301.705 463.69 313.321 462.747 315.391 462.159C317.461 461.571 325.099 459.228 325.099 459.228L325.509 456.836C325.509 456.836 319.807 451.733 318.085 452.011C316.363 452.289 301.842 457.748 298.826 459.235Z" fill="url(#paint16_radial_2_5961)"/>
<path fill-rule="evenodd" clip-rule="evenodd" d="M330.35 460.362L325.509 463.1L317.929 463.286H301.783C301.783 463.286 314.203 462.225 316.066 461.818C317.929 461.411 325.099 459.23 325.099 459.23L325.509 456.838L330.35 460.362Z" fill="#0E1020"/>
<path fill-rule="evenodd" clip-rule="evenodd" d="M216.362 479.684L221.575 491.909L222.471 468.868L234.049 466.047L216.362 467.412V479.684Z" fill="#0E1020"/>
<path fill-rule="evenodd" clip-rule="evenodd" d="M335.097 468.306L344.64 471.519L340.519 501.394C340.519 501.394 353.351 476.929 358.096 463.963L335.097 468.306Z" fill="#0E1020"/>
<path fill-rule="evenodd" clip-rule="evenodd" d="M245.575 472.091L257.739 483.892L265.262 491.909L266.793 498.766L273.538 494.468L273.425 471.519L279.614 469.171L272.314 468.306L245.575 472.091Z" fill="#0E1020"/>
<defs>
<linearGradient id="paint0_linear_2_5961" x1="567.174" y1="286.825" x2="410.676" y2="653.343" gradientUnits="userSpaceOnUse">
<stop stop-color="#0F1122" stop-opacity="0"/>
<stop offset="1" stop-color="#161A31"/>
</linearGradient>
<linearGradient id="paint1_linear_2_5961" x1="584.419" y1="74.8308" x2="438.319" y2="346.046" gradientUnits="userSpaceOnUse">
<stop stop-color="#0F1122" stop-opacity="0"/>
<stop offset="1" stop-color="#161A31"/>
</linearGradient>
<radialGradient id="paint2_radial_2_5961" cx="0" cy="0" r="1" gradientUnits="userSpaceOnUse" gradientTransform="translate(298.383 -36.4408) rotate(131.232) scale(192.779 196.905)">
<stop stop-color="#1E2140"/>
<stop offset="1" stop-color="#131525"/>
</radialGradient>
<radialGradient id="paint3_radial_2_5961" cx="0" cy="0" r="1" gradientUnits="userSpaceOnUse" gradientTransform="translate(962.29 283.689) rotate(-11.6814) scale(67.6806 69.1289)">
<stop stop-color="#1E2140"/>
<stop offset="1" stop-color="#131525"/>
</radialGradient>
<linearGradient id="paint4_linear_2_5961" x1="1345.12" y1="717.149" x2="1581.85" y2="476.487" gradientUnits="userSpaceOnUse">
<stop offset="0.01" stop-color="#0E1020"/>
<stop offset="1" stop-color="#1F2342"/>
</linearGradient>
<radialGradient id="paint5_radial_2_5961" cx="0" cy="0" r="1" gradientUnits="userSpaceOnUse" gradientTransform="translate(966.643 815.155) rotate(171.686) scale(133.724 39.4273)">
<stop stop-color="#2C335C"/>
<stop offset="1" stop-color="#191D36"/>
</radialGradient>
<radialGradient id="paint6_radial_2_5961" cx="0" cy="0" r="1" gradientUnits="userSpaceOnUse" gradientTransform="translate(1376.27 794.815) rotate(168.475) scale(288.294 116.301)">
<stop stop-color="#2C335C"/>
<stop offset="1" stop-color="#191D36"/>
</radialGradient>
<radialGradient id="paint7_radial_2_5961" cx="0" cy="0" r="1" gradientUnits="userSpaceOnUse" gradientTransform="translate(989.085 871.05) rotate(165.991) scale(53.0976 25.6987)">
<stop stop-color="#2C335C"/>
<stop offset="1" stop-color="#191D36"/>
</radialGradient>
<radialGradient id="paint8_radial_2_5961" cx="0" cy="0" r="1" gradientUnits="userSpaceOnUse" gradientTransform="translate(1264.72 818.476) rotate(172.684) scale(226.516 58.9556)">
<stop stop-color="#2C335C"/>
<stop offset="1" stop-color="#191D36"/>
</radialGradient>
<radialGradient id="paint9_radial_2_5961" cx="0" cy="0" r="1" gradientUnits="userSpaceOnUse" gradientTransform="translate(1501.73 865.224) rotate(174.012) scale(112.013 23.9468)">
<stop stop-color="#2C335C"/>
<stop offset="1" stop-color="#191D36"/>
</radialGradient>
<radialGradient id="paint10_radial_2_5961" cx="0" cy="0" r="1" gradientUnits="userSpaceOnUse" gradientTransform="translate(1281.82 767.204) rotate(171.146) scale(38.9091 12.1928)">
<stop stop-color="#2C335C"/>
<stop offset="1" stop-color="#191D36"/>
</radialGradient>
<linearGradient id="paint11_linear_2_5961" x1="1041.9" y1="84.118" x2="1064.88" y2="46.2476" gradientUnits="userSpaceOnUse">
<stop offset="0.01" stop-color="#0E1020"/>
<stop offset="1" stop-color="#1F2342"/>
</linearGradient>
<radialGradient id="paint12_radial_2_5961" cx="0" cy="0" r="1" gradientUnits="userSpaceOnUse" gradientTransform="translate(1062.83 41.4538) rotate(168.363) scale(22.4135 9.12474)">
<stop stop-color="#2C335C"/>
<stop offset="1" stop-color="#191D36"/>
</radialGradient>
<linearGradient id="paint13_linear_2_5961" x1="365.506" y1="307.525" x2="410.819" y2="252.312" gradientUnits="userSpaceOnUse">
<stop offset="0.01" stop-color="#0E1020"/>
<stop offset="1" stop-color="#1F2342"/>
</linearGradient>
<linearGradient id="paint14_linear_2_5961" x1="228.885" y1="540.425" x2="254.671" y2="456.734" gradientUnits="userSpaceOnUse">
<stop offset="0.01" stop-color="#0E1020"/>
<stop offset="1" stop-color="#1F2342"/>
</linearGradient>
<radialGradient id="paint15_radial_2_5961" cx="0" cy="0" r="1" gradientUnits="userSpaceOnUse" gradientTransform="translate(302.806 459.946) rotate(170.329) scale(76.2222 26.0102)">
<stop stop-color="#2C335C"/>
<stop offset="1" stop-color="#191D36"/>
</radialGradient>
<radialGradient id="paint16_radial_2_5961" cx="0" cy="0" r="1" gradientUnits="userSpaceOnUse" gradientTransform="translate(315.496 455.317) rotate(155.507) scale(14.9557 11.6266)">
<stop stop-color="#2C335C"/>
<stop offset="1" stop-color="#191D36"/>
</radialGradient>
</defs>
</svg>
