<svg width="24" height="24" viewBox="0 0 24 24" fill="none" xmlns="http://www.w3.org/2000/svg">
<path d="M4 21C4 20.4477 4.44772 20 5 20H19C19.5523 20 20 20.4477 20 21C20 21.5523 19.5523 22 19 22H5C4.44772 22 4 21.5523 4 21Z" fill="#767FD1"/>
<path d="M11.9394 5.35363C11.7442 5.15837 11.4276 5.15837 11.2323 5.35363L7.3536 9.23228C7.15834 9.42755 7.15834 9.74413 7.3536 9.93939L12.0607 14.6465C12.256 14.8418 12.5725 14.8418 12.7678 14.6465L16.6465 10.7678C16.8418 10.5726 16.8418 10.256 16.6465 10.0607L11.9394 5.35363Z" fill="#767FD1"/>
<path d="M10.6411 16.4988C10.8053 16.4532 10.8359 16.2501 10.7154 16.1296L5.87045 11.2847C5.74994 11.1642 5.54692 11.1948 5.50128 11.359L4.04389 16.6018C3.81466 17.4264 4.57364 18.1854 5.39831 17.9562L10.6411 16.4988Z" fill="#767FD1"/>
<path d="M13.7086 2.8772C14.8802 1.70564 16.7797 1.70565 17.9512 2.87722L19.1228 4.04879C20.2944 5.22037 20.2944 7.11987 19.1228 8.29144L18.7677 8.64653C18.5724 8.84179 18.2558 8.84179 18.0606 8.64653L13.3535 3.93942C13.1582 3.74416 13.1582 3.42758 13.3535 3.23232L13.7086 2.8772Z" fill="#767FD1"/>
</svg>
