<svg width="1535" height="940" viewBox="0 0 1535 940" fill="none" xmlns="http://www.w3.org/2000/svg">
<path d="M516.752 81.1194C509.361 83.3406 508.902 84.0682 509.668 91.7274C507.446 84.3362 506.719 83.8767 499.06 84.6426C506.451 82.4215 506.91 81.6938 506.144 74.0347C508.404 81.4258 509.093 81.8853 516.752 81.1194Z" fill="white"/>
<path d="M407.838 259.004C407.838 259.961 407.072 260.727 406.115 260.727C405.158 260.727 404.392 259.961 404.392 259.004C404.392 258.046 405.158 257.28 406.115 257.28C407.072 257.28 407.838 258.046 407.838 259.004Z" fill="#212444"/>
<path d="M737.183 15.4801C738.282 15.4801 739.174 14.5885 739.174 13.4887C739.174 12.3889 738.282 11.4973 737.183 11.4973C736.083 11.4973 735.191 12.3889 735.191 13.4887C735.191 14.5885 736.083 15.4801 737.183 15.4801Z" fill="#212444"/>
<path d="M628.193 65.2648C629.293 65.2648 630.184 64.3732 630.184 63.2734C630.184 62.1736 629.293 61.282 628.193 61.282C627.093 61.282 626.202 62.1736 626.202 63.2734C626.202 64.3732 627.093 65.2648 628.193 65.2648Z" fill="#212444"/>
<path d="M120.888 219.597C120.888 220.708 120.007 221.588 118.896 221.588C117.785 221.588 116.905 220.708 116.905 219.597C116.905 218.486 117.785 217.606 118.896 217.606C120.007 217.606 120.888 218.486 120.888 219.597Z" fill="#212444"/>
<path d="M36.8665 118.764C36.8665 119.875 35.9856 120.755 34.8751 120.755C33.7645 120.755 32.8838 119.875 32.8838 118.764C32.8838 117.653 33.7645 116.773 34.8751 116.773C35.9856 116.773 36.8665 117.653 36.8665 118.764Z" fill="#212444"/>
<path d="M59.7672 285.275C60.867 285.275 61.7586 284.383 61.7586 283.283C61.7586 282.184 60.867 281.292 59.7672 281.292C58.6673 281.292 57.7759 282.184 57.7759 283.283C57.7759 284.383 58.6673 285.275 59.7672 285.275Z" fill="#212444"/>
<path d="M625.206 209.87C625.206 210.981 624.325 211.861 623.215 211.861C622.104 211.861 621.223 210.981 621.223 209.87C621.223 208.76 622.104 207.879 623.215 207.879C624.325 207.879 625.206 208.76 625.206 209.87Z" fill="#212444"/>
<path d="M719.069 283.283C721.438 283.283 723.359 281.363 723.359 278.994C723.359 276.625 721.438 274.705 719.069 274.705C716.701 274.705 714.78 276.625 714.78 278.994C714.78 281.363 716.701 283.283 719.069 283.283Z" fill="#212444"/>
<path d="M226.507 223.886C228.876 223.886 230.797 221.966 230.797 219.597C230.797 217.228 228.876 215.308 226.507 215.308C224.138 215.308 222.218 217.228 222.218 219.597C222.218 221.966 224.138 223.886 226.507 223.886Z" fill="#212444"/>
<path d="M442.752 135.398C443.132 133.06 441.544 130.857 439.206 130.477C436.867 130.098 434.664 131.686 434.285 134.024C433.905 136.362 435.493 138.565 437.831 138.945C440.17 139.324 442.373 137.736 442.752 135.398Z" fill="#212444"/>
<path d="M682.037 149.746C685.59 149.746 688.471 146.865 688.471 143.312C688.471 139.759 685.59 136.878 682.037 136.878C678.484 136.878 675.604 139.759 675.604 143.312C675.604 146.865 678.484 149.746 682.037 149.746Z" fill="#212444"/>
<path d="M227.695 71.6598C227.695 72.3109 227.158 72.847 226.507 72.847C225.856 72.847 225.32 72.3109 225.32 71.6598C225.32 71.0088 225.856 70.4727 226.507 70.4727C227.158 70.4727 227.695 70.9705 227.695 71.6598Z" fill="white"/>
<path d="M365.752 61.2819C365.752 61.9329 365.215 62.4691 364.564 62.4691C363.913 62.4691 363.377 61.9329 363.377 61.2819C363.377 60.6309 363.913 60.0947 364.564 60.0947C365.215 60.0947 365.752 60.6309 365.752 61.2819Z" fill="#212444"/>
<path d="M97.6039 16.246C97.6039 16.897 97.0677 17.4332 96.4167 17.4332C95.7657 17.4332 95.2295 16.897 95.2295 16.246C95.2295 15.595 95.7657 15.0588 96.4167 15.0588C97.0677 15.0588 97.6039 15.5567 97.6039 16.246Z" fill="#212444"/>
<path d="M931.356 136.419C931.356 137.376 930.59 138.142 929.633 138.142C928.676 138.142 927.91 137.376 927.91 136.419C927.91 135.461 928.676 134.695 929.633 134.695C930.59 134.695 931.356 135.5 931.356 136.419Z" fill="#212444"/>
<path d="M893.481 190.071C893.481 191.028 892.715 191.794 891.758 191.794C890.801 191.794 890.035 191.028 890.035 190.071C890.035 189.114 890.801 188.348 891.758 188.348C892.715 188.348 893.481 189.114 893.481 190.071Z" fill="#212444"/>
<path d="M743.744 221.014C744.696 221.014 745.468 220.243 745.468 219.291C745.468 218.339 744.696 217.568 743.744 217.568C742.793 217.568 742.021 218.339 742.021 219.291C742.021 220.243 742.793 221.014 743.744 221.014Z" fill="#212444"/>
<path d="M1450.72 259.004C1450.72 259.961 1449.96 260.727 1449 260.727C1448.04 260.727 1447.28 259.961 1447.28 259.004C1447.28 258.046 1448.04 257.28 1449 257.28C1449.96 257.28 1450.72 258.046 1450.72 259.004Z" fill="#212444"/>
<path d="M743.553 1.65544C743.553 2.61284 742.787 3.37876 741.829 3.37876C740.872 3.37876 740.106 2.61284 740.106 1.65544C740.106 0.698047 740.872 -0.0678711 741.829 -0.0678711C742.787 -0.0678711 743.553 0.698047 743.553 1.65544Z" fill="#212444"/>
<path d="M751.173 143.158C753.035 143.158 754.543 141.65 754.543 139.789C754.543 137.927 753.035 136.418 751.173 136.418C749.312 136.418 747.803 137.927 747.803 139.789C747.803 141.65 749.312 143.158 751.173 143.158Z" fill="#212444"/>
<path d="M1163.77 219.597C1163.77 220.708 1162.89 221.588 1161.78 221.588C1160.67 221.588 1159.79 220.708 1159.79 219.597C1159.79 218.486 1160.67 217.606 1161.78 217.606C1162.89 217.606 1163.77 218.486 1163.77 219.597Z" fill="#212444"/>
<path d="M1079.75 118.764C1079.75 119.875 1078.87 120.755 1077.76 120.755C1076.65 120.755 1075.77 119.875 1075.77 118.764C1075.77 117.653 1076.65 116.773 1077.76 116.773C1078.87 116.773 1079.75 117.653 1079.75 118.764Z" fill="#212444"/>
<path d="M1102.65 285.275C1103.75 285.275 1104.65 284.383 1104.65 283.283C1104.65 282.184 1103.75 281.292 1102.65 281.292C1101.55 281.292 1100.66 282.184 1100.66 283.283C1100.66 284.383 1101.55 285.275 1102.65 285.275Z" fill="#212444"/>
<path d="M972.524 165.6C974.893 165.6 976.813 163.68 976.813 161.311C976.813 158.942 974.893 157.022 972.524 157.022C970.155 157.022 968.235 158.942 968.235 161.311C968.235 163.68 970.155 165.6 972.524 165.6Z" fill="#212444"/>
<path d="M1269.39 223.886C1271.76 223.886 1273.68 221.966 1273.68 219.597C1273.68 217.228 1271.76 215.308 1269.39 215.308C1267.02 215.308 1265.1 217.228 1265.1 219.597C1265.1 221.966 1267.02 223.886 1269.39 223.886Z" fill="#212444"/>
<path d="M1485.64 135.398C1486.02 133.06 1484.43 130.857 1482.09 130.477C1479.75 130.098 1477.55 131.686 1477.17 134.024C1476.79 136.362 1478.38 138.565 1480.72 138.945C1483.06 139.324 1485.26 137.736 1485.64 135.398Z" fill="#212444"/>
<path d="M772.006 62.3161C774.375 62.3161 776.296 60.3957 776.296 58.0269C776.296 55.6581 774.375 53.7378 772.006 53.7378C769.638 53.7378 767.717 55.6581 767.717 58.0269C767.717 60.3957 769.638 62.3161 772.006 62.3161Z" fill="#212444"/>
<path d="M854.573 259.004C859.035 259.004 862.653 255.386 862.653 250.923C862.653 246.461 859.035 242.843 854.573 242.843C850.11 242.843 846.492 246.461 846.492 250.923C846.492 255.386 850.11 259.004 854.573 259.004Z" fill="#212444"/>
<path d="M910.184 98.4965C911.946 97.6218 912.665 95.4845 911.79 93.7227C910.915 91.9609 908.778 91.2417 907.016 92.1164C905.254 92.9911 904.535 95.1284 905.41 96.8903C906.285 98.6521 908.422 99.3712 910.184 98.4965Z" fill="#212444"/>
<path d="M1270.58 71.6598C1270.58 72.3109 1270.05 72.847 1269.39 72.847C1268.74 72.847 1268.21 72.3109 1268.21 71.6598C1268.21 71.0088 1268.74 70.4727 1269.39 70.4727C1270.05 70.4727 1270.58 70.9705 1270.58 71.6598Z" fill="white"/>
<path d="M1408.64 61.2819C1408.64 61.9329 1408.1 62.4691 1407.45 62.4691C1406.8 62.4691 1406.26 61.9329 1406.26 61.2819C1406.26 60.6309 1406.8 60.0947 1407.45 60.0947C1408.1 60.0947 1408.64 60.6309 1408.64 61.2819Z" fill="#212444"/>
<path d="M1140.49 16.246C1140.49 16.897 1139.95 17.4332 1139.3 17.4332C1138.65 17.4332 1138.12 16.897 1138.12 16.246C1138.12 15.595 1138.65 15.0588 1139.3 15.0588C1139.95 15.0588 1140.49 15.5567 1140.49 16.246Z" fill="#212444"/>
<path d="M516.752 823.627C509.361 825.848 508.902 826.576 509.668 834.235C507.446 826.844 506.719 826.385 499.06 827.15C506.451 824.929 506.91 824.202 506.144 816.542C508.404 823.934 509.093 824.393 516.752 823.627Z" fill="white"/>
<path d="M484.737 456.753C480.448 455.029 479.95 455.183 477.422 459.051C479.146 454.761 478.992 454.264 475.125 451.736C479.414 453.459 479.912 453.306 482.439 449.438C480.716 453.727 480.869 454.225 484.737 456.753Z" fill="white"/>
<path d="M207.628 633.373C203.147 634.561 202.841 634.944 203.147 639.577C201.96 635.097 201.577 634.79 196.943 635.097C201.424 633.91 201.73 633.527 201.424 628.893C202.611 633.373 203.032 633.641 207.628 633.373Z" fill="#212444"/>
<path d="M411.131 313.335C406.459 309.467 405.808 309.428 401.06 313.296C404.927 308.624 404.966 307.973 401.098 303.263C405.77 307.131 406.421 307.169 411.17 303.301C407.302 307.935 407.263 308.624 411.131 313.335Z" fill="#212444"/>
<path d="M413.238 308.318C407.187 308.854 406.728 309.352 406.077 315.403C405.541 309.352 405.043 308.892 398.992 308.241C405.043 307.705 405.502 307.207 406.153 301.156C406.728 307.207 407.187 307.705 413.238 308.318Z" fill="#212444"/>
<path d="M699.921 545.829C692.301 546.557 691.726 547.169 690.96 554.79C690.233 547.169 689.62 546.595 681.999 545.829C689.62 545.101 690.194 544.489 690.96 536.868C691.688 544.489 692.301 545.101 699.921 545.829Z" fill="#212444"/>
<path d="M697.279 539.51C692.416 545.408 692.416 546.25 697.279 552.148C691.382 547.284 690.539 547.284 684.642 552.148C689.505 546.25 689.505 545.408 684.642 539.51C690.539 544.374 691.382 544.374 697.279 539.51Z" fill="white"/>
<path d="M51.4195 342.937C53.2807 342.937 54.7894 341.429 54.7894 339.567C54.7894 337.706 53.2807 336.197 51.4195 336.197C49.5582 336.197 48.0493 337.706 48.0493 339.567C48.0493 341.429 49.5582 342.937 51.4195 342.937Z" fill="#212444"/>
<path d="M723.09 616.6C723.09 617.71 722.209 618.591 721.099 618.591C719.988 618.591 719.107 617.71 719.107 616.6C719.107 615.489 719.988 614.608 721.099 614.608C722.209 614.608 723.09 615.489 723.09 616.6Z" fill="#212444"/>
<path d="M627.618 466.901C628.718 466.901 629.61 466.01 629.61 464.91C629.61 463.81 628.718 462.918 627.618 462.918C626.519 462.918 625.627 463.81 625.627 464.91C625.627 466.01 626.519 466.901 627.618 466.901Z" fill="#212444"/>
<path d="M735.192 350.443C736.292 350.443 737.183 349.552 737.183 348.452C737.183 347.352 736.292 346.46 735.192 346.46C734.092 346.46 733.201 347.352 733.201 348.452C733.201 349.552 734.092 350.443 735.192 350.443Z" fill="#212444"/>
<path d="M632.176 605.915C632.176 607.026 631.295 607.906 630.185 607.906C629.074 607.906 628.193 607.026 628.193 605.915C628.193 604.804 629.074 603.924 630.185 603.924C631.295 603.924 632.176 604.804 632.176 605.915Z" fill="#212444"/>
<path d="M429.705 596.494C429.705 597.605 428.825 598.486 427.714 598.486C426.604 598.486 425.723 597.605 425.723 596.494C425.723 595.384 426.604 594.503 427.714 594.503C428.825 594.503 429.705 595.384 429.705 596.494Z" fill="#212444"/>
<path d="M336.915 375.795C338.015 375.795 338.906 374.903 338.906 373.804C338.906 372.704 338.015 371.812 336.915 371.812C335.815 371.812 334.923 372.704 334.923 373.804C334.923 374.903 335.815 375.795 336.915 375.795Z" fill="#212444"/>
<path d="M666.795 668.338C667.895 668.338 668.787 667.446 668.787 666.346C668.787 665.246 667.895 664.355 666.795 664.355C665.695 664.355 664.804 665.246 664.804 666.346C664.804 667.446 665.695 668.338 666.795 668.338Z" fill="#212444"/>
<path d="M737.183 757.988C738.282 757.988 739.174 757.097 739.174 755.997C739.174 754.897 738.282 754.005 737.183 754.005C736.083 754.005 735.191 754.897 735.191 755.997C735.191 757.097 736.083 757.988 737.183 757.988Z" fill="#212444"/>
<path d="M628.193 807.773C629.293 807.773 630.184 806.881 630.184 805.781C630.184 804.682 629.293 803.79 628.193 803.79C627.093 803.79 626.202 804.682 626.202 805.781C626.202 806.881 627.093 807.773 628.193 807.773Z" fill="#212444"/>
<path d="M36.8665 861.272C36.8665 862.383 35.9856 863.263 34.8751 863.263C33.7645 863.263 32.8838 862.383 32.8838 861.272C32.8838 860.162 33.7645 859.281 34.8751 859.281C35.9856 859.281 36.8665 860.162 36.8665 861.272Z" fill="#212444"/>
<path d="M682.037 636.207C683.137 636.207 684.029 635.316 684.029 634.216C684.029 633.116 683.137 632.224 682.037 632.224C680.937 632.224 680.046 633.116 680.046 634.216C680.046 635.316 680.937 636.207 682.037 636.207Z" fill="#212444"/>
<path d="M235.239 720.994C235.239 722.105 234.358 722.986 233.248 722.986C232.137 722.986 231.256 722.105 231.256 720.994C231.256 719.884 232.137 719.003 233.248 719.003C234.358 719.003 235.239 719.884 235.239 720.994Z" fill="#212444"/>
<path d="M599.701 338.189C600.801 338.189 601.693 337.297 601.693 336.197C601.693 335.097 600.801 334.206 599.701 334.206C598.601 334.206 597.71 335.097 597.71 336.197C597.71 337.297 598.601 338.189 599.701 338.189Z" fill="#212444"/>
<path d="M90.4034 528.481C91.5032 528.481 92.3948 527.589 92.3948 526.489C92.3948 525.39 91.5032 524.498 90.4034 524.498C89.3036 524.498 88.4121 525.39 88.4121 526.489C88.4121 527.589 89.3036 528.481 90.4034 528.481Z" fill="#212444"/>
<path d="M99.327 484.134C99.327 484.938 98.6759 485.589 97.8717 485.589C97.0675 485.589 96.4165 484.938 96.4165 484.134C96.4165 483.33 97.0675 482.679 97.8717 482.679C98.6759 482.679 99.327 483.33 99.327 484.134Z" fill="white"/>
<path d="M169.447 287.063C169.447 287.868 168.796 288.519 167.992 288.519C167.188 288.519 166.537 287.868 166.537 287.063C166.537 286.259 167.188 285.608 167.992 285.608C168.796 285.608 169.447 286.259 169.447 287.063Z" fill="#212444"/>
<path d="M57.7756 464.91C58.8755 464.91 59.7669 464.018 59.7669 462.918C59.7669 461.818 58.8755 460.927 57.7756 460.927C56.6758 460.927 55.7842 461.818 55.7842 462.918C55.7842 464.018 56.6758 464.91 57.7756 464.91Z" fill="#212444"/>
<path d="M438.475 393.909C439.575 393.909 440.467 393.017 440.467 391.918C440.467 390.818 439.575 389.926 438.475 389.926C437.375 389.926 436.484 390.818 436.484 391.918C436.484 393.017 437.375 393.909 438.475 393.909Z" fill="#212444"/>
<path d="M296.704 348.452C297.804 348.452 298.695 347.56 298.695 346.46C298.695 345.36 297.804 344.469 296.704 344.469C295.604 344.469 294.712 345.36 294.712 346.46C294.712 347.56 295.604 348.452 296.704 348.452Z" fill="#212444"/>
<path d="M229.188 406.585C230.287 406.585 231.179 405.693 231.179 404.594C231.179 403.494 230.287 402.602 229.188 402.602C228.088 402.602 227.196 403.494 227.196 404.594C227.196 405.693 228.088 406.585 229.188 406.585Z" fill="#212444"/>
<path d="M537.47 313.641C538.57 313.641 539.461 312.749 539.461 311.649C539.461 310.55 538.57 309.658 537.47 309.658C536.37 309.658 535.479 310.55 535.479 311.649C535.479 312.749 536.37 313.641 537.47 313.641Z" fill="#212444"/>
<path d="M515.259 620.889C517.628 620.889 519.548 618.969 519.548 616.6C519.548 614.231 517.628 612.311 515.259 612.311C512.89 612.311 510.97 614.231 510.97 616.6C510.97 618.969 512.89 620.889 515.259 620.889Z" fill="#212444"/>
<path d="M148.881 541.195C151.25 541.195 153.17 539.275 153.17 536.906C153.17 534.537 151.25 532.617 148.881 532.617C146.512 532.617 144.592 534.537 144.592 536.906C144.592 539.275 146.512 541.195 148.881 541.195Z" fill="#212444"/>
<path d="M442.752 877.906C443.132 875.568 441.544 873.365 439.206 872.985C436.867 872.606 434.664 874.194 434.285 876.532C433.905 878.87 435.493 881.073 437.831 881.453C440.17 881.832 442.373 880.244 442.752 877.906Z" fill="#212444"/>
<path d="M682.037 892.254C685.59 892.254 688.471 889.373 688.471 885.82C688.471 882.267 685.59 879.386 682.037 879.386C678.484 879.386 675.604 882.267 675.604 885.82C675.604 889.373 678.484 892.254 682.037 892.254Z" fill="#212444"/>
<path d="M493.664 730.015C495.728 727.951 495.728 724.605 493.664 722.541C491.601 720.478 488.254 720.477 486.191 722.541C484.127 724.605 484.127 727.951 486.19 730.015C488.254 732.079 491.601 732.079 493.664 730.015Z" fill="#212444"/>
<path d="M694.904 303.224C699.367 303.224 702.985 299.607 702.985 295.144C702.985 290.681 699.367 287.063 694.904 287.063C690.442 287.063 686.824 290.681 686.824 295.144C686.824 299.607 690.442 303.224 694.904 303.224Z" fill="#212444"/>
<path d="M227.695 814.168C227.695 814.819 227.158 815.355 226.507 815.355C225.856 815.355 225.32 814.819 225.32 814.168C225.32 813.517 225.856 812.981 226.507 812.981C227.158 812.981 227.695 813.479 227.695 814.168Z" fill="white"/>
<path d="M327.57 688.673C327.57 689.324 327.034 689.86 326.383 689.86C325.732 689.86 325.196 689.324 325.196 688.673C325.196 688.021 325.732 687.485 326.383 687.485C327.034 687.485 327.57 688.021 327.57 688.673Z" fill="#212444"/>
<path d="M365.752 803.79C365.752 804.441 365.215 804.977 364.564 804.977C363.913 804.977 363.377 804.441 363.377 803.79C363.377 803.139 363.913 802.603 364.564 802.603C365.215 802.603 365.752 803.139 365.752 803.79Z" fill="#212444"/>
<path d="M97.6039 758.754C97.6039 759.405 97.0677 759.941 96.4167 759.941C95.7657 759.941 95.2295 759.405 95.2295 758.754C95.2295 758.103 95.7657 757.567 96.4167 757.567C97.0677 757.567 97.6039 758.065 97.6039 758.754Z" fill="#212444"/>
<path d="M306.125 515.077C306.125 515.728 305.589 516.265 304.938 516.265C304.287 516.265 303.75 515.728 303.75 515.077C303.75 514.426 304.287 513.89 304.938 513.89C305.589 513.89 306.125 514.426 306.125 515.077Z" fill="#212444"/>
<path d="M869.853 715.671C862.462 717.892 862.002 718.62 862.768 726.279C860.547 718.888 859.819 718.428 852.16 719.194C859.551 716.973 860.011 716.246 859.245 708.586C861.466 715.978 862.194 716.437 869.853 715.671Z" fill="white"/>
<path d="M978.307 346.46C972.792 341.099 971.949 341.022 965.592 345.388C970.954 339.873 971.03 339.031 966.665 332.674C972.179 338.035 973.022 338.112 979.379 333.746C974.017 339.261 973.941 340.103 978.307 346.46Z" fill="#212444"/>
<path d="M1527.62 456.753C1523.33 455.029 1522.84 455.183 1520.31 459.051C1522.03 454.761 1521.88 454.264 1518.01 451.736C1522.3 453.459 1522.8 453.306 1525.33 449.438C1523.6 453.727 1523.76 454.225 1527.62 456.753Z" fill="white"/>
<path d="M1250.51 633.373C1246.03 634.561 1245.73 634.944 1246.03 639.577C1244.85 635.097 1244.46 634.79 1239.83 635.097C1244.31 633.91 1244.62 633.527 1244.31 628.893C1245.5 633.373 1245.92 633.641 1250.51 633.373Z" fill="#212444"/>
<path d="M1454.02 313.335C1449.35 309.467 1448.69 309.428 1443.95 313.296C1447.81 308.624 1447.85 307.973 1443.98 303.263C1448.66 307.131 1449.31 307.169 1454.06 303.301C1450.19 307.935 1450.15 308.624 1454.02 313.335Z" fill="#212444"/>
<path d="M1456.12 308.318C1450.07 308.854 1449.61 309.352 1448.96 315.403C1448.43 309.352 1447.93 308.892 1441.88 308.241C1447.93 307.705 1448.39 307.207 1449.04 301.156C1449.61 307.207 1450.07 307.705 1456.12 308.318Z" fill="#212444"/>
<path d="M1025.14 676.763C1027 676.763 1028.51 675.254 1028.51 673.392C1028.51 671.531 1027 670.022 1025.14 670.022C1023.28 670.022 1021.77 671.531 1021.77 673.392C1021.77 675.254 1023.28 676.763 1025.14 676.763Z" fill="#212444"/>
<path d="M931.356 878.926C931.356 879.884 930.59 880.65 929.633 880.65C928.676 880.65 927.91 879.884 927.91 878.926C927.91 877.969 928.676 877.203 929.633 877.203C930.59 877.203 931.356 878.007 931.356 878.926Z" fill="#212444"/>
<path d="M893.481 932.579C893.481 933.537 892.715 934.303 891.758 934.303C890.801 934.303 890.035 933.537 890.035 932.579C890.035 931.622 890.801 930.856 891.758 930.856C892.715 930.856 893.481 931.622 893.481 932.579Z" fill="#212444"/>
<path d="M743.553 744.163C743.553 745.121 742.787 745.887 741.829 745.887C740.872 745.887 740.106 745.121 740.106 744.163C740.106 743.206 740.872 742.44 741.829 742.44C742.787 742.44 743.553 743.206 743.553 744.163Z" fill="#212444"/>
<path d="M751.173 885.667C753.035 885.667 754.543 884.158 754.543 882.297C754.543 880.436 753.035 878.927 751.173 878.927C749.312 878.927 747.803 880.436 747.803 882.297C747.803 884.158 749.312 885.667 751.173 885.667Z" fill="#212444"/>
<path d="M846.021 530.497C846.32 528.66 845.073 526.928 843.236 526.629C841.399 526.331 839.667 527.577 839.368 529.414C839.069 531.252 840.316 532.983 842.153 533.282C843.99 533.581 845.722 532.334 846.021 530.497Z" fill="#212444"/>
<path d="M828.532 315.02C830.393 315.02 831.902 313.511 831.902 311.65C831.902 309.788 830.393 308.28 828.532 308.28C826.67 308.28 825.162 309.788 825.162 311.65C825.162 313.511 826.67 315.02 828.532 315.02Z" fill="#212444"/>
<path d="M1094.3 342.937C1096.17 342.937 1097.67 341.429 1097.67 339.567C1097.67 337.706 1096.17 336.197 1094.3 336.197C1092.44 336.197 1090.93 337.706 1090.93 339.567C1090.93 341.429 1092.44 342.937 1094.3 342.937Z" fill="#212444"/>
<path d="M809.766 618.591C810.866 618.591 811.758 617.7 811.758 616.6C811.758 615.5 810.866 614.608 809.766 614.608C808.667 614.608 807.775 615.5 807.775 616.6C807.775 617.7 808.667 618.591 809.766 618.591Z" fill="white"/>
<path d="M1472.59 596.494C1472.59 597.605 1471.71 598.486 1470.6 598.486C1469.49 598.486 1468.61 597.605 1468.61 596.494C1468.61 595.384 1469.49 594.503 1470.6 594.503C1471.71 594.503 1472.59 595.384 1472.59 596.494Z" fill="#212444"/>
<path d="M1379.8 375.795C1380.9 375.795 1381.79 374.903 1381.79 373.804C1381.79 372.704 1380.9 371.812 1379.8 371.812C1378.7 371.812 1377.81 372.704 1377.81 373.804C1377.81 374.903 1378.7 375.795 1379.8 375.795Z" fill="#212444"/>
<path d="M1079.75 861.272C1079.75 862.383 1078.87 863.263 1077.76 863.263C1076.65 863.263 1075.77 862.383 1075.77 861.272C1075.77 860.162 1076.65 859.281 1077.76 859.281C1078.87 859.281 1079.75 860.162 1079.75 861.272Z" fill="#212444"/>
<path d="M1278.13 720.994C1278.13 722.105 1277.24 722.986 1276.13 722.986C1275.02 722.986 1274.14 722.105 1274.14 720.994C1274.14 719.884 1275.02 719.003 1276.13 719.003C1277.24 719.003 1278.13 719.884 1278.13 720.994Z" fill="#212444"/>
<path d="M897.464 585.848C898.564 585.848 899.455 584.956 899.455 583.857C899.455 582.757 898.564 581.865 897.464 581.865C896.364 581.865 895.473 582.757 895.473 583.857C895.473 584.956 896.364 585.848 897.464 585.848Z" fill="#212444"/>
<path d="M1133.29 528.481C1134.39 528.481 1135.28 527.589 1135.28 526.489C1135.28 525.39 1134.39 524.498 1133.29 524.498C1132.19 524.498 1131.3 525.39 1131.3 526.489C1131.3 527.589 1132.19 528.481 1133.29 528.481Z" fill="#212444"/>
<path d="M1142.21 484.134C1142.21 484.938 1141.56 485.589 1140.76 485.589C1139.95 485.589 1139.3 484.938 1139.3 484.134C1139.3 483.33 1139.95 482.679 1140.76 482.679C1141.56 482.679 1142.21 483.33 1142.21 484.134Z" fill="white"/>
<path d="M1212.33 287.063C1212.33 287.868 1211.68 288.519 1210.88 288.519C1210.07 288.519 1209.42 287.868 1209.42 287.063C1209.42 286.259 1210.07 285.608 1210.88 285.608C1211.68 285.608 1212.33 286.259 1212.33 287.063Z" fill="#212444"/>
<path d="M1100.66 464.91C1101.76 464.91 1102.65 464.018 1102.65 462.918C1102.65 461.818 1101.76 460.927 1100.66 460.927C1099.56 460.927 1098.67 461.818 1098.67 462.918C1098.67 464.018 1099.56 464.91 1100.66 464.91Z" fill="#212444"/>
<path d="M1481.36 393.909C1482.46 393.909 1483.35 393.017 1483.35 391.918C1483.35 390.818 1482.46 389.926 1481.36 389.926C1480.26 389.926 1479.37 390.818 1479.37 391.918C1479.37 393.017 1480.26 393.909 1481.36 393.909Z" fill="#212444"/>
<path d="M1339.59 348.452C1340.69 348.452 1341.58 347.56 1341.58 346.46C1341.58 345.36 1340.69 344.469 1339.59 344.469C1338.49 344.469 1337.6 345.36 1337.6 346.46C1337.6 347.56 1338.49 348.452 1339.59 348.452Z" fill="#212444"/>
<path d="M1272.07 406.585C1273.17 406.585 1274.07 405.693 1274.07 404.594C1274.07 403.494 1273.17 402.602 1272.07 402.602C1270.97 402.602 1270.08 403.494 1270.08 404.594C1270.08 405.693 1270.97 406.585 1272.07 406.585Z" fill="#212444"/>
<path d="M989.26 395.939C989.26 397.049 988.379 397.93 987.268 397.93C986.158 397.93 985.277 397.049 985.277 395.939C985.277 394.828 986.158 393.948 987.268 393.948C988.379 393.948 989.26 394.828 989.26 395.939Z" fill="#212444"/>
<path d="M828.532 376.944C829.631 376.944 830.523 376.052 830.523 374.953C830.523 373.853 829.631 372.961 828.532 372.961C827.432 372.961 826.54 373.853 826.54 374.953C826.54 376.052 827.432 376.944 828.532 376.944Z" fill="#212444"/>
<path d="M828.532 569.189C829.631 569.189 830.523 568.298 830.523 567.198C830.523 566.098 829.631 565.207 828.532 565.207C827.432 565.207 826.54 566.098 826.54 567.198C826.54 568.298 827.432 569.189 828.532 569.189Z" fill="#212444"/>
<path d="M845.956 609.783C848.325 609.783 850.245 607.863 850.245 605.494C850.245 603.125 848.325 601.205 845.956 601.205C843.587 601.205 841.667 603.125 841.667 605.494C841.667 607.863 843.587 609.783 845.956 609.783Z" fill="#212444"/>
<path d="M1191.77 541.195C1194.14 541.195 1196.06 539.275 1196.06 536.906C1196.06 534.537 1194.14 532.617 1191.77 532.617C1189.4 532.617 1187.48 534.537 1187.48 536.906C1187.48 539.275 1189.4 541.195 1191.77 541.195Z" fill="#212444"/>
<path d="M754.544 379.242C756.913 379.242 758.833 377.322 758.833 374.953C758.833 372.584 756.913 370.664 754.544 370.664C752.175 370.664 750.255 372.584 750.255 374.953C750.255 377.322 752.175 379.242 754.544 379.242Z" fill="#212444"/>
<path d="M972.524 908.108C974.893 908.108 976.813 906.188 976.813 903.819C976.813 901.45 974.893 899.53 972.524 899.53C970.155 899.53 968.235 901.45 968.235 903.819C968.235 906.188 970.155 908.108 972.524 908.108Z" fill="#212444"/>
<path d="M1485.64 877.906C1486.02 875.568 1484.43 873.365 1482.09 872.985C1479.75 872.606 1477.55 874.194 1477.17 876.532C1476.79 878.87 1478.38 881.073 1480.72 881.453C1483.06 881.832 1485.26 880.244 1485.64 877.906Z" fill="#212444"/>
<path d="M772.006 804.824C774.375 804.824 776.296 802.904 776.296 800.535C776.296 798.166 774.375 796.246 772.006 796.246C769.638 796.246 767.717 798.166 767.717 800.535C767.717 802.904 769.638 804.824 772.006 804.824Z" fill="#212444"/>
<path d="M1536.55 730.015C1538.61 727.951 1538.61 724.605 1536.55 722.541C1534.49 720.478 1531.14 720.477 1529.08 722.541C1527.01 724.605 1527.01 727.951 1529.08 730.015C1531.14 732.079 1534.49 732.079 1536.55 730.015Z" fill="#212444"/>
<path d="M910.184 841.005C911.946 840.13 912.665 837.993 911.79 836.231C910.915 834.469 908.778 833.75 907.016 834.625C905.254 835.499 904.535 837.637 905.41 839.399C906.285 841.16 908.422 841.879 910.184 841.005Z" fill="#212444"/>
<path d="M1270.58 814.168C1270.58 814.819 1270.05 815.355 1269.39 815.355C1268.74 815.355 1268.21 814.819 1268.21 814.168C1268.21 813.517 1268.74 812.981 1269.39 812.981C1270.05 812.981 1270.58 813.479 1270.58 814.168Z" fill="white"/>
<path d="M1370.46 688.673C1370.46 689.324 1369.92 689.86 1369.27 689.86C1368.62 689.86 1368.08 689.324 1368.08 688.673C1368.08 688.021 1368.62 687.485 1369.27 687.485C1369.92 687.485 1370.46 688.021 1370.46 688.673Z" fill="#212444"/>
<path d="M1408.64 803.79C1408.64 804.441 1408.1 804.977 1407.45 804.977C1406.8 804.977 1406.26 804.441 1406.26 803.79C1406.26 803.139 1406.8 802.603 1407.45 802.603C1408.1 802.603 1408.64 803.139 1408.64 803.79Z" fill="#212444"/>
<path d="M1140.49 758.754C1140.49 759.405 1139.95 759.941 1139.3 759.941C1138.65 759.941 1138.12 759.405 1138.12 758.754C1138.12 758.103 1138.65 757.567 1139.3 757.567C1139.95 757.567 1140.49 758.065 1140.49 758.754Z" fill="#212444"/>
<path d="M1349.01 515.077C1349.01 515.728 1348.47 516.265 1347.82 516.265C1347.17 516.265 1346.64 515.728 1346.64 515.077C1346.64 514.426 1347.17 513.89 1347.82 513.89C1348.47 513.89 1349.01 514.426 1349.01 515.077Z" fill="#212444"/>
<path d="M1314.14 711.12C1195.75 665.643 969.272 580.642 838.593 544.709C655.892 494.449 436.668 389.421 395.558 407.695C354.449 425.97 406.968 473.935 299.62 421.417C192.272 368.899 -170.807 302.664 -307.839 247.854C-333.722 237.502 -360.916 228.61 -388 221.016L-184.737 424.279C-117.163 432.043 -59.4914 439.865 -31.4891 446.547C64.4182 469.369 281.366 544.74 329.328 560.727C377.289 576.714 377.281 544.725 436.647 549.308C496.013 553.89 781.507 674.877 923.11 711.408C1014 734.878 1168.85 780.881 1268.11 810.858L1340.99 737.974L1314.14 711.12Z" fill="url(#paint0_linear_2_19964)"/>
<path d="M1339.12 374.415C1228.53 335.95 1044.9 281.038 952.433 303.54C814.827 337.012 851.495 324.826 741.35 287.981C631.204 251.136 484.339 250.971 511.899 272.416C539.459 293.861 701.613 309.344 781.214 364.499C860.816 419.655 918.978 453.378 1074.97 456.628C1194.95 459.095 1488.7 592.028 1618.02 653.313L1339.12 374.415Z" fill="url(#paint1_linear_2_19964)"/>
<defs>
<linearGradient id="paint0_linear_2_19964" x1="684.27" y1="375.176" x2="583.282" y2="738.682" gradientUnits="userSpaceOnUse">
<stop stop-color="#0F1122" stop-opacity="0"/>
<stop offset="1" stop-color="#161A31"/>
</linearGradient>
<linearGradient id="paint1_linear_2_19964" x1="1190.37" y1="401.583" x2="1118.57" y2="621.431" gradientUnits="userSpaceOnUse">
<stop stop-color="#0F1122" stop-opacity="0"/>
<stop offset="1" stop-color="#161A31"/>
</linearGradient>
</defs>
</svg>
