<svg width="48" height="50" viewBox="0 0 48 50" fill="none" xmlns="http://www.w3.org/2000/svg">
<circle cx="24" cy="25.6553" r="24" fill="#00546F"/>
<circle cx="24" cy="24" r="24" fill="url(#paint0_linear_2_20508)"/>
<ellipse cx="24.0001" cy="24.0001" rx="14.8966" ry="14.8966" fill="#39A1C2"/>
<path d="M19.7202 26.7939L22.1567 23.5908C22.2674 23.4476 22.3521 23.3011 22.4106 23.1514C22.4725 22.9984 22.5034 22.8568 22.5034 22.7266V22.7168C22.5034 22.5247 22.4416 22.3766 22.3179 22.2725C22.1942 22.1683 22.0184 22.1162 21.7905 22.1162C21.5692 22.1162 21.3901 22.1895 21.2534 22.3359C21.1167 22.4792 21.0337 22.6842 21.0044 22.9512V22.9561H19.6323V22.9512C19.6616 22.5085 19.7674 22.1276 19.9497 21.8086C20.1353 21.4896 20.3843 21.2471 20.6968 21.0811C21.0093 20.9118 21.3706 20.8271 21.7808 20.8271C22.2235 20.8271 22.6011 20.9004 22.9136 21.0469C23.2293 21.1901 23.4686 21.4001 23.6313 21.6768C23.7974 21.9535 23.8804 22.2871 23.8804 22.6777V22.6826C23.8804 23.0049 23.8234 23.3255 23.7095 23.6445C23.5988 23.9603 23.4425 24.2467 23.2407 24.5039L21.4927 26.7109H23.9194V28H19.7202V26.7939ZM27.0737 28.0732C26.6929 28.0732 26.3494 27.9902 26.0435 27.8242C25.7407 27.6549 25.4966 27.4108 25.311 27.0918C25.1287 26.7695 25.0229 26.3887 24.9937 25.9492V25.9443H26.3315V25.9492C26.3576 26.2096 26.4373 26.4131 26.5708 26.5596C26.7043 26.7028 26.8784 26.7744 27.0933 26.7744C27.3276 26.7744 27.5083 26.6979 27.6353 26.5449C27.7655 26.3919 27.8306 26.1755 27.8306 25.8955V25.2998C27.8306 25.0199 27.772 24.805 27.6548 24.6553C27.5409 24.5023 27.3797 24.4258 27.1714 24.4258C26.9793 24.4258 26.8149 24.4746 26.6782 24.5723C26.5448 24.6699 26.452 24.8066 26.3999 24.9824H25.1499V20.9004H28.9634V22.1895H26.4878V23.4443C26.5887 23.3467 26.7254 23.2702 26.8979 23.2148C27.0737 23.1562 27.2479 23.127 27.4204 23.127C27.7882 23.127 28.1024 23.2116 28.3628 23.3809C28.6265 23.5501 28.8267 23.7975 28.9634 24.123C29.1001 24.4486 29.1685 24.8408 29.1685 25.2998V25.8955C29.1685 26.3545 29.0854 26.7467 28.9194 27.0723C28.7567 27.3978 28.519 27.6468 28.2065 27.8193C27.894 27.9886 27.5164 28.0732 27.0737 28.0732Z" fill="white"/>
<g opacity="0.15">
<path d="M19.9274 3.73033C19.8372 3.26701 20.1357 2.81582 20.5976 2.743C22.7959 2.3964 25.0341 2.39589 27.2325 2.74149C27.6944 2.8141 27.9931 3.26516 27.9031 3.72852L27.4359 6.13477C27.346 6.59814 26.9014 6.89792 26.4388 6.82965C24.7658 6.5827 23.066 6.58308 21.3931 6.83079C20.9306 6.89928 20.4858 6.59969 20.3957 6.13637L19.9274 3.73033Z" fill="white"/>
<path d="M33.026 5.32625C33.2227 4.89787 33.7267 4.71011 34.1428 4.92542C36.1229 5.95024 37.9339 7.27877 39.5114 8.86368C39.8428 9.19667 39.822 9.73896 39.4796 10.0604L37.7015 11.7297C37.3591 12.0512 36.825 12.0297 36.4905 11.6998C35.2807 10.5067 33.9053 9.49774 32.4077 8.70483C31.9937 8.48562 31.8082 7.97919 32.0049 7.55082L33.026 5.32625Z" fill="white"/>
<path d="M42.3186 13.9849C42.7269 13.7551 43.244 13.9024 43.4553 14.3237C44.4609 16.3284 45.153 18.4786 45.507 20.6974C45.5813 21.1636 45.249 21.59 44.7849 21.6467L42.3751 21.9414C41.911 21.9982 41.4914 21.6637 41.4127 21.1982C41.1282 19.5146 40.6026 17.8817 39.8524 16.3511C39.645 15.9279 39.7897 15.4081 40.198 15.1783L42.3186 13.9849Z" fill="white"/>
<path d="M44.1375 26.8666C44.6016 26.9231 44.9341 27.3494 44.86 27.8156C44.507 30.0346 43.8158 32.185 42.8111 34.1902C42.6 34.6115 42.083 34.7592 41.6746 34.5295L39.5535 33.3371C39.145 33.1075 39.0001 32.5877 39.2073 32.1645C39.9569 30.6335 40.4817 29.0003 40.7655 27.3166C40.8439 26.8511 41.2634 26.5164 41.7275 26.573L44.1375 26.8666Z" fill="white"/>
<path d="M38.6479 38.4775C38.9905 38.7988 39.0115 39.3411 38.6802 39.6743C37.1035 41.2599 35.293 42.5892 33.3133 43.615C32.8974 43.8305 32.3933 43.6429 32.1964 43.2146L31.1743 40.9905C30.9774 40.5622 31.1627 40.0557 31.5766 39.8363C33.0738 39.0427 34.4488 38.0332 35.6581 36.8395C35.9924 36.5095 36.5265 36.4878 36.869 36.8091L38.6479 38.4775Z" fill="white"/>
<path d="M27.5333 44.2695C27.6235 44.7328 27.325 45.184 26.8631 45.2568C24.6649 45.6034 22.4266 45.6039 20.2282 45.2583C19.7664 45.1857 19.4676 44.7347 19.5576 44.2713L20.0248 41.865C20.1148 41.4017 20.5593 41.1019 21.0219 41.1702C22.6949 41.4171 24.3947 41.4167 26.0676 41.169C26.5302 41.1005 26.9749 41.4001 27.0651 41.8634L27.5333 44.2695Z" fill="white"/>
<path d="M15.3258 42.7821C15.1292 43.2105 14.6251 43.3983 14.2091 43.183C12.229 42.1582 10.418 40.8296 8.8405 39.2447C8.50908 38.9117 8.52985 38.3694 8.87225 38.048L10.6504 36.3787C10.9928 36.0572 11.5269 36.0787 11.8614 36.4085C13.0712 37.6017 14.4466 38.6107 15.9442 39.4036C16.3582 39.6228 16.5436 40.1292 16.347 40.5576L15.3258 42.7821Z" fill="white"/>
<path d="M6.03327 34.1235C5.62492 34.3533 5.10787 34.2059 4.89658 33.7847C3.89096 31.78 3.19884 29.6298 2.84488 27.411C2.77051 26.9448 3.10286 26.5184 3.56692 26.4617L5.97678 26.167C6.44083 26.1102 6.86047 26.4447 6.93912 26.9102C7.22362 28.5938 7.74924 30.2267 8.49943 31.7573C8.70683 32.1805 8.5622 32.7003 8.15384 32.9301L6.03327 34.1235Z" fill="white"/>
<path d="M3.21573 22.0334C2.75165 21.9769 2.41911 21.5506 2.49327 21.0844C2.84625 18.8654 3.53741 16.715 4.54214 14.7098C4.75323 14.2885 5.27022 14.1408 5.67867 14.3705L7.79978 15.5629C8.20823 15.7925 8.3531 16.3123 8.14589 16.7355C7.39638 18.2665 6.87148 19.8997 6.58774 21.5834C6.50929 22.0489 6.0898 22.3836 5.62572 22.3271L3.21573 22.0334Z" fill="white"/>
<path d="M8.70532 10.4225C8.36277 10.1012 8.34176 9.55889 8.67303 9.22575C10.2498 7.64012 12.0602 6.31077 14.0399 5.28506C14.4558 5.06955 14.96 5.25709 15.1568 5.68537L16.179 7.90948C16.3758 8.33777 16.1905 8.84428 15.7766 9.06368C14.2794 9.85726 12.9045 10.8668 11.6952 12.0605C11.3608 12.3906 10.8267 12.4122 10.4842 12.091L8.70532 10.4225Z" fill="white"/>
</g>
<defs>
<linearGradient id="paint0_linear_2_20508" x1="24" y1="0" x2="24" y2="48" gradientUnits="userSpaceOnUse">
<stop stop-color="#0C87AE"/>
<stop offset="1" stop-color="#01799E"/>
</linearGradient>
</defs>
</svg>
