<svg width="1535" height="940" viewBox="0 0 1535 940" fill="none" xmlns="http://www.w3.org/2000/svg">
<g clip-path="url(#clip0_10_49426)">
<path d="M1584.72 700.39C1556.38 686.477 1542.33 679.585 1536.87 673.734C1502.28 635.895 1590.44 559.696 1564.96 491.95C1540.25 426.415 1423.48 407.95 1411.13 406.13C1369.91 400.019 1361.85 410.421 1292.15 403.399C1235.2 397.678 1206.2 394.427 1182.8 374.142C1153.93 349.306 1166.41 324.861 1135.6 286.502C1114.27 259.845 1087.35 245.672 1068.37 238C1072.01 243.851 1077.08 253.604 1078.12 266.217C1079.03 277.269 1076.56 285.591 1075.52 289.232C1073.05 297.944 1055.5 359.189 1079.42 393.387C1086.44 403.399 1095.29 408.861 1101.92 412.892C1134.69 432.916 1158.09 418.613 1183.97 428.885C1218.04 442.539 1239.88 492.08 1237.28 531.22C1233.9 582.842 1189.3 594.415 1191.9 644.347C1193.85 680.235 1218.43 704.681 1221.94 708.062C1249.89 735.108 1287.99 737.059 1356.78 740.309C1420.62 743.43 1432.33 734.588 1453.65 749.151C1468.21 759.034 1481.09 775.678 1512.95 789.851C1518.67 792.452 1525.56 796.223 1535.31 798.173C1571.72 805.455 1589.66 786.6 1629.06 796.873C1655.59 803.764 1674.44 819.368 1686.41 831.851C1685.37 813.517 1680.82 785.04 1662.22 757.083C1652.21 742.13 1641.81 732.638 1638.95 730.167C1622.95 716.124 1610.08 712.743 1584.72 700.39Z" fill="#101326"/>
<path d="M107.333 786.489C76.3859 771.405 61.0423 763.863 55.0609 757.362C17.3519 716.012 113.575 632.922 85.7482 559.065C58.7018 487.548 -68.5985 467.393 -82.2517 465.443C-127.242 458.811 -136.085 470.124 -212.153 462.452C-274.307 456.21 -305.905 452.569 -331.521 430.594C-363.119 403.418 -349.465 376.891 -383.143 334.891C-406.419 305.765 -435.806 290.291 -456.481 281.839C-452.45 288.21 -446.988 298.873 -445.948 312.656C-444.908 324.749 -447.769 333.851 -448.809 337.752C-451.41 347.374 -470.654 414.08 -444.518 451.399C-436.846 462.322 -427.224 468.303 -420.072 472.594C-384.314 494.439 -358.828 478.836 -330.481 490.018C-293.292 504.842 -269.366 558.935 -272.227 601.715C-275.998 658.148 -324.629 670.631 -321.769 725.244C-319.688 764.384 -292.772 791.17 -289.001 794.811C-258.444 824.458 -216.964 826.408 -141.806 830.049C-72.1093 833.43 -59.3663 823.808 -36.0908 839.802C-20.227 850.594 -6.18365 868.798 28.5346 884.272C34.7761 887.133 42.3179 891.294 52.8504 893.374C92.6398 901.306 112.144 880.761 155.185 891.944C184.052 899.486 204.726 916.52 217.86 930.173C216.819 910.148 211.748 879.071 191.463 848.514C180.541 832.13 169.228 821.857 166.107 819.127C148.943 803.783 134.9 800.012 107.333 786.489Z" fill="#101326"/>
<path fill-rule="evenodd" clip-rule="evenodd" d="M1019.55 620.53C1056.34 631.889 1097.37 644.56 1143.42 685.845C1210.13 745.659 1238.86 822.117 1252.91 874C1193.48 836.291 1142.12 820.687 1106.36 813.275C1069.6 805.656 1047.62 806.473 1027.72 807.213C1004.82 808.064 984.651 808.814 947.853 796.501C924.595 788.684 897.398 780.581 858.714 769.055C845.275 765.051 830.449 760.633 813.921 755.672C782.958 746.324 765.066 752.511 724.419 766.565C701.737 774.408 671.968 784.701 628.887 796.111C499.246 830.439 427.599 849.294 359.723 815.486C351.401 811.325 291.327 780.378 266.621 714.972C248.81 667.857 260.529 632.414 272.686 595.644C284.05 561.276 295.797 525.749 284.175 478.446C265.971 404.198 196.274 325.269 125.017 320.068C102.314 318.38 83.0305 324.466 62.9474 330.804C35.0651 339.603 5.64204 348.888 -36.6112 338.532C-51.1746 335.022 -70.6793 330.08 -89.6638 315.647C-96.8021 310.193 -103.192 303.825 -108.912 296.79C-89.4635 304.96 -67.8443 307.838 -46.8837 310.576C-3.94075 316.271 23.106 310.396 55.0137 303.466C77.0179 298.687 101.334 293.406 134.77 291.071C194.844 286.91 240.225 283.789 287.036 306.415C355.952 339.703 416.286 423.312 407.574 501.201C402.597 545.536 376.751 575.373 354.642 600.894C333.437 625.374 315.67 645.884 323.054 671.411C334.757 711.851 399.903 730.445 439.692 734.476C500.177 740.65 540.727 717.27 580.324 694.44C619.127 672.067 657.014 650.223 711.847 657.238C742.27 661.143 755.82 671.09 771.962 682.939C789.144 695.552 809.263 710.32 855.791 722.253C891.496 731.401 920.05 729.031 947.931 726.716C981.48 723.931 1014.06 721.227 1056.95 738.767C1068.91 743.659 1080.46 749.463 1090.13 754.322C1104.11 761.348 1114.16 766.4 1115.85 763.863C1118.97 759.312 1092.97 734.476 1070.99 717.832C1032.72 688.851 999.877 682.278 971.966 676.69C950.286 672.35 931.579 668.606 915.605 655.418C859.793 609.479 857.232 533.067 855.014 466.866C853.113 410.142 851.463 360.914 816.782 344.774C793.148 333.813 766.934 344.105 735.322 356.515C694.926 372.374 645.716 391.693 581.816 374.551C578.045 373.511 561.661 368.959 541.246 359.467C499.897 340.207 480.068 318.924 461.635 299.14C444.477 280.724 428.53 263.608 397.562 250.631C365.054 236.978 337.228 236.718 306.93 236.458C263.198 236.068 238.601 244.917 211.733 254.583C193.863 261.012 174.989 267.802 148.813 272.477C127.878 276.247 6.94911 295.492 -85.1128 225.145C-124.804 194.995 -146.448 158 -157.717 134.129C-157.907 130.114 -157.997 127.039 -158.054 125.109L-158.06 124.892C-158.071 124.597 -158.081 124.286 -158.092 123.96C-158.354 116.227 -158.912 99.7708 -166.772 80.6811C-176.134 57.9257 -191.218 42.7121 -201.36 34C-161.571 37.1207 -103.447 47.6532 -48.0539 84.582C-9.35574 110.402 8.4706 136.068 24.382 158.978C41.2442 183.256 55.9557 204.438 91.0792 219.424C146.472 243.09 202.126 232.037 311.091 209.282C382.383 194.342 418.14 180.554 448.185 168.969C474.365 158.874 496.208 150.451 533.444 144.396C557.5 140.495 784.924 106.037 869.444 213.183C911.302 266.241 903.039 326.766 894.77 387.329C886.239 449.809 877.703 512.33 924.187 566.737C952.481 599.82 984.037 609.564 1019.55 620.53Z" fill="#101326"/>
<g opacity="0.6">
<path d="M1340.83 146.03C1336.8 151.142 1331.02 155.143 1328.72 161.425C1326.78 166.702 1327.79 172.837 1329.96 177.872C1332.51 183.736 1338.04 187.27 1340.83 192.949C1342.15 195.65 1342.3 198.738 1343.23 201.565C1344.18 204.447 1345.55 206.973 1347.56 209.25C1350.97 213.111 1356.14 215.629 1361.12 216.676C1364.02 217.282 1366.94 217.726 1369.79 218.572C1372.61 219.407 1375.22 220.831 1378.02 221.699C1382.63 223.118 1387.67 223.002 1392.3 221.758C1394.41 221.2 1396.01 219.511 1397.5 218.006C1397.79 217.717 1398.08 217.445 1398.4 217.192C1403.41 215.397 1408.82 215.15 1413.94 213.405C1420.02 211.334 1424.46 206.333 1427.67 200.96C1430.94 195.456 1430.78 188.346 1430.05 182.165C1429.66 178.798 1429.58 175.419 1428.99 172.063C1428.44 168.887 1429.33 165.678 1429.54 162.5C1429.94 156.386 1426.4 151.982 1420.86 149.763C1417.99 148.616 1414.94 148.005 1412.02 147.017C1408.06 145.676 1405.26 142.893 1402.58 139.827C1397.94 134.534 1392.76 130.55 1386.3 127.715C1381.02 125.387 1375.05 123.349 1369.26 122.959C1355.45 122.058 1348.07 136.851 1340.83 146.03Z" fill="url(#paint0_radial_10_49426)"/>
<path opacity="0.35" d="M1341.01 145.813C1336.95 150.905 1331.15 154.861 1328.81 161.14C1326.84 166.406 1327.81 172.554 1329.96 177.591C1332.48 183.475 1337.99 187.045 1340.74 192.729C1342.04 195.432 1342.18 198.531 1343.09 201.36C1344.02 204.244 1345.38 206.788 1347.39 209.066C1350.79 212.944 1355.94 215.489 1360.91 216.561C1363.82 217.183 1366.74 217.643 1369.57 218.506C1372.38 219.366 1374.99 220.799 1377.79 221.683C1382.4 223.125 1387.44 223.035 1392.09 221.82C1394.2 221.269 1395.8 219.589 1397.31 218.097C1397.59 217.808 1397.89 217.542 1398.2 217.283C1403.22 215.52 1408.64 215.295 1413.76 213.582C1419.85 211.542 1424.33 206.568 1427.55 201.208C1430.86 195.716 1430.74 188.608 1430.04 182.423C1429.66 179.054 1429.61 175.68 1429.04 172.321C1428.5 169.143 1429.41 165.932 1429.64 162.758C1430.08 156.647 1426.56 152.215 1421.04 149.97C1418.18 148.805 1415.13 148.172 1412.21 147.166C1408.28 145.807 1405.48 143.006 1402.82 139.922C1398.21 134.593 1393.05 130.598 1386.6 127.72C1381.34 125.375 1375.38 123.287 1369.59 122.881C1355.75 121.92 1348.28 136.677 1341.01 145.813ZM1346.48 176.416C1348.05 175.782 1349.77 176.265 1351.34 176.639C1353.68 177.196 1355.75 177.325 1358.06 176.498C1360.39 175.67 1362.59 174.49 1364.84 173.464C1366.55 172.689 1368.49 171.666 1370.43 171.734C1371.63 171.784 1372.76 172.147 1373.95 172.214C1375.65 172.322 1376.45 171.362 1377.62 170.365C1378.96 169.234 1380.16 169.212 1381.71 169.925C1386.12 171.948 1391.43 172.46 1395.69 169.906C1392.3 169.134 1388.57 168.451 1386.46 165.466C1386.25 165.151 1386.55 164.757 1386.9 164.884C1391.08 166.37 1397.34 164.868 1400.76 162.117C1402.24 160.917 1405.58 156.671 1407.9 158.72C1409.28 159.947 1409.84 161.823 1410.91 163.287C1412.35 165.306 1414.22 167.169 1416.71 167.801C1417.95 168.117 1419.71 167.776 1420.66 168.743C1421.89 169.998 1420.35 172.183 1422 173.348C1423.21 174.19 1424.53 174.68 1424.95 176.239C1425.37 177.783 1425.48 179.355 1425.7 180.927C1426.26 184.943 1427.34 189.121 1427.31 193.188C1427.27 198.491 1424.33 203.603 1420.66 207.27C1419.61 208.322 1418.43 209.312 1417.19 210.149C1414.17 212.187 1410.56 213.13 1406.98 213.579C1405.1 213.816 1403.24 213.49 1401.37 213.414C1398.53 213.295 1397.53 215.173 1396.03 217.217C1395.85 217.458 1395.35 217.382 1395.35 217.039C1395.28 215.261 1396.01 213.701 1396.69 212.116C1394.34 214.263 1391.57 216.771 1388.27 216.132C1387.34 215.956 1385.21 215.748 1384.67 214.852C1383.98 213.698 1384.06 212.302 1383.83 210.995C1383.24 212.64 1382.8 214.352 1382.14 215.99C1382.06 216.194 1381.84 216.272 1381.65 216.195C1379.97 215.674 1378.24 216.981 1376.62 216.333C1375.99 216.084 1375.45 215.718 1374.94 215.292C1374.98 215.783 1375.03 216.273 1375.13 216.772C1375.2 217.075 1374.87 217.249 1374.61 217.181C1373.5 216.862 1372.35 216.413 1371.19 216.351C1371.7 216.784 1372.27 217.154 1372.82 217.558C1373.2 217.826 1372.84 218.317 1372.46 218.21C1366.1 216.56 1359.43 216.302 1353.82 212.554C1351.93 211.287 1349.74 209.355 1349.94 206.835C1350.08 205.093 1352.71 203.069 1354.05 202.242C1354.34 202.065 1354.81 202.312 1354.63 202.681C1354.12 203.699 1353.51 204.648 1352.88 205.593C1353.76 204.838 1354.69 204.132 1355.73 203.595C1355.91 203.497 1356.15 203.617 1356.22 203.799C1356.81 205.159 1357.39 206.537 1357.94 207.927C1358.02 207.62 1358.1 207.312 1358.16 206.998C1358.24 206.675 1358.77 206.498 1358.89 206.898C1359.35 208.444 1361.34 211.678 1363.38 211.153C1365.25 210.678 1364.65 207.443 1365.03 206.028C1365.08 205.877 1365.28 205.761 1365.43 205.796C1367.94 206.281 1370.86 208.11 1373.38 207.015C1371.89 204.825 1369.08 203.414 1366.82 202.254C1365.74 201.691 1364.64 201.146 1363.55 200.616C1363.02 200.354 1362.2 200.074 1361.95 199.476C1361.3 197.916 1363.7 196.661 1364.79 196.236C1366.41 195.603 1368.04 195.072 1369.52 194.29C1369.59 194.207 1369.68 194.122 1369.74 194.026C1366.91 193.162 1363.95 194.543 1361.05 194.465C1360.8 194.459 1360.67 194.158 1360.74 193.947C1360.96 193.324 1361.38 192.784 1361.75 192.245C1362 191.848 1362.3 191.454 1362.5 191.026C1362.82 190.341 1362.2 190.082 1361.63 190.457C1360.46 191.254 1359.43 192.407 1358.11 192.999C1357.43 193.301 1356.58 193.5 1356.15 192.711C1355.47 191.467 1355.55 190.165 1354.51 189.18C1354.26 189.96 1354.26 190.737 1354.31 191.588C1354.33 192.073 1353.66 192.167 1353.56 191.684C1352.9 188.579 1351.78 185.553 1349.91 182.96C1348.54 181.051 1346.94 179.197 1346.23 176.925C1346.23 176.716 1346.29 176.492 1346.48 176.416Z" fill="#171B34"/>
<path d="M1417.6 154.538C1419.32 156.505 1419.75 159.024 1418.68 160.496C1418.87 160.406 1419.02 160.313 1419.18 160.179C1420.71 158.841 1420.4 155.981 1418.49 153.795C1416.58 151.609 1413.79 150.928 1412.26 152.266C1412.1 152.4 1411.97 152.555 1411.88 152.714C1413.44 151.81 1415.88 152.57 1417.6 154.538Z" fill="#171B34"/>
<path d="M1412.92 158.628C1414.81 160.789 1417.39 161.626 1418.68 160.496C1419.97 159.366 1419.49 156.698 1417.6 154.537C1415.71 152.376 1413.13 151.54 1411.84 152.67C1410.55 153.799 1411.03 156.467 1412.92 158.628Z" fill="#0B0D19"/>
<path d="M1426.63 170.151C1426.32 170.686 1425.89 171.069 1425.38 171.282C1426.07 171.102 1426.68 170.648 1427.07 169.995C1427.82 168.687 1427.35 167.01 1426.04 166.263C1425.25 165.799 1424.32 165.798 1423.58 166.14C1424.25 165.979 1424.99 166.028 1425.64 166.422C1426.91 167.165 1427.37 168.843 1426.63 170.151Z" fill="#171B34"/>
<path d="M1423.3 171.019C1423.93 171.391 1424.69 171.462 1425.36 171.301C1425.86 171.088 1426.32 170.687 1426.6 170.17C1427.35 168.862 1426.89 167.185 1425.58 166.438C1424.94 166.067 1424.19 165.995 1423.52 166.156C1423.01 166.369 1422.55 166.771 1422.27 167.287C1421.52 168.595 1421.99 170.273 1423.3 171.019Z" fill="#0B0D19"/>
<path opacity="0.6" d="M1398.99 212.951C1401.17 212.953 1403.26 212.413 1405.47 212.435C1407.29 212.462 1409.06 212.28 1410.85 211.912C1414.94 211.07 1418.33 208.804 1421.09 205.743C1424.06 202.47 1425.65 198.323 1426.01 193.969C1426.21 191.561 1425.88 189.227 1425.62 186.851C1425.43 184.972 1425.45 183.046 1424.81 181.252C1424.76 181.121 1424.4 181.156 1424.42 181.313C1425.18 189.229 1425.9 197.206 1421.13 204.08C1418.56 207.779 1414.84 210.162 1410.51 211.293C1408.64 211.778 1406.65 211.838 1404.73 211.92C1402.76 212.018 1400.92 212.683 1398.98 212.792C1398.82 212.798 1398.85 212.946 1398.99 212.951Z" fill="#0B0D19"/>
<path opacity="0.7" d="M1331.55 166.136C1330.86 166.993 1330.88 168.769 1330.77 169.658C1330.46 172.321 1330.77 175.106 1331.96 177.506C1332.42 178.451 1333.52 180.109 1334.74 180.444C1335.45 180.995 1336.52 181.311 1337.27 181.735C1338.5 182.423 1339.5 183.517 1340.55 184.437C1340.59 184.471 1340.78 184.47 1340.74 184.386C1340.23 182.47 1337.96 181.255 1336.01 180.5C1336.41 180.349 1336.68 179.991 1336.86 179.541C1337.78 179.91 1338.84 180.067 1339.68 180.544C1339.74 180.575 1339.95 180.513 1339.86 180.439C1339.03 179.8 1338 179.455 1337.02 179.029C1337.25 178.173 1337.25 177.162 1337.28 176.59C1337.31 175.993 1337.28 175.38 1337.21 174.765C1337.31 174.758 1337.41 174.752 1337.52 174.746C1337.57 174.739 1337.61 174.748 1337.66 174.757C1337.67 174.764 1337.79 174.771 1337.73 174.764C1337.78 174.774 1337.84 174.765 1337.86 174.722C1337.92 174.586 1337.55 174.548 1337.19 174.542C1337.19 174.439 1337.17 174.338 1337.16 174.235C1337.38 174.245 1337.59 174.239 1337.81 174.289C1337.94 174.318 1338.16 174.151 1337.96 174.108C1337.69 174.048 1337.41 174.016 1337.13 174.006C1337.09 173.747 1337.06 173.496 1337.01 173.246C1337.49 173.307 1338 173.324 1338.48 173.362C1338.95 173.393 1339.4 173.354 1339.86 173.322C1340.27 173.297 1340.85 173.088 1341.27 173.166C1341.31 173.168 1341.44 173.126 1341.37 173.072C1341.24 172.962 1341.2 173 1341.02 173.017C1340.4 173.071 1339.79 173.084 1339.17 173.106C1338.4 173.133 1337.66 172.964 1336.91 172.851C1336.79 172.323 1336.66 171.804 1336.5 171.289C1336.59 171.269 1336.68 171.256 1336.76 171.245C1337.66 171.08 1338.54 170.774 1339.4 170.485C1339.55 170.432 1339.45 170.31 1339.33 170.343C1338.55 170.556 1337.77 170.76 1336.98 170.894C1336.79 170.929 1336.59 170.948 1336.39 170.968C1336.2 170.386 1335.98 169.814 1335.75 169.27C1336.36 169.032 1336.95 168.615 1337.51 168.368C1337.69 168.288 1337.46 168.19 1337.37 168.228C1336.95 168.39 1336.55 168.566 1336.15 168.758C1335.98 168.838 1335.79 168.896 1335.62 168.96C1335.47 168.652 1335.34 168.342 1335.18 168.042C1334.97 167.631 1334.67 167.104 1334.3 166.659C1335.47 166.456 1336.65 165.507 1337.47 164.704C1337.59 164.583 1337.27 164.539 1337.19 164.591C1336.63 164.988 1336.03 165.32 1335.42 165.614C1334.96 165.83 1334.39 165.99 1334 166.316C1333.79 166.113 1333.57 165.935 1333.33 165.808C1334.61 164.933 1335.7 163.483 1336.47 162.318C1336.58 162.159 1336.25 162.133 1336.16 162.225C1334.81 163.751 1333.19 164.762 1331.64 166.042C1331.58 166.051 1331.56 166.103 1331.55 166.136ZM1333.15 166.771C1333.09 166.827 1333.01 166.878 1332.97 166.916C1332.91 166.956 1332.89 167.024 1332.91 167.084C1332.92 167.107 1332.93 167.114 1332.94 167.136C1332.17 168.013 1332.91 173.359 1333.02 173.824C1333.21 174.583 1334.58 179.009 1335.71 179.116C1335.37 179.58 1334.89 179.751 1334.17 178.985C1333.1 177.836 1332.48 176.44 1332.08 174.925C1331.44 172.514 1331.63 169.771 1332.12 167.355C1332.3 166.4 1332.71 166.399 1333.15 166.771Z" fill="#0B0D19"/>
<path opacity="0.7" d="M1371.05 129.673C1372.62 130.121 1374.19 130.471 1375.79 130.778C1377.4 131.082 1379.19 131.444 1380.93 131.482C1382.15 131.769 1383.57 131.772 1384.57 131.32C1386.24 130.559 1384.04 129.062 1383.25 128.604C1380.72 127.103 1377.62 126.373 1374.75 125.922C1372.59 125.589 1369.23 125.224 1367.17 126.103C1363.83 127.56 1370.1 129.398 1371.05 129.673Z" fill="#0C0E16"/>
<g opacity="0.7">
<path opacity="0.7" d="M1415.49 202.411C1415.61 202.499 1415.74 202.584 1415.86 202.672C1416.01 202.796 1416.01 202.9 1416.08 203.05C1416.13 203.147 1416.31 203.123 1416.38 203.081C1416.8 202.79 1415.97 202.376 1415.78 202.243C1415.68 202.169 1415.34 202.296 1415.49 202.411Z" fill="#0B0D19"/>
</g>
<path opacity="0.7" d="M1359.29 142.815C1359.65 143.045 1360.16 143.047 1360.57 143.006C1361 142.954 1361.46 142.826 1361.75 142.497C1361.83 142.414 1361.87 142.257 1361.8 142.162C1361.56 141.843 1361.23 141.704 1360.82 141.68C1360.49 141.654 1359.8 141.719 1359.61 142.089C1359.48 142.156 1359.35 142.229 1359.25 142.317C1359.04 142.473 1359.08 142.668 1359.29 142.815Z" fill="#0B0D19"/>
<path opacity="0.7" d="M1343.94 148.266C1343.85 149.305 1344.85 149.911 1345.79 149.82C1346.61 149.738 1347.28 149.422 1347.94 149.033C1348.96 148.658 1349.94 148.017 1350.38 147.548C1350.72 147.187 1351.05 146.677 1351.25 146.137C1351.3 146.058 1351.34 145.98 1351.38 145.895C1351.84 144.949 1351.33 143.681 1350.21 143.62C1349.52 143.283 1348.73 143.249 1347.94 143.439C1345.87 143.927 1344.13 146.213 1343.94 148.266Z" fill="#0C0E16"/>
<path opacity="0.7" d="M1342.18 154.434C1342.17 154.611 1342.31 154.72 1342.46 154.787C1342.71 154.905 1343.08 154.877 1343.25 154.622C1343.33 154.571 1343.39 154.506 1343.47 154.439C1343.58 154.336 1343.49 154.187 1343.38 154.131C1343.22 154.041 1343.03 154.067 1342.87 154.129C1342.85 154.14 1342.83 154.151 1342.81 154.153C1342.77 154.151 1342.74 154.14 1342.7 154.137C1342.5 154.116 1342.18 154.185 1342.18 154.434Z" fill="#0B0D19"/>
<path opacity="0.7" d="M1344.73 183.882C1344.78 184.54 1345.38 185.105 1346.06 185.027C1346.11 185.083 1346.28 185.059 1346.31 184.983C1346.32 184.974 1346.32 184.974 1346.32 184.958C1346.56 184.861 1346.73 184.661 1346.61 184.365C1346.57 184.266 1346.52 184.169 1346.46 184.081C1346.42 183.742 1346.27 183.434 1345.99 183.208C1345.46 182.802 1344.68 183.215 1344.73 183.882Z" fill="#0B0D19"/>
<path opacity="0.6" d="M1351.14 208.824C1355.5 214.1 1362.82 215.782 1369.33 216.777C1369.47 216.797 1369.63 216.639 1369.45 216.568C1366.42 215.547 1363.27 214.935 1360.22 213.884C1356.84 212.72 1353.98 211.113 1351.36 208.721C1351.29 208.651 1351.05 208.7 1351.14 208.824Z" fill="#0B0D19"/>
<path opacity="0.7" d="M1372.85 217.482C1373.24 217.605 1374.13 218.45 1374.93 218.828C1374.8 219.447 1376.2 219.885 1376.66 220.022C1379.23 220.795 1381.75 221.534 1384.43 221.746C1385.73 221.854 1386.86 221.784 1387.98 221.573C1389.68 221.465 1391.66 221.149 1392.53 220.075L1392.54 220.066C1392.76 219.851 1392.92 219.565 1393.07 219.312C1393.28 218.937 1393.68 218.681 1393.87 218.271C1393.95 218.091 1393.57 218.112 1393.48 218.204C1393.2 218.515 1392.8 218.772 1392.46 219.011C1392.37 219.08 1392.29 219.172 1392.21 219.27C1391.82 219.019 1391.24 218.804 1390.75 218.64C1390.81 218.519 1390.87 218.399 1390.93 218.262C1391.12 217.852 1391.36 217.473 1391.6 217.088C1391.8 216.739 1392.06 216.102 1392.4 215.838C1392.6 215.682 1392.24 215.564 1392.12 215.637C1391.53 215.943 1391.1 216.628 1390.65 217.107C1390.37 217.411 1390.14 217.716 1389.92 218.074C1389.86 218.179 1389.79 218.269 1389.71 218.36C1388.07 217.939 1386.3 217.784 1384.55 217.73C1384.55 217.674 1384.56 217.609 1384.56 217.553C1384.6 217.131 1384.64 216.716 1384.71 216.29C1384.75 216.117 1384.41 216.116 1384.36 216.259C1384.23 216.645 1384.12 217.022 1384.04 217.416C1384.03 217.515 1384.01 217.614 1383.98 217.706C1383.87 217.705 1383.77 217.703 1383.67 217.693C1383.71 217.334 1383.73 216.955 1383.79 216.65C1383.95 215.827 1384.16 214.988 1384.18 214.144C1384.18 213.984 1383.85 214.021 1383.81 214.14C1383.51 214.958 1383.09 215.713 1382.85 216.557C1382.77 216.857 1382.63 217.276 1382.56 217.687C1382.15 217.688 1381.73 217.69 1381.33 217.698C1380.97 217.692 1380.61 217.718 1380.24 217.736C1379.23 217.717 1378.23 217.76 1377.24 217.858C1377.16 217.869 1377.08 217.879 1377.01 217.913C1376.86 217.757 1376.68 217.615 1376.54 217.473C1376.21 217.111 1375.93 216.701 1375.62 216.311C1375.53 216.203 1375.17 216.278 1375.26 216.443C1375.52 216.926 1375.78 217.715 1376.23 218.166C1376.18 218.172 1376.14 218.179 1376.11 218.183C1376.05 218.143 1375.98 218.104 1375.92 218.073C1375.62 217.899 1375.41 217.575 1375.17 217.336C1375.12 217.286 1374.91 217.323 1374.97 217.396C1375.15 217.659 1375.31 217.965 1375.52 218.208C1374.69 217.875 1373.88 217.331 1372.98 217.256C1372.83 217.244 1372.62 217.409 1372.85 217.482ZM1376.28 218.752C1376.33 218.793 1376.47 218.782 1376.48 218.717C1376.41 219.143 1384.35 220.179 1384.91 220.197C1386.77 220.267 1388.89 220.461 1390.78 220.142C1390.67 220.301 1390.53 220.474 1390.35 220.666C1390.33 220.677 1390.32 220.679 1390.28 220.684C1386.9 221.419 1383.67 221.379 1380.28 220.455C1379.12 220.137 1377.95 219.777 1376.79 219.434C1375.85 219.157 1375.86 218.923 1376.28 218.752Z" fill="#0B0D19"/>
<path d="M1347.13 162.343C1351.24 163.438 1356.87 163.201 1359.94 159.865C1359.9 160.135 1359.91 160.382 1359.94 160.626C1359.17 161.551 1358.42 162.457 1357.42 163.196C1357.3 163.286 1357.52 163.343 1357.6 163.291C1358.49 162.727 1359.32 162.018 1360.06 161.226C1360.36 162.155 1361.07 162.889 1362.02 163.535C1362.65 164.08 1363.33 164.514 1364.07 164.86C1363.77 165.535 1363.45 166.189 1362.95 166.843C1362.25 167.774 1360.7 169.432 1359.47 169.667C1359.28 169.709 1359.37 169.865 1359.52 169.861C1360.97 169.803 1362.37 168.414 1363.34 167.462C1363.73 167.079 1364.56 166.162 1365.04 165.255C1366.27 165.693 1367.59 165.933 1368.98 166.093C1370.81 166.296 1372.65 166.377 1374.47 166.291C1374.49 166.408 1374.52 166.525 1374.53 166.644C1374.57 167.03 1374.62 167.417 1374.65 167.805C1374.68 168.194 1374.73 168.571 1374.84 168.949C1374.93 169.272 1375.1 169.594 1375.15 169.931C1375.17 170.072 1375.5 170.051 1375.49 169.907C1375.49 169.62 1375.39 169.368 1375.35 169.094C1375.28 168.647 1375.24 168.227 1375.24 167.772C1375.23 167.347 1375.21 166.918 1375.19 166.487C1375.19 166.4 1375.19 166.328 1375.19 166.256C1375.38 166.237 1375.57 166.21 1375.75 166.193C1375.79 166.317 1375.81 166.434 1375.82 166.553C1375.87 166.883 1375.88 167.217 1375.99 167.539C1376.03 167.638 1376.3 167.607 1376.28 167.49C1376.22 167.147 1376.25 166.79 1376.25 166.437C1376.25 166.341 1376.24 166.238 1376.24 166.134C1376.99 166.045 1377.75 165.94 1378.5 165.788C1379.08 166.693 1380.27 167.465 1380.98 167.959C1382.86 169.253 1384.64 169.854 1386.85 170.244C1386.95 170.263 1387.07 170.142 1386.92 170.106C1384.67 169.489 1382.9 168.669 1381.07 167.201C1380.48 166.723 1379.95 166.171 1379.5 165.561C1379.55 165.545 1379.6 165.539 1379.65 165.523C1381.74 164.976 1383.95 163.957 1385.56 162.434C1386.65 162.948 1388.1 163.196 1389.07 163.141C1390.06 163.091 1391.01 162.935 1391.97 162.665C1392.73 162.448 1393.59 161.647 1394.33 161.56C1394.41 161.549 1394.49 161.457 1394.37 161.426C1393.52 161.207 1392.06 162.115 1391.27 162.289C1389.43 162.682 1387.82 162.384 1386.16 161.83C1386.36 161.602 1386.55 161.367 1386.72 161.118C1387.08 160.612 1387.27 160.112 1387.37 159.619C1387.72 159.714 1388.17 159.667 1388.44 159.63C1389.06 159.52 1389.65 159.277 1390.26 159.161C1390.46 159.116 1390.37 158.921 1390.19 158.938C1389.74 158.993 1389.3 159.101 1388.85 159.196C1388.6 159.255 1388.34 159.275 1388.08 159.287C1387.85 159.295 1387.62 159.207 1387.4 159.166C1387.41 158.683 1387.33 158.198 1387.15 157.741C1387.46 157.787 1387.81 157.706 1388.05 157.576C1388.16 157.521 1388.29 157.472 1388.42 157.43C1388.49 157.403 1388.61 157.394 1388.62 157.305C1388.62 157.305 1388.62 157.305 1388.63 157.296C1388.63 157.271 1388.59 157.237 1388.57 157.224C1388.41 157.142 1388.16 157.24 1388 157.296C1387.67 157.398 1387.36 157.392 1387.03 157.422C1386.5 156.237 1385.48 155.169 1384.45 154.391C1382.51 152.913 1380.16 151.485 1377.67 150.542C1377.83 150.246 1377.89 149.894 1377.94 149.551C1378.02 149.035 1378.19 148.546 1378.12 148.018C1378.1 147.877 1377.78 147.882 1377.76 148.012C1377.7 148.486 1377.45 148.905 1377.24 149.335C1377.13 149.575 1377.08 149.846 1376.98 150.108C1376.96 150.167 1376.93 150.227 1376.91 150.279C1373.64 149.186 1370.18 149.01 1367.15 150.729C1365.53 151.652 1364.11 152.891 1362.92 154.314C1362.76 154.288 1362.61 154.27 1362.45 154.211C1362.23 154.138 1362.01 154.032 1361.8 153.941C1361.68 153.894 1361.37 154.009 1361.57 154.118C1361.93 154.324 1362.28 154.556 1362.69 154.611C1362.32 155.079 1361.96 155.57 1361.63 156.08C1361.16 156.146 1360.64 156.009 1360.2 155.895C1359.88 155.811 1359.56 155.751 1359.24 155.676C1359.07 155.635 1358.9 155.594 1358.74 155.544C1358.87 155.583 1357.69 155.17 1358.33 155.289C1358.37 155.3 1358.42 155.253 1358.36 155.237C1358.08 155.171 1358.17 155.183 1357.89 155.15C1357.85 155.148 1357.76 155.168 1357.79 155.228C1358.1 156.042 1359.53 156.268 1360.27 156.47C1360.5 156.534 1360.88 156.625 1361.28 156.658C1361 157.137 1360.73 157.624 1360.5 158.121C1360.43 158.242 1360.39 158.352 1360.35 158.471C1358.47 159.829 1356.88 161.244 1354.6 161.938C1352.14 162.696 1349.75 162.323 1347.25 162.166C1347.12 162.111 1346.92 162.292 1347.13 162.343ZM1367.48 151.693C1372.43 148.201 1378.56 151.78 1382.97 154.54C1385.32 156.001 1387.11 158.388 1385.58 161.013C1385.56 160.959 1385.55 160.905 1385.53 160.851C1385.42 159.136 1383.06 157.124 1382 156.238C1380.16 154.675 1377.42 154.382 1375.11 154.142C1372.89 153.898 1369.75 153.437 1367.61 154.224C1366.18 154.75 1365.1 155.662 1363.94 156.632C1363.05 157.381 1362.31 158.453 1361.48 159.274C1361.61 158.88 1361.75 158.516 1361.87 158.203C1362.96 155.511 1365.13 153.35 1367.48 151.693Z" fill="#0B0D19"/>
<path d="M1349.38 188.876C1350.67 190.892 1351.85 192.939 1353.21 194.882C1352.85 195.172 1352.8 195.724 1352.88 196.322C1352.74 196.27 1352.62 196.222 1352.5 196.174C1350.9 195.468 1349.36 194.56 1347.69 193.999C1347.58 193.958 1347.33 194.105 1347.5 194.178C1348.89 194.753 1350.19 195.582 1351.52 196.303C1352.02 196.57 1352.53 196.812 1353.03 197.07C1353.21 197.695 1353.46 198.293 1353.59 198.628C1353.32 198.625 1353.05 198.646 1352.89 198.636C1352.19 198.598 1351.49 198.478 1350.79 198.568C1350.63 198.59 1350.64 198.749 1350.81 198.734C1351.8 198.668 1352.79 199.011 1353.78 199.057C1353.86 199.199 1353.95 199.339 1354.04 199.478C1353.99 199.494 1353.95 199.507 1353.9 199.522C1353.57 199.6 1353.24 199.661 1352.93 199.761C1352.71 199.823 1352.86 199.994 1353.03 199.955C1353.41 199.862 1353.81 199.798 1354.2 199.712C1354.33 199.879 1354.46 200.045 1354.59 200.203C1354.86 200.687 1355.21 201.175 1355.61 201.648C1355.22 202.127 1354.91 202.723 1354.62 203.164C1353.93 204.181 1353.01 205.118 1352.57 206.27C1352.52 206.389 1352.77 206.385 1352.82 206.291C1353.32 205.308 1354.2 204.505 1354.92 203.675C1355.34 203.201 1355.7 202.677 1356.1 202.189C1356.39 202.493 1356.7 202.779 1357.01 203.041C1356.79 203.48 1356.78 204.05 1356.65 204.517C1356.61 204.667 1356.93 204.67 1356.98 204.543C1357.07 204.298 1357.14 204.056 1357.21 203.798C1357.25 203.648 1357.31 203.495 1357.36 203.336C1358.04 203.891 1358.74 204.338 1359.33 204.617C1359.39 204.801 1359.45 205.001 1359.51 205.185C1359.74 205.898 1360.3 206.814 1360.14 207.59C1360.1 207.747 1360.42 207.75 1360.47 207.616C1360.7 206.934 1360.4 205.974 1360.24 205.3C1360.2 205.177 1360.19 205.051 1360.17 204.909C1360.43 204.969 1360.65 204.994 1360.83 204.993C1361.07 205.297 1361.36 205.576 1361.62 205.853C1362.19 206.479 1362.79 207.02 1363.32 207.685C1363.37 207.75 1363.59 207.719 1363.53 207.632C1363.16 207.089 1362.76 206.592 1362.33 206.107C1361.99 205.722 1361.7 205.25 1361.34 204.851C1361.88 204.534 1361.81 203.663 1361.54 202.78C1361.63 202.807 1361.73 202.841 1361.83 202.859C1362.2 202.944 1362.6 203.105 1362.98 203.027C1363.13 202.999 1363.1 202.866 1362.97 202.837C1362.41 202.754 1361.9 202.52 1361.38 202.296C1361.33 202.175 1361.28 202.053 1361.23 201.932C1361.94 202.114 1362.65 202.272 1363.33 202.474C1364.76 202.893 1366.53 203.135 1367.87 203.767C1367.96 203.81 1368.22 203.71 1368.06 203.619C1367.09 203.05 1365.84 202.838 1364.78 202.457C1363.51 202.017 1362.22 201.579 1360.92 201.23C1360.84 201.073 1360.77 200.931 1360.69 200.805C1360.25 200.018 1359.72 199.298 1359.14 198.617C1359.39 198.439 1359.63 198.244 1359.88 198.05C1360.56 197.498 1361.25 196.962 1361.88 196.338C1362.02 196.197 1361.64 196.115 1361.53 196.202C1360.66 196.955 1359.67 197.51 1358.72 198.147C1358.16 197.543 1357.54 196.988 1356.9 196.485C1356.93 196.241 1356.91 195.978 1356.94 195.742C1356.94 195.621 1356.66 195.629 1356.63 195.737C1356.6 195.894 1356.55 196.044 1356.52 196.201C1356.47 196.16 1356.42 196.126 1356.37 196.086C1356.3 196.032 1356.21 195.971 1356.13 195.903C1356.1 195.755 1356.07 195.607 1356.04 195.49C1355.97 195.027 1355.88 194.551 1355.79 194.099C1355.76 193.935 1355.36 193.949 1355.37 194.124C1355.4 194.538 1355.42 194.96 1355.43 195.375C1355.05 195.107 1354.63 194.845 1354.22 194.717C1353.65 194.044 1353.06 193.388 1352.53 192.693C1351.53 191.389 1350.66 189.987 1349.64 188.719C1349.6 188.692 1349.31 188.75 1349.38 188.876Z" fill="#0B0D19"/>
<path d="M1400.06 196.174C1401.87 196.909 1404.05 197.896 1405.57 199.118C1406.64 199.98 1407.58 200.859 1408.69 201.658C1407.85 202.88 1407.22 204.178 1406.92 205.526C1406.42 205.331 1405.98 205.055 1405.51 204.784C1404.95 204.461 1404.3 204.247 1403.7 203.978C1403.58 203.93 1403.27 204.046 1403.47 204.154C1404.09 204.485 1404.75 204.786 1405.36 205.149C1405.84 205.443 1406.3 205.788 1406.87 205.853C1406.86 205.927 1406.84 206.001 1406.83 206.075C1406.69 205.999 1406.54 205.915 1406.39 205.84C1406.15 205.729 1405.9 205.652 1405.62 205.626C1405.44 205.603 1405.32 205.796 1405.55 205.828C1405.89 205.885 1406.23 206.046 1406.5 206.249C1406.6 206.324 1406.69 206.376 1406.79 206.41C1406.77 206.621 1406.77 206.82 1406.79 207.018C1406.68 206.937 1406.58 206.856 1406.45 206.801C1405.86 206.498 1405.1 206.484 1404.47 206.347C1403.5 206.146 1402.28 206.099 1401.39 206.623C1401.27 206.687 1401.45 206.767 1401.53 206.74C1402.7 206.385 1405.08 207.032 1405.97 207.83C1406.51 208.324 1407.02 208.572 1407.66 208.508C1407.96 208.675 1408.34 208.735 1408.78 208.649C1409.96 208.413 1410.99 207.909 1411.92 207.275C1416.01 205.513 1420 201.528 1421.79 197.922C1422.23 197.019 1423.1 195.006 1422.06 194.158C1421.85 193.554 1421.34 192.84 1421.2 192.626C1420.77 191.909 1420.4 191.151 1420.07 190.388C1419.56 189.273 1419.77 188.338 1419.69 187.188C1419.68 187.06 1419.42 187.088 1419.38 187.182C1419.12 187.884 1418.93 188.575 1418.86 189.322C1418.79 189.948 1419.38 190.828 1419.65 191.352C1420.03 192.117 1420.47 192.808 1420.95 193.519C1420.98 193.555 1421.04 193.643 1421.13 193.751C1420.18 193.545 1419.11 193.846 1418.13 194.256C1417.95 193.992 1417.75 193.731 1417.58 193.475C1417.17 192.883 1417.01 192.24 1416.71 191.608C1416.66 191.487 1416.34 191.539 1416.39 191.692C1416.64 192.355 1416.74 192.966 1417.09 193.599C1417.26 193.896 1417.43 194.193 1417.6 194.49C1417.17 194.685 1416.77 194.902 1416.42 195.078C1416.29 195.145 1416.16 195.218 1416.03 195.285C1415.77 194.977 1415.51 194.668 1415.24 194.368C1414.44 193.454 1413.69 192.405 1412.81 191.573C1412.69 191.47 1412.32 191.553 1412.46 191.734C1412.88 192.213 1413.14 192.834 1413.51 193.352C1413.83 193.811 1414.22 194.23 1414.56 194.671C1414.8 194.959 1415.03 195.351 1415.29 195.7C1414.15 196.371 1412.98 197.215 1411.88 198.17C1411.78 198.167 1411.59 198.209 1411.66 198.319C1411.67 198.326 1411.68 198.342 1411.68 198.349C1411.12 198.852 1410.59 199.391 1410.08 199.95C1409.82 199.738 1409.56 199.542 1409.32 199.319C1408.85 198.879 1408.46 198.372 1407.96 197.969C1407.86 197.894 1407.54 197.963 1407.68 198.096C1408.13 198.522 1408.46 199.053 1408.89 199.514C1409.15 199.807 1409.46 200.069 1409.78 200.313C1409.6 200.53 1409.42 200.747 1409.24 200.964C1409.08 200.802 1408.87 200.655 1408.61 200.427C1407.8 199.715 1407 198.919 1406.12 198.281C1404.58 197.172 1402.08 196.503 1400.27 196.025C1400.14 195.97 1399.89 196.102 1400.06 196.174ZM1407.74 205.452C1410.21 204.074 1412.77 203.134 1414.97 201.282C1416.92 199.632 1418.42 196.971 1419.44 194.642C1420.54 194.489 1421.41 194.825 1421.04 196.431C1420.78 197.566 1420.08 198.585 1419.36 199.525C1419.34 199.505 1419.3 199.502 1419.25 199.509C1419.01 199.31 1418.67 199.141 1418.5 199.068C1418.38 199.021 1418.24 199.024 1418.13 199.096C1418.06 199.145 1418.05 199.203 1418.09 199.262L1418.08 199.271C1418.31 199.584 1418.74 199.781 1418.86 200.172C1418.86 200.187 1418.87 200.194 1418.88 200.201C1418.64 200.523 1418.36 200.866 1418.09 201.208C1417.83 201.077 1417.52 200.991 1417.26 200.931C1417.09 200.89 1416.79 201.084 1417.06 201.175C1417.32 201.259 1417.6 201.373 1417.83 201.542C1416.95 202.594 1415.95 203.67 1414.87 204.638C1414.91 204.568 1414.73 204.545 1414.68 204.583C1413.25 205.68 1411.82 206.608 1410.24 207.5C1408 208.774 1407.48 207.075 1407.62 205.492C1407.65 205.472 1407.7 205.466 1407.74 205.452Z" fill="#0B0D19"/>
</g>
<path d="M515.752 133.119C508.361 135.34 507.902 136.068 508.668 143.727C506.446 136.336 505.719 135.876 498.06 136.642C505.451 134.421 505.91 133.693 505.144 126.034C507.404 133.425 508.093 133.885 515.752 133.119Z" fill="white"/>
<path d="M406.838 311.004C406.838 311.961 406.072 312.727 405.115 312.727C404.158 312.727 403.392 311.961 403.392 311.004C403.392 310.046 404.158 309.28 405.115 309.28C406.072 309.28 406.838 310.046 406.838 311.004Z" fill="#212444"/>
<path d="M736.183 67.4799C737.282 67.4799 738.174 66.5883 738.174 65.4885C738.174 64.3887 737.282 63.4971 736.183 63.4971C735.083 63.4971 734.191 64.3887 734.191 65.4885C734.191 66.5883 735.083 67.4799 736.183 67.4799Z" fill="#212444"/>
<path d="M627.193 117.265C628.293 117.265 629.184 116.373 629.184 115.274C629.184 114.174 628.293 113.282 627.193 113.282C626.093 113.282 625.202 114.174 625.202 115.274C625.202 116.373 626.093 117.265 627.193 117.265Z" fill="#212444"/>
<path d="M119.888 271.597C119.888 272.707 119.007 273.588 117.896 273.588C116.785 273.588 115.905 272.707 115.905 271.597C115.905 270.486 116.785 269.605 117.896 269.605C119.007 269.605 119.888 270.486 119.888 271.597Z" fill="#212444"/>
<path d="M35.8665 170.764C35.8665 171.874 34.9856 172.755 33.8751 172.755C32.7645 172.755 31.8838 171.874 31.8838 170.764C31.8838 169.653 32.7645 168.772 33.8751 168.772C34.9856 168.772 35.8665 169.653 35.8665 170.764Z" fill="#212444"/>
<path d="M58.7672 337.275C59.867 337.275 60.7586 336.383 60.7586 335.283C60.7586 334.184 59.867 333.292 58.7672 333.292C57.6673 333.292 56.7759 334.184 56.7759 335.283C56.7759 336.383 57.6673 337.275 58.7672 337.275Z" fill="#212444"/>
<path d="M234.239 30.4865C234.239 31.5971 233.358 32.4779 232.248 32.4779C231.137 32.4779 230.256 31.5971 230.256 30.4865C230.256 29.376 231.137 28.4951 232.248 28.4951C233.358 28.4951 234.239 29.376 234.239 30.4865Z" fill="#212444"/>
<path d="M624.206 261.87C624.206 262.981 623.325 263.862 622.215 263.862C621.104 263.862 620.223 262.981 620.223 261.87C620.223 260.76 621.104 259.879 622.215 259.879C623.325 259.879 624.206 260.76 624.206 261.87Z" fill="#212444"/>
<path d="M718.069 335.283C720.438 335.283 722.359 333.363 722.359 330.994C722.359 328.625 720.438 326.705 718.069 326.705C715.701 326.705 713.78 328.625 713.78 330.994C713.78 333.363 715.701 335.283 718.069 335.283Z" fill="#212444"/>
<path d="M225.507 275.887C227.876 275.887 229.797 273.967 229.797 271.598C229.797 269.229 227.876 267.309 225.507 267.309C223.138 267.309 221.218 269.229 221.218 271.598C221.218 273.967 223.138 275.887 225.507 275.887Z" fill="#212444"/>
<path d="M441.752 187.398C442.132 185.06 440.544 182.857 438.206 182.477C435.867 182.098 433.664 183.686 433.285 186.024C432.905 188.362 434.493 190.565 436.831 190.945C439.17 191.324 441.373 189.737 441.752 187.398Z" fill="#212444"/>
<path d="M681.037 201.745C684.59 201.745 687.471 198.865 687.471 195.312C687.471 191.758 684.59 188.878 681.037 188.878C677.484 188.878 674.604 191.758 674.604 195.312C674.604 198.865 677.484 201.745 681.037 201.745Z" fill="#212444"/>
<path d="M492.664 39.5064C494.728 37.4425 494.728 34.0964 492.664 32.0326C490.601 29.9687 487.254 29.9687 485.191 32.0325C483.127 34.0964 483.127 37.4426 485.19 39.5064C487.254 41.5703 490.601 41.5702 492.664 39.5064Z" fill="#212444"/>
<path d="M226.695 123.66C226.695 124.311 226.158 124.847 225.507 124.847C224.856 124.847 224.32 124.311 224.32 123.66C224.32 123.009 224.856 122.473 225.507 122.473C226.158 122.473 226.695 122.97 226.695 123.66Z" fill="white"/>
<path d="M364.752 113.282C364.752 113.933 364.215 114.469 363.564 114.469C362.913 114.469 362.377 113.933 362.377 113.282C362.377 112.631 362.913 112.095 363.564 112.095C364.215 112.095 364.752 112.631 364.752 113.282Z" fill="#212444"/>
<path d="M96.6039 68.2458C96.6039 68.8968 96.0677 69.4329 95.4167 69.4329C94.7657 69.4329 94.2295 68.8968 94.2295 68.2458C94.2295 67.5947 94.7657 67.0586 95.4167 67.0586C96.0677 67.0586 96.6039 67.5564 96.6039 68.2458Z" fill="#212444"/>
<path d="M868.853 25.1629C861.462 27.384 861.002 28.1116 861.768 35.7708C859.547 28.3797 858.819 27.9202 851.16 28.6861C858.551 26.4649 859.011 25.7373 858.245 18.0781C860.466 25.4692 861.194 25.9288 868.853 25.1629Z" fill="white"/>
<path d="M930.356 188.419C930.356 189.376 929.59 190.142 928.633 190.142C927.676 190.142 926.91 189.376 926.91 188.419C926.91 187.461 927.676 186.695 928.633 186.695C929.59 186.695 930.356 187.5 930.356 188.419Z" fill="#212444"/>
<path d="M892.481 242.071C892.481 243.028 891.715 243.794 890.758 243.794C889.801 243.794 889.035 243.028 889.035 242.071C889.035 241.114 889.801 240.348 890.758 240.348C891.715 240.348 892.481 241.114 892.481 242.071Z" fill="#212444"/>
<path d="M742.744 273.014C743.696 273.014 744.468 272.242 744.468 271.291C744.468 270.339 743.696 269.567 742.744 269.567C741.793 269.567 741.021 270.339 741.021 271.291C741.021 272.242 741.793 273.014 742.744 273.014Z" fill="#212444"/>
<path d="M1449.72 311.004C1449.72 311.961 1448.96 312.727 1448 312.727C1447.04 312.727 1446.28 311.961 1446.28 311.004C1446.28 310.046 1447.04 309.28 1448 309.28C1448.96 309.28 1449.72 310.046 1449.72 311.004Z" fill="#212444"/>
<path d="M742.553 53.655C742.553 54.6124 741.787 55.3783 740.829 55.3783C739.872 55.3783 739.106 54.6124 739.106 53.655C739.106 52.6976 739.872 51.9316 740.829 51.9316C741.787 51.9316 742.553 52.6976 742.553 53.655Z" fill="#212444"/>
<path d="M750.173 195.159C752.035 195.159 753.543 193.65 753.543 191.789C753.543 189.928 752.035 188.419 750.173 188.419C748.312 188.419 746.803 189.928 746.803 191.789C746.803 193.65 748.312 195.159 750.173 195.159Z" fill="#212444"/>
<path d="M1162.77 271.597C1162.77 272.707 1161.89 273.588 1160.78 273.588C1159.67 273.588 1158.79 272.707 1158.79 271.597C1158.79 270.486 1159.67 269.605 1160.78 269.605C1161.89 269.605 1162.77 270.486 1162.77 271.597Z" fill="#212444"/>
<path d="M1078.75 170.764C1078.75 171.874 1077.87 172.755 1076.76 172.755C1075.65 172.755 1074.77 171.874 1074.77 170.764C1074.77 169.653 1075.65 168.772 1076.76 168.772C1077.87 168.772 1078.75 169.653 1078.75 170.764Z" fill="#212444"/>
<path d="M1101.65 337.275C1102.75 337.275 1103.65 336.383 1103.65 335.283C1103.65 334.184 1102.75 333.292 1101.65 333.292C1100.55 333.292 1099.66 334.184 1099.66 335.283C1099.66 336.383 1100.55 337.275 1101.65 337.275Z" fill="#212444"/>
<path d="M1277.13 30.4865C1277.13 31.5971 1276.24 32.4779 1275.13 32.4779C1274.02 32.4779 1273.14 31.5971 1273.14 30.4865C1273.14 29.376 1274.02 28.4951 1275.13 28.4951C1276.24 28.4951 1277.13 29.376 1277.13 30.4865Z" fill="#212444"/>
<path d="M971.524 217.6C973.893 217.6 975.813 215.679 975.813 213.311C975.813 210.942 973.893 209.021 971.524 209.021C969.155 209.021 967.235 210.942 967.235 213.311C967.235 215.679 969.155 217.6 971.524 217.6Z" fill="#212444"/>
<path d="M1268.39 275.887C1270.76 275.887 1272.68 273.967 1272.68 271.598C1272.68 269.229 1270.76 267.309 1268.39 267.309C1266.02 267.309 1264.1 269.229 1264.1 271.598C1264.1 273.967 1266.02 275.887 1268.39 275.887Z" fill="#212444"/>
<path d="M1484.64 187.398C1485.02 185.06 1483.43 182.857 1481.09 182.477C1478.75 182.098 1476.55 183.686 1476.17 186.024C1475.79 188.362 1477.38 190.565 1479.72 190.945C1482.06 191.324 1484.26 189.737 1484.64 187.398Z" fill="#212444"/>
<path d="M771.006 114.316C773.375 114.316 775.296 112.395 775.296 110.026C775.296 107.658 773.375 105.737 771.006 105.737C768.638 105.737 766.717 107.658 766.717 110.026C766.717 112.395 768.638 114.316 771.006 114.316Z" fill="#212444"/>
<path d="M853.573 311.004C858.035 311.004 861.653 307.386 861.653 302.923C861.653 298.461 858.035 294.843 853.573 294.843C849.11 294.843 845.492 298.461 845.492 302.923C845.492 307.386 849.11 311.004 853.573 311.004Z" fill="#212444"/>
<path d="M1535.55 39.5064C1537.61 37.4425 1537.61 34.0964 1535.55 32.0326C1533.49 29.9687 1530.14 29.9687 1528.08 32.0325C1526.01 34.0964 1526.01 37.4426 1528.08 39.5064C1530.14 41.5703 1533.49 41.5702 1535.55 39.5064Z" fill="#212444"/>
<path d="M909.184 150.496C910.946 149.622 911.665 147.484 910.79 145.723C909.915 143.961 907.778 143.242 906.016 144.116C904.254 144.991 903.535 147.128 904.41 148.89C905.285 150.652 907.422 151.371 909.184 150.496Z" fill="#212444"/>
<path d="M1269.58 123.66C1269.58 124.311 1269.05 124.847 1268.39 124.847C1267.74 124.847 1267.21 124.311 1267.21 123.66C1267.21 123.009 1267.74 122.473 1268.39 122.473C1269.05 122.473 1269.58 122.97 1269.58 123.66Z" fill="white"/>
<path d="M1407.64 113.282C1407.64 113.933 1407.1 114.469 1406.45 114.469C1405.8 114.469 1405.26 113.933 1405.26 113.282C1405.26 112.631 1405.8 112.095 1406.45 112.095C1407.1 112.095 1407.64 112.631 1407.64 113.282Z" fill="#212444"/>
<path d="M1139.49 68.2458C1139.49 68.8968 1138.95 69.4329 1138.3 69.4329C1137.65 69.4329 1137.12 68.8968 1137.12 68.2458C1137.12 67.5947 1137.65 67.0586 1138.3 67.0586C1138.95 67.0586 1139.49 67.5564 1139.49 68.2458Z" fill="#212444"/>
<path d="M515.752 875.627C508.361 877.848 507.902 878.575 508.668 886.235C506.446 878.844 505.719 878.384 498.06 879.15C505.451 876.929 505.91 876.201 505.144 868.542C507.404 875.933 508.093 876.393 515.752 875.627Z" fill="white"/>
<path d="M483.737 508.752C479.448 507.029 478.95 507.182 476.422 511.05C478.146 506.761 477.992 506.263 474.125 503.735C478.414 505.459 478.912 505.305 481.439 501.438C479.716 505.727 479.869 506.225 483.737 508.752Z" fill="white"/>
<path d="M206.628 685.373C202.147 686.56 201.841 686.943 202.147 691.577C200.96 687.097 200.577 686.79 195.943 687.096C200.424 685.909 200.73 685.526 200.424 680.893C201.611 685.373 202.032 685.641 206.628 685.373Z" fill="#212444"/>
<path d="M410.131 365.335C405.459 361.467 404.808 361.428 400.06 365.296C403.927 360.624 403.966 359.973 400.098 355.263C404.77 359.131 405.421 359.169 410.17 355.301C406.302 359.935 406.263 360.624 410.131 365.335Z" fill="#212444"/>
<path d="M412.238 360.318C406.187 360.854 405.728 361.352 405.077 367.402C404.541 361.352 404.043 360.892 397.992 360.241C404.043 359.705 404.502 359.207 405.153 353.156C405.728 359.207 406.187 359.705 412.238 360.318Z" fill="#212444"/>
<path d="M698.921 597.828C691.301 598.556 690.726 599.169 689.96 606.79C689.233 599.169 688.62 598.594 680.999 597.828C688.62 597.101 689.194 596.488 689.96 588.867C690.688 596.488 691.301 597.101 698.921 597.828Z" fill="#212444"/>
<path d="M696.279 591.51C691.416 597.407 691.416 598.25 696.279 604.147C690.382 599.284 689.539 599.284 683.642 604.147C688.505 598.25 688.505 597.407 683.642 591.51C689.539 596.373 690.382 596.373 696.279 591.51Z" fill="white"/>
<path d="M50.4195 394.937C52.2807 394.937 53.7894 393.429 53.7894 391.567C53.7894 389.706 52.2807 388.197 50.4195 388.197C48.5582 388.197 47.0493 389.706 47.0493 391.567C47.0493 393.429 48.5582 394.937 50.4195 394.937Z" fill="#212444"/>
<path d="M722.09 668.6C722.09 669.71 721.209 670.591 720.099 670.591C718.988 670.591 718.107 669.71 718.107 668.6C718.107 667.489 718.988 666.608 720.099 666.608C721.209 666.608 722.09 667.489 722.09 668.6Z" fill="#212444"/>
<path d="M626.618 518.901C627.718 518.901 628.61 518.009 628.61 516.909C628.61 515.81 627.718 514.918 626.618 514.918C625.519 514.918 624.627 515.81 624.627 516.909C624.627 518.009 625.519 518.901 626.618 518.901Z" fill="#212444"/>
<path d="M734.192 402.443C735.292 402.443 736.183 401.551 736.183 400.451C736.183 399.352 735.292 398.46 734.192 398.46C733.092 398.46 732.201 399.352 732.201 400.451C732.201 401.551 733.092 402.443 734.192 402.443Z" fill="#212444"/>
<path d="M631.176 657.915C631.176 659.026 630.295 659.907 629.185 659.907C628.074 659.907 627.193 659.026 627.193 657.915C627.193 656.805 628.074 655.924 629.185 655.924C630.295 655.924 631.176 656.805 631.176 657.915Z" fill="#212444"/>
<path d="M428.705 648.494C428.705 649.605 427.825 650.486 426.714 650.486C425.604 650.486 424.723 649.605 424.723 648.494C424.723 647.384 425.604 646.503 426.714 646.503C427.825 646.503 428.705 647.384 428.705 648.494Z" fill="#212444"/>
<path d="M335.915 427.795C337.015 427.795 337.906 426.904 337.906 425.804C337.906 424.704 337.015 423.812 335.915 423.812C334.815 423.812 333.923 424.704 333.923 425.804C333.923 426.904 334.815 427.795 335.915 427.795Z" fill="#212444"/>
<path d="M665.795 720.337C666.895 720.337 667.787 719.446 667.787 718.346C667.787 717.246 666.895 716.354 665.795 716.354C664.695 716.354 663.804 717.246 663.804 718.346C663.804 719.446 664.695 720.337 665.795 720.337Z" fill="#212444"/>
<path d="M736.183 809.988C737.282 809.988 738.174 809.096 738.174 807.996C738.174 806.896 737.282 806.005 736.183 806.005C735.083 806.005 734.191 806.896 734.191 807.996C734.191 809.096 735.083 809.988 736.183 809.988Z" fill="#212444"/>
<path d="M627.193 859.773C628.293 859.773 629.184 858.881 629.184 857.781C629.184 856.682 628.293 855.79 627.193 855.79C626.093 855.79 625.202 856.682 625.202 857.781C625.202 858.881 626.093 859.773 627.193 859.773Z" fill="#212444"/>
<path d="M35.8665 913.272C35.8665 914.382 34.9856 915.263 33.8751 915.263C32.7645 915.263 31.8838 914.382 31.8838 913.272C31.8838 912.161 32.7645 911.28 33.8751 911.28C34.9856 911.28 35.8665 912.161 35.8665 913.272Z" fill="#212444"/>
<path d="M681.037 688.207C682.137 688.207 683.029 687.316 683.029 686.216C683.029 685.116 682.137 684.225 681.037 684.225C679.937 684.225 679.046 685.116 679.046 686.216C679.046 687.316 679.937 688.207 681.037 688.207Z" fill="#212444"/>
<path d="M234.239 772.994C234.239 774.105 233.358 774.986 232.248 774.986C231.137 774.986 230.256 774.105 230.256 772.994C230.256 771.884 231.137 771.003 232.248 771.003C233.358 771.003 234.239 771.884 234.239 772.994Z" fill="#212444"/>
<path d="M598.701 390.188C599.801 390.188 600.693 389.296 600.693 388.196C600.693 387.097 599.801 386.205 598.701 386.205C597.601 386.205 596.71 387.097 596.71 388.196C596.71 389.296 597.601 390.188 598.701 390.188Z" fill="#212444"/>
<path d="M89.4034 580.481C90.5032 580.481 91.3948 579.589 91.3948 578.489C91.3948 577.39 90.5032 576.498 89.4034 576.498C88.3036 576.498 87.4121 577.39 87.4121 578.489C87.4121 579.589 88.3036 580.481 89.4034 580.481Z" fill="#212444"/>
<path d="M98.327 536.134C98.327 536.938 97.6759 537.589 96.8717 537.589C96.0675 537.589 95.4165 536.938 95.4165 536.134C95.4165 535.33 96.0675 534.679 96.8717 534.679C97.6759 534.679 98.327 535.33 98.327 536.134Z" fill="white"/>
<path d="M168.447 339.064C168.447 339.868 167.796 340.519 166.992 340.519C166.188 340.519 165.537 339.868 165.537 339.064C165.537 338.259 166.188 337.608 166.992 337.608C167.796 337.608 168.447 338.259 168.447 339.064Z" fill="#212444"/>
<path d="M56.7756 516.91C57.8755 516.91 58.7669 516.018 58.7669 514.918C58.7669 513.818 57.8755 512.927 56.7756 512.927C55.6758 512.927 54.7842 513.818 54.7842 514.918C54.7842 516.018 55.6758 516.91 56.7756 516.91Z" fill="#212444"/>
<path d="M437.475 445.909C438.575 445.909 439.467 445.017 439.467 443.917C439.467 442.817 438.575 441.926 437.475 441.926C436.375 441.926 435.484 442.817 435.484 443.917C435.484 445.017 436.375 445.909 437.475 445.909Z" fill="#212444"/>
<path d="M295.704 400.452C296.804 400.452 297.695 399.56 297.695 398.46C297.695 397.36 296.804 396.469 295.704 396.469C294.604 396.469 293.712 397.36 293.712 398.46C293.712 399.56 294.604 400.452 295.704 400.452Z" fill="#212444"/>
<path d="M228.188 458.584C229.287 458.584 230.179 457.693 230.179 456.593C230.179 455.493 229.287 454.602 228.188 454.602C227.088 454.602 226.196 455.493 226.196 456.593C226.196 457.693 227.088 458.584 228.188 458.584Z" fill="#212444"/>
<path d="M536.47 365.641C537.57 365.641 538.461 364.749 538.461 363.65C538.461 362.55 537.57 361.658 536.47 361.658C535.37 361.658 534.479 362.55 534.479 363.65C534.479 364.749 535.37 365.641 536.47 365.641Z" fill="#212444"/>
<path d="M514.259 672.889C516.628 672.889 518.548 670.969 518.548 668.6C518.548 666.231 516.628 664.311 514.259 664.311C511.89 664.311 509.97 666.231 509.97 668.6C509.97 670.969 511.89 672.889 514.259 672.889Z" fill="#212444"/>
<path d="M147.881 593.195C150.25 593.195 152.17 591.274 152.17 588.905C152.17 586.537 150.25 584.616 147.881 584.616C145.512 584.616 143.592 586.537 143.592 588.905C143.592 591.274 145.512 593.195 147.881 593.195Z" fill="#212444"/>
<path d="M441.752 929.906C442.132 927.568 440.544 925.365 438.206 924.985C435.867 924.606 433.664 926.194 433.285 928.532C432.905 930.87 434.493 933.073 436.831 933.453C439.17 933.832 441.373 932.244 441.752 929.906Z" fill="#212444"/>
<path d="M681.037 944.253C684.59 944.253 687.471 941.373 687.471 937.819C687.471 934.266 684.59 931.386 681.037 931.386C677.484 931.386 674.604 934.266 674.604 937.819C674.604 941.373 677.484 944.253 681.037 944.253Z" fill="#212444"/>
<path d="M492.664 782.015C494.728 779.951 494.728 776.605 492.664 774.541C490.601 772.478 487.254 772.477 485.191 774.541C483.127 776.605 483.127 779.951 485.19 782.015C487.254 784.079 490.601 784.079 492.664 782.015Z" fill="#212444"/>
<path d="M693.904 355.224C698.367 355.224 701.985 351.607 701.985 347.144C701.985 342.681 698.367 339.063 693.904 339.063C689.442 339.063 685.824 342.681 685.824 347.144C685.824 351.607 689.442 355.224 693.904 355.224Z" fill="#212444"/>
<path d="M226.695 866.168C226.695 866.819 226.158 867.355 225.507 867.355C224.856 867.355 224.32 866.819 224.32 866.168C224.32 865.517 224.856 864.98 225.507 864.98C226.158 864.98 226.695 865.478 226.695 866.168Z" fill="white"/>
<path d="M326.57 740.673C326.57 741.324 326.034 741.86 325.383 741.86C324.732 741.86 324.196 741.324 324.196 740.673C324.196 740.021 324.732 739.485 325.383 739.485C326.034 739.485 326.57 740.021 326.57 740.673Z" fill="#212444"/>
<path d="M364.752 855.79C364.752 856.441 364.215 856.977 363.564 856.977C362.913 856.977 362.377 856.441 362.377 855.79C362.377 855.139 362.913 854.603 363.564 854.603C364.215 854.603 364.752 855.139 364.752 855.79Z" fill="#212444"/>
<path d="M96.6039 810.754C96.6039 811.405 96.0677 811.941 95.4167 811.941C94.7657 811.941 94.2295 811.405 94.2295 810.754C94.2295 810.103 94.7657 809.566 95.4167 809.566C96.0677 809.566 96.6039 810.064 96.6039 810.754Z" fill="#212444"/>
<path d="M305.125 567.077C305.125 567.728 304.589 568.264 303.938 568.264C303.287 568.264 302.75 567.728 302.75 567.077C302.75 566.426 303.287 565.89 303.938 565.89C304.589 565.89 305.125 566.426 305.125 567.077Z" fill="#212444"/>
<path d="M868.853 767.671C861.462 769.892 861.002 770.619 861.768 778.279C859.547 770.888 858.819 770.428 851.16 771.194C858.551 768.973 859.011 768.245 858.245 760.586C860.466 767.977 861.194 768.437 868.853 767.671Z" fill="white"/>
<path d="M977.307 398.46C971.792 393.099 970.949 393.022 964.592 397.388C969.954 391.873 970.03 391.031 965.665 384.674C971.179 390.035 972.022 390.112 978.379 385.746C973.017 391.261 972.941 392.103 977.307 398.46Z" fill="#212444"/>
<path d="M1526.62 508.752C1522.33 507.029 1521.84 507.182 1519.31 511.05C1521.03 506.761 1520.88 506.263 1517.01 503.735C1521.3 505.459 1521.8 505.305 1524.33 501.438C1522.6 505.727 1522.76 506.225 1526.62 508.752Z" fill="white"/>
<path d="M1249.51 685.373C1245.03 686.56 1244.73 686.943 1245.03 691.577C1243.85 687.097 1243.46 686.79 1238.83 687.096C1243.31 685.909 1243.62 685.526 1243.31 680.893C1244.5 685.373 1244.92 685.641 1249.51 685.373Z" fill="#212444"/>
<path d="M1453.02 365.335C1448.35 361.467 1447.69 361.428 1442.95 365.296C1446.81 360.624 1446.85 359.973 1442.98 355.263C1447.66 359.131 1448.31 359.169 1453.06 355.301C1449.19 359.935 1449.15 360.624 1453.02 365.335Z" fill="#212444"/>
<path d="M1455.12 360.318C1449.07 360.854 1448.61 361.352 1447.96 367.402C1447.43 361.352 1446.93 360.892 1440.88 360.241C1446.93 359.705 1447.39 359.207 1448.04 353.156C1448.61 359.207 1449.07 359.705 1455.12 360.318Z" fill="#212444"/>
<path d="M1024.14 728.763C1026 728.763 1027.51 727.254 1027.51 725.392C1027.51 723.531 1026 722.022 1024.14 722.022C1022.28 722.022 1020.77 723.531 1020.77 725.392C1020.77 727.254 1022.28 728.763 1024.14 728.763Z" fill="url(#paint1_radial_10_49426)"/>
<path d="M930.356 930.926C930.356 931.884 929.59 932.65 928.633 932.65C927.676 932.65 926.91 931.884 926.91 930.926C926.91 929.969 927.676 929.203 928.633 929.203C929.59 929.203 930.356 930.007 930.356 930.926Z" fill="#212444"/>
<path d="M742.553 796.163C742.553 797.12 741.787 797.886 740.829 797.886C739.872 797.886 739.106 797.12 739.106 796.163C739.106 795.205 739.872 794.439 740.829 794.439C741.787 794.439 742.553 795.205 742.553 796.163Z" fill="#212444"/>
<path d="M750.173 937.667C752.035 937.667 753.543 936.158 753.543 934.297C753.543 932.436 752.035 930.927 750.173 930.927C748.312 930.927 746.803 932.436 746.803 934.297C746.803 936.158 748.312 937.667 750.173 937.667Z" fill="#212444"/>
<path d="M845.021 582.496C845.32 580.659 844.073 578.928 842.236 578.629C840.399 578.33 838.667 579.577 838.368 581.414C838.069 583.251 839.316 584.983 841.153 585.281C842.99 585.58 844.722 584.333 845.021 582.496Z" fill="#212444"/>
<path d="M827.532 367.019C829.393 367.019 830.902 365.511 830.902 363.649C830.902 361.788 829.393 360.279 827.532 360.279C825.67 360.279 824.162 361.788 824.162 363.649C824.162 365.511 825.67 367.019 827.532 367.019Z" fill="#212444"/>
<path d="M1093.3 394.937C1095.17 394.937 1096.67 393.429 1096.67 391.567C1096.67 389.706 1095.17 388.197 1093.3 388.197C1091.44 388.197 1089.93 389.706 1089.93 391.567C1089.93 393.429 1091.44 394.937 1093.3 394.937Z" fill="#212444"/>
<path d="M808.766 670.591C809.866 670.591 810.758 669.7 810.758 668.6C810.758 667.5 809.866 666.608 808.766 666.608C807.667 666.608 806.775 667.5 806.775 668.6C806.775 669.7 807.667 670.591 808.766 670.591Z" fill="white"/>
<path d="M1471.59 648.494C1471.59 649.605 1470.71 650.486 1469.6 650.486C1468.49 650.486 1467.61 649.605 1467.61 648.494C1467.61 647.384 1468.49 646.503 1469.6 646.503C1470.71 646.503 1471.59 647.384 1471.59 648.494Z" fill="#212444"/>
<path d="M1378.8 427.795C1379.9 427.795 1380.79 426.904 1380.79 425.804C1380.79 424.704 1379.9 423.812 1378.8 423.812C1377.7 423.812 1376.81 424.704 1376.81 425.804C1376.81 426.904 1377.7 427.795 1378.8 427.795Z" fill="#212444"/>
<path d="M1078.75 913.272C1078.75 914.382 1077.87 915.263 1076.76 915.263C1075.65 915.263 1074.77 914.382 1074.77 913.272C1074.77 912.161 1075.65 911.28 1076.76 911.28C1077.87 911.28 1078.75 912.161 1078.75 913.272Z" fill="#212444"/>
<path d="M1277.13 772.994C1277.13 774.105 1276.24 774.986 1275.13 774.986C1274.02 774.986 1273.14 774.105 1273.14 772.994C1273.14 771.884 1274.02 771.003 1275.13 771.003C1276.24 771.003 1277.13 771.884 1277.13 772.994Z" fill="#212444"/>
<path d="M896.464 637.848C897.564 637.848 898.455 636.956 898.455 635.857C898.455 634.757 897.564 633.865 896.464 633.865C895.364 633.865 894.473 634.757 894.473 635.857C894.473 636.956 895.364 637.848 896.464 637.848Z" fill="#212444"/>
<path d="M1132.29 580.481C1133.39 580.481 1134.28 579.589 1134.28 578.489C1134.28 577.39 1133.39 576.498 1132.29 576.498C1131.19 576.498 1130.3 577.39 1130.3 578.489C1130.3 579.589 1131.19 580.481 1132.29 580.481Z" fill="#212444"/>
<path d="M1141.21 536.134C1141.21 536.938 1140.56 537.589 1139.76 537.589C1138.95 537.589 1138.3 536.938 1138.3 536.134C1138.3 535.33 1138.95 534.679 1139.76 534.679C1140.56 534.679 1141.21 535.33 1141.21 536.134Z" fill="white"/>
<path d="M1211.33 339.064C1211.33 339.868 1210.68 340.519 1209.88 340.519C1209.07 340.519 1208.42 339.868 1208.42 339.064C1208.42 338.259 1209.07 337.608 1209.88 337.608C1210.68 337.608 1211.33 338.259 1211.33 339.064Z" fill="#212444"/>
<path d="M1099.66 516.91C1100.76 516.91 1101.65 516.018 1101.65 514.918C1101.65 513.818 1100.76 512.927 1099.66 512.927C1098.56 512.927 1097.67 513.818 1097.67 514.918C1097.67 516.018 1098.56 516.91 1099.66 516.91Z" fill="#212444"/>
<path d="M1480.36 445.909C1481.46 445.909 1482.35 445.017 1482.35 443.917C1482.35 442.817 1481.46 441.926 1480.36 441.926C1479.26 441.926 1478.37 442.817 1478.37 443.917C1478.37 445.017 1479.26 445.909 1480.36 445.909Z" fill="#212444"/>
<path d="M1338.59 400.452C1339.69 400.452 1340.58 399.56 1340.58 398.46C1340.58 397.36 1339.69 396.469 1338.59 396.469C1337.49 396.469 1336.6 397.36 1336.6 398.46C1336.6 399.56 1337.49 400.452 1338.59 400.452Z" fill="#212444"/>
<path d="M1271.07 458.584C1272.17 458.584 1273.07 457.693 1273.07 456.593C1273.07 455.493 1272.17 454.602 1271.07 454.602C1269.97 454.602 1269.08 455.493 1269.08 456.593C1269.08 457.693 1269.97 458.584 1271.07 458.584Z" fill="#212444"/>
<path d="M988.26 447.939C988.26 449.049 987.379 449.93 986.268 449.93C985.158 449.93 984.277 449.049 984.277 447.939C984.277 446.828 985.158 445.947 986.268 445.947C987.379 445.947 988.26 446.828 988.26 447.939Z" fill="#212444"/>
<path d="M827.532 428.944C828.631 428.944 829.523 428.052 829.523 426.952C829.523 425.853 828.631 424.961 827.532 424.961C826.432 424.961 825.54 425.853 825.54 426.952C825.54 428.052 826.432 428.944 827.532 428.944Z" fill="#212444"/>
<path d="M827.532 621.189C828.631 621.189 829.523 620.297 829.523 619.197C829.523 618.098 828.631 617.206 827.532 617.206C826.432 617.206 825.54 618.098 825.54 619.197C825.54 620.297 826.432 621.189 827.532 621.189Z" fill="#212444"/>
<path d="M844.956 661.782C847.325 661.782 849.245 659.862 849.245 657.493C849.245 655.124 847.325 653.204 844.956 653.204C842.587 653.204 840.667 655.124 840.667 657.493C840.667 659.862 842.587 661.782 844.956 661.782Z" fill="#212444"/>
<path d="M1190.77 593.195C1193.14 593.195 1195.06 591.274 1195.06 588.905C1195.06 586.537 1193.14 584.616 1190.77 584.616C1188.4 584.616 1186.48 586.537 1186.48 588.905C1186.48 591.274 1188.4 593.195 1190.77 593.195Z" fill="#212444"/>
<path d="M753.544 431.241C755.913 431.241 757.833 429.321 757.833 426.952C757.833 424.583 755.913 422.663 753.544 422.663C751.175 422.663 749.255 424.583 749.255 426.952C749.255 429.321 751.175 431.241 753.544 431.241Z" fill="#212444"/>
<path d="M1484.64 929.906C1485.02 927.568 1483.43 925.365 1481.09 924.985C1478.75 924.606 1476.55 926.194 1476.17 928.532C1475.79 930.87 1477.38 933.073 1479.72 933.453C1482.06 933.832 1484.26 932.244 1484.64 929.906Z" fill="#212444"/>
<path d="M771.006 856.823C773.375 856.823 775.296 854.903 775.296 852.534C775.296 850.165 773.375 848.245 771.006 848.245C768.638 848.245 766.717 850.165 766.717 852.534C766.717 854.903 768.638 856.823 771.006 856.823Z" fill="#212444"/>
<path d="M1535.55 782.015C1537.61 779.951 1537.61 776.605 1535.55 774.541C1533.49 772.478 1530.14 772.477 1528.08 774.541C1526.01 776.605 1526.01 779.951 1528.08 782.015C1530.14 784.079 1533.49 784.079 1535.55 782.015Z" fill="#212444"/>
<path d="M909.184 893.004C910.946 892.13 911.665 889.992 910.79 888.23C909.915 886.469 907.778 885.749 906.016 886.624C904.254 887.499 903.535 889.636 904.41 891.398C905.285 893.16 907.422 893.879 909.184 893.004Z" fill="#212444"/>
<path d="M1269.58 866.168C1269.58 866.819 1269.05 867.355 1268.39 867.355C1267.74 867.355 1267.21 866.819 1267.21 866.168C1267.21 865.517 1267.74 864.98 1268.39 864.98C1269.05 864.98 1269.58 865.478 1269.58 866.168Z" fill="white"/>
<path d="M1369.46 740.673C1369.46 741.324 1368.92 741.86 1368.27 741.86C1367.62 741.86 1367.08 741.324 1367.08 740.673C1367.08 740.021 1367.62 739.485 1368.27 739.485C1368.92 739.485 1369.46 740.021 1369.46 740.673Z" fill="#212444"/>
<path d="M1407.64 855.79C1407.64 856.441 1407.1 856.977 1406.45 856.977C1405.8 856.977 1405.26 856.441 1405.26 855.79C1405.26 855.139 1405.8 854.603 1406.45 854.603C1407.1 854.603 1407.64 855.139 1407.64 855.79Z" fill="#212444"/>
<path d="M1139.49 810.754C1139.49 811.405 1138.95 811.941 1138.3 811.941C1137.65 811.941 1137.12 811.405 1137.12 810.754C1137.12 810.103 1137.65 809.566 1138.3 809.566C1138.95 809.566 1139.49 810.064 1139.49 810.754Z" fill="#212444"/>
<path d="M1348.01 567.077C1348.01 567.728 1347.47 568.264 1346.82 568.264C1346.17 568.264 1345.64 567.728 1345.64 567.077C1345.64 566.426 1346.17 565.89 1346.82 565.89C1347.47 565.89 1348.01 566.426 1348.01 567.077Z" fill="#212444"/>
</g>
<defs>
<radialGradient id="paint0_radial_10_49426" cx="0" cy="0" r="1" gradientUnits="userSpaceOnUse" gradientTransform="translate(1354.29 180.688) rotate(-11.6814) scale(67.6806 69.1289)">
<stop stop-color="#1E2140"/>
<stop offset="1" stop-color="#131525"/>
</radialGradient>
<radialGradient id="paint1_radial_10_49426" cx="0" cy="0" r="1" gradientUnits="userSpaceOnUse" gradientTransform="translate(1025.38 724.003) rotate(128.028) scale(4.70032 4.70001)">
<stop stop-color="#1E2140"/>
<stop offset="1" stop-color="#131525"/>
</radialGradient>
<clipPath id="clip0_10_49426">
<rect width="1535" height="940" fill="white"/>
</clipPath>
</defs>
</svg>
