<svg xmlns="http://www.w3.org/2000/svg" xmlns:xlink="http://www.w3.org/1999/xlink" viewBox="0 0 74 74"><defs><radialGradient id="a" cx="-1389.1" cy="980.65" r="1" gradientTransform="matrix(-8.65, 33.11, 33.11, 8.65, -44440.56, 37539.37)" gradientUnits="userSpaceOnUse"><stop offset="0" stop-color="#4a5188"/><stop offset="1" stop-color="#080911"/></radialGradient><radialGradient id="b" cx="-1339.52" cy="1144.65" gradientTransform="matrix(-1.78, 7.04, 6.83, 1.72, -10177.84, 7487.25)" xlink:href="#a"/><radialGradient id="c" cx="-1332.05" cy="1169.21" gradientTransform="matrix(-1.59, 6.13, 6.11, 1.59, -9245.78, 6327.07)" xlink:href="#a"/><radialGradient id="d" cx="-1326.67" cy="1187.01" gradientTransform="matrix(-1.48, 5.69, 5.67, 1.48, -8676.73, 5819.76)" xlink:href="#a"/><linearGradient id="e" x1="13.07" y1="59.32" x2="18.24" y2="59.32" gradientTransform="matrix(1, 0, 0, -1, 0, 76)" gradientUnits="userSpaceOnUse"><stop offset="0" stop-color="#b7986e" stop-opacity="0.5"/><stop offset="0.1" stop-color="#cab394" stop-opacity="0.45"/><stop offset="0.2" stop-color="#dacab5" stop-opacity="0.4"/><stop offset="0.32" stop-color="#e8ded0" stop-opacity="0.34"/><stop offset="0.44" stop-color="#f2ece5" stop-opacity="0.28"/><stop offset="0.58" stop-color="#f9f7f4" stop-opacity="0.21"/><stop offset="0.74" stop-color="#fefdfc" stop-opacity="0.13"/><stop offset="1" stop-color="#fff" stop-opacity="0"/></linearGradient></defs><title>bomb</title><path d="M37,62.16a25,25,0,1,0-25-25A25,25,0,0,0,37,62.16Z" style="fill:url(#a)"/><path d="M24.1,25.78a5.3,5.3,0,0,1-4.79,4.95,4.06,4.06,0,0,1-3.54-1.5A3.14,3.14,0,0,1,15.85,25L18,22.73a3.5,3.5,0,0,1,5.06,0A4.26,4.26,0,0,1,24.1,25.78Z" style="fill:url(#b)"/><path d="M22.16,23.62a5.28,5.28,0,0,1-4.79,4.95,4,4,0,0,1-4.43-4.29,5.3,5.3,0,0,1,4.79-5A4,4,0,0,1,22.16,23.62Z" style="fill:url(#c)"/><path d="M21.84,23.64a4.9,4.9,0,0,1-4.45,4.59,3.75,3.75,0,0,1-4.11-4,4.9,4.9,0,0,1,4.45-4.59A3.78,3.78,0,0,1,21.84,23.64Z" style="fill:url(#d)"/><path d="M19.29,23.6a2.34,2.34,0,0,1-2.12,2.18,1.79,1.79,0,0,1-2-1.9,2.33,2.33,0,0,1,2.12-2.17A1.79,1.79,0,0,1,19.29,23.6Z" style="fill:#1f1f1f"/><path d="M17.35,25.88a.07.07,0,0,1,0,0C9.88,20.47,13,8.85,13.12,8.35a1.45,1.45,0,0,1,1.4-1,1.17,1.17,0,0,1,.38,0,1.44,1.44,0,0,1,1,1.78c0,.1-2.69,10.2,3.1,14.39a1.46,1.46,0,0,1,.38.4l0,.06,0,.06a2.47,2.47,0,0,1-1.9,1.88l-.06,0Z" style="fill:#fff"/><path d="M14.52,7.43a2,2,0,0,1,.33,0,1.29,1.29,0,0,1,.9,1.58c0,.14-2.73,10.3,3.16,14.57a1.46,1.46,0,0,1,.34.36,2.38,2.38,0,0,1-1.78,1.76l-.06,0c-7.35-5.31-4.27-16.83-4.13-17.31A1.28,1.28,0,0,1,14.52,7.43Zm0-.31A1.58,1.58,0,0,0,13,8.29c-.14.5-3.28,12.22,4.25,17.67l.06,0,.1.08.14,0a2.64,2.64,0,0,0,2-2l0-.12-.06-.12a1.77,1.77,0,0,0-.42-.44C13.4,19.25,16,9.25,16.05,9.15a1.59,1.59,0,0,0-1.12-2A1.51,1.51,0,0,0,14.52,7.12Z" style="fill:#414141"/><path d="M12.78,10a2.57,2.57,0,0,0,2.44,2.09" style="fill:none;stroke:#414141;stroke-linecap:round;stroke-linejoin:round;stroke-width:0.23725299537181854px"/><path d="M12.38,15.22a2.83,2.83,0,0,0,3,1.8" style="fill:none;stroke:#414141;stroke-linecap:round;stroke-linejoin:round;stroke-width:0.23725299537181854px"/><path d="M13.16,20c.26.62,2.05,1.48,3.55,1.1" style="fill:none;stroke:#414141;stroke-linecap:round;stroke-linejoin:round;stroke-width:0.23725299537181854px"/><path d="M15.27,23.94c.26.62,3.14,1.34,4.3.14" style="fill:none;stroke:#414141;stroke-linecap:round;stroke-linejoin:round;stroke-width:0.23725299537181854px"/><path d="M14.86,8.39a.51.51,0,0,0-1,0c-.12.48-3.12,11.66,3.79,17.07l.62-.34C11.86,19.59,14.72,8.85,14.86,8.39Z" style="fill:url(#e)"/><path d="M13.82,2,12.74,6.86l-4.25-2,3.29,3.43L7,10.29l4.67,0L10.28,17l4.38-5.46L18,16.08l-1.3-5.19,6.27,2.67L17.51,9l5.25-2.81L16.67,7.29l2-4.47L15.08,6.4Z" style="fill:#f38900"/><path d="M14,4.14l-.92,3.41L10.24,5.94,12.5,8.69,9,9.91l3.51.24-.86,4.49,2.94-3.93,2.35,3-.54-3.41L20.57,12,17,8.83l3.54-1.66-4.38.52,1.26-3.07L14.8,7Z" style="fill:#ffc700"/><path d="M14.22,6.12l-.44,2.39L11.66,7.33l1.94,1.6-2.78.7,2.78-.08-1.1,3.31,2-2.91,1.67,2.23-1-2.63,3.26,1.36-3-2,3.28-1.12L15,8.51,16.59,6,14.78,7.89Z" style="fill:#fafff4"/><path d="M19.29,10s.67.26,1.31.56c.16.08.34.14.48.2l.4.24a2.15,2.15,0,0,1,.34.3v0h0a2.63,2.63,0,0,1-.46-.1,2.41,2.41,0,0,1-.42-.18l-.46-.28c-.62-.36-1.21-.76-1.21-.76S19.27,10,19.29,10Z" style="fill:#f38900"/><path d="M19.25,12.62l1.68,1.06c.19.14.41.26.61.4l.5.4a4.77,4.77,0,0,1,.44.46v0h0a2.92,2.92,0,0,1-.56-.28c-.16-.1-.34-.2-.54-.34s-.37-.3-.55-.46c-.78-.62-1.54-1.26-1.54-1.26v0S19.25,12.62,19.25,12.62Z" style="fill:#f38900"/><path d="M20.54,8.09s.56-.32,1.14-.62a4.23,4.23,0,0,1,.42-.22c.14-.06.28-.1.4-.14a1.92,1.92,0,0,1,.42-.06,0,0,0,0,1,0,0v0a1.42,1.42,0,0,1-.32.26,2.9,2.9,0,0,1-.36.2c-.14.06-.3.1-.46.16l-1.24.42S20.54,8.11,20.54,8.09Z" style="fill:#f38900"/><path d="M17.75,6s.46-.78,1-1.54c.12-.2.24-.38.36-.56s.26-.32.36-.46a2.49,2.49,0,0,1,.42-.4h0V3a4.49,4.49,0,0,1-.24.52,4.71,4.71,0,0,1-.3.5c-.12.18-.28.34-.42.52C18.35,5.28,17.77,6,17.77,6h0Z" style="fill:#f38900"/><path d="M14.94,4.14s-.12-.52-.2-1c0-.14-.06-.26-.08-.38a1.83,1.83,0,0,1,0-.34A1.27,1.27,0,0,1,14.76,2s0,0,0,0a1.3,1.3,0,0,1,.14.32A1.72,1.72,0,0,1,15,2.7v.4c0,.54,0,1.06,0,1.06l0,0Z" style="fill:#f38900"/><path d="M10.36,5.06s-.55-.46-1.09-.94l-.4-.34a4.07,4.07,0,0,1-.3-.36A2,2,0,0,1,8.31,3V3h0a2.45,2.45,0,0,1,.4.24,2.38,2.38,0,0,1,.36.3c.12.12.22.26.34.4.48.54.93,1.1.93,1.1v0S10.38,5.08,10.36,5.06Z" style="fill:#f38900"/><path d="M10.82,8.31s-.8.2-1.62.38l-.59.14a2.56,2.56,0,0,1-.52,0c-.32,0-.52,0-.52,0l0,0v0a4.2,4.2,0,0,1,.5-.2,2.87,2.87,0,0,1,.52-.12l.59-.06,1.64-.16S10.82,8.29,10.82,8.31Z" style="fill:#f38900"/><path d="M10,10.81s-.83.34-1.67.66l-.62.24-.56.14a3.57,3.57,0,0,1-.56.06,0,0,0,0,1,0,0v0a3.65,3.65,0,0,1,.5-.28c.16-.08.34-.14.54-.22l.64-.16C9.09,11,10,10.77,10,10.77S10,10.79,10,10.81Z" style="fill:#f38900"/><path d="M10.38,12.64s-.36.82-.76,1.62c-.1.2-.18.4-.28.6a5,5,0,0,1-.3.48,3.81,3.81,0,0,1-.36.44h0v0a2.9,2.9,0,0,1,.16-.54,3.91,3.91,0,0,1,.24-.52c.1-.18.24-.36.34-.56.46-.76,1-1.52,1-1.52h0Z" style="fill:#f38900"/><path d="M10.82,11.35s-.32.44-.66.83c-.08.1-.16.22-.24.3a2.53,2.53,0,0,1-.26.22,1,1,0,0,1-.31.16,0,0,0,0,1,0,0v0a1.29,1.29,0,0,1,.13-.32c.06-.08.12-.18.2-.28s.2-.16.3-.26c.4-.35.82-.67.82-.67s0,0,0,.06Z" style="fill:#f38900"/><path d="M13.82,14.2s-.4,1.3-.82,2.6c-.1.31-.2.65-.3.95a8,8,0,0,1-.34.8c-.12.24-.2.42-.28.56l-.12.2s0,0,0,0v0a2.26,2.26,0,0,0,0-.24c0-.14.08-.36.14-.6s.16-.54.26-.84.24-.61.38-.91c.5-1.26,1-2.52,1-2.52Z" style="fill:#f38900"/><path d="M15.67,13.8s.38.9.74,1.8c.08.22.18.44.26.66a4.86,4.86,0,0,1,.16.59,5,5,0,0,1,.1.6,0,0,0,0,1,0,0h0a4,4,0,0,1-.3-.54,4.67,4.67,0,0,1-.24-.57c-.06-.22-.12-.46-.2-.68-.28-.92-.52-1.86-.52-1.86s0,0,0,0S15.67,13.78,15.67,13.8Z" style="fill:#f38900"/><path d="M17.77,13.32s.44.78.86,1.6c.1.2.22.4.32.58s.16.38.22.54a4.65,4.65,0,0,1,.14.56,0,0,0,0,1,0,0h0a4.08,4.08,0,0,1-.34-.46,3,3,0,0,1-.28-.5c-.08-.2-.16-.4-.24-.62-.34-.84-.66-1.68-.66-1.68s0-.06,0,0Z" style="fill:#f38900"/></svg>