<svg xmlns="http://www.w3.org/2000/svg" xmlns:xlink="http://www.w3.org/1999/xlink" viewBox="0 0 74 74"><defs><radialGradient id="a" cx="-1355.36" cy="908.5" r="1" gradientTransform="matrix(29.97, 0, 0, -29.97, 40670.98, 27257.79)" gradientUnits="userSpaceOnUse"><stop offset="0" stop-color="gray"/><stop offset="0.79" stop-color="#fff"/><stop offset="1" stop-color="#fff"/></radialGradient><mask id="b" x="12" y="12" width="50" height="49.99" maskUnits="userSpaceOnUse"><path d="M37,62A25,25,0,1,0,12,37,25,25,0,0,0,37,62Z" style="fill:url(#a)"/></mask></defs><title>planet</title><path d="M54.67,54.68a25,25,0,1,0-35.35,0A25,25,0,0,0,54.67,54.68Z" style="fill:#2637cc"/><g style="mask:url(#b)"><path d="M37,62A25,25,0,1,0,12,37,25,25,0,0,0,37,62Z" style="fill:#2637cc"/><g style="opacity:0.5"><path d="M35,29.47a3.71,3.71,0,0,1,0-.66,1.93,1.93,0,0,0-.39-1.3,6.24,6.24,0,0,0-1-1.08A2.9,2.9,0,0,1,33,25.8a1.63,1.63,0,0,1-.14-1.89,5,5,0,0,1,2-1.94,2.84,2.84,0,0,1,2.67-.12,2.47,2.47,0,0,0,1.51.2A2.55,2.55,0,0,0,40,21.53a3.73,3.73,0,0,1,1.71-.79,3.44,3.44,0,0,1,3,.86,2.44,2.44,0,0,1,.86,1.48,1.92,1.92,0,0,1-.35,1.31,3.8,3.8,0,0,1-.63.77,4.41,4.41,0,0,0-.68.76,1.66,1.66,0,0,0,.22,2.21,3.8,3.8,0,0,1,.51.63l.05.07a.68.68,0,0,1-.36,1.11,10.54,10.54,0,0,1-1.43.41c-.53.14-1.08.2-1.61.3a3.9,3.9,0,0,0-1.61.72,7.49,7.49,0,0,1-2.64,1.19,1.52,1.52,0,0,1-.92,0,1.35,1.35,0,0,1-.86-1A6.43,6.43,0,0,1,35,29.47Z" style="fill:#3f50f0;opacity:0.5;isolation:isolate"/></g><g style="opacity:0.5"><path d="M23.8,50.67a3,3,0,0,1,.35-.27,1,1,0,0,0,.38-.85,6.16,6.16,0,0,0-.15-1.24,3.87,3.87,0,0,1-.1-.73c0-.6.28-.9.86-.9a4.57,4.57,0,0,1,2.23.65,4.35,4.35,0,0,1,1.81,2,3.46,3.46,0,0,0,.9,1.22,3,3,0,0,0,.94.6,4.68,4.68,0,0,1,1.51,1,4.84,4.84,0,0,1,1.55,2.65,1.7,1.7,0,0,1-.17,1.3,1,1,0,0,1-.88.3,6.39,6.39,0,0,1-.79-.15,4.63,4.63,0,0,0-.84-.2c-.69,0-1,.35-.94,1.09a2.16,2.16,0,0,1,0,.67v.07c0,.43-.33.51-.78.2a13.78,13.78,0,0,1-1.13-.92c-.41-.35-.79-.73-1.19-1.09A5.29,5.29,0,0,0,26,55.1a9.87,9.87,0,0,1-2.31-1.49,2.65,2.65,0,0,1-.59-.7A1.21,1.21,0,0,1,23,51.83,2.59,2.59,0,0,1,23.8,50.67Z" style="fill:#3f50f0;opacity:0.5;isolation:isolate"/></g><g style="opacity:0.5"><path d="M25.23,33.82a1.64,1.64,0,0,0-1.17.42,5.58,5.58,0,0,1-.84.56.88.88,0,0,1-1.15-.28,2.74,2.74,0,0,1-.38-.91,3.11,3.11,0,0,1,.21-2c.2-.47.4-1,.57-1.45a6.82,6.82,0,0,0,.33-2c0-.44,0-.88,0-1.32a2.25,2.25,0,0,1,0-.69c.09-.34.3-.51.6-.46a2.3,2.3,0,0,1,.72.26c.43.24.88.42,1.31.62a1.86,1.86,0,0,0,1.64-.07c.5-.2,1-.5,1.48-.73a2.59,2.59,0,0,1,.67-.2.89.89,0,0,1,1,.77,12.78,12.78,0,0,1,.38,2.17,7.4,7.4,0,0,1,.07,1.15,2,2,0,0,1-1,1.74c-.27.19-.57.32-.83.53a3,3,0,0,0-.9,1.45c-.1.31-.12.65-.2,1a1.25,1.25,0,0,1-.1.31c-.17.42-.38.5-.73.32a2.13,2.13,0,0,1-.66-.61A2.18,2.18,0,0,0,25.23,33.82Z" style="fill:#3f50f0;opacity:0.5;isolation:isolate"/></g><g style="opacity:0.5"><path d="M56.78,43.43c-.23,0-.49.31-.69.73a4.81,4.81,0,0,1-.44.78.52.52,0,0,1-.86.05,3,3,0,0,1-.51-.77,4.18,4.18,0,0,1-.4-2c0-.52,0-1,0-1.53a9.39,9.39,0,0,0-.3-2c-.12-.43-.23-.85-.37-1.26a3.63,3.63,0,0,1-.15-.67c0-.34.07-.56.29-.61a1.34,1.34,0,0,1,.56,0c.35.1.71.13,1.06.22a1.13,1.13,0,0,0,1.12-.54,13.35,13.35,0,0,0,.81-1.12,1.48,1.48,0,0,1,.4-.39c.33-.21.68-.06.93.42a18.36,18.36,0,0,1,.85,2c.13.35.25.7.35,1.08a2.61,2.61,0,0,1-.2,1.94,7.78,7.78,0,0,0-.44.75,3.91,3.91,0,0,0-.23,1.64c0,.34.1.67.13,1a1.88,1.88,0,0,1,0,.33c0,.45-.13.58-.41.52a2.2,2.2,0,0,1-.64-.39A1,1,0,0,0,56.78,43.43Z" style="fill:#3f50f0;opacity:0.5;isolation:isolate"/></g><path d="M27.81,21.14A1.85,1.85,0,0,0,27,18.72a1.84,1.84,0,0,0-2.09,1.47,1.85,1.85,0,0,0,.84,2.42A1.86,1.86,0,0,0,27.81,21.14Z" style="fill:#3f50f0;opacity:0.5;isolation:isolate"/><path d="M18.32,29.72c-.29,1.08-1,1.85-1.58,1.7s-.82-1.17-.53-2.25,1-1.84,1.57-1.69S18.6,28.64,18.32,29.72Z" style="fill:#3f50f0;opacity:0.5;isolation:isolate"/><path d="M48.28,43.72c-1.31,1.55-5-1.11-7.22.75-1.8,1.48-.84,4.27-2.13,4.72s-3.56-2.14-4.64-4.35c-.56-1.18-2-4.26-.54-6.58,1.18-1.83,3.5-2.11,5.25-2.31,1.44-.18,5-.61,7.52,1.86C48.21,39.51,49.31,42.51,48.28,43.72Z" style="fill:#3f50f0;opacity:0.5;isolation:isolate"/><path d="M41.34,54c-.07,2.45-2,3.57-1.58,4.35s3.19.4,5.41-.62c4.37-2,7.2-6.38,6.43-7.34s-4.88,1.78-6.43.18c-.81-.83-.23-2.14-1-2.49s-2.92.95-3.33,2.69C40.57,52,41.37,52.41,41.34,54Z" style="fill:#3f50f0;opacity:0.5;isolation:isolate"/></g><g style="opacity:0.5"><path d="M63,20.2c.92-.87.19-3.15-1.63-5.09s-4.07-2.81-5-1.94-.19,3.14,1.63,5.09S62.11,21.07,63,20.2Z" style="fill:#2637cc;opacity:0.5;isolation:isolate"/><path d="M10.63,16.63a1.69,1.69,0,1,0-1.21-2.07A1.7,1.7,0,0,0,10.63,16.63Z" style="fill:#2637cc;opacity:0.5;isolation:isolate"/><path d="M15.15,59c1.34.35,2.55.1,2.73-.56s-.76-1.49-2.09-1.84-2.55-.09-2.73.57S13.84,58.63,15.15,59Z" style="fill:#2637cc;opacity:0.5;isolation:isolate"/><path d="M66.87,50.88c.39-1.48,0-2.87-.85-3.1s-1.88.79-2.28,2.28,0,2.87.85,3.1S66.47,52.37,66.87,50.88Z" style="fill:#2637cc;opacity:0.5;isolation:isolate"/><path d="M9.87,40a2,2,0,1,0,1.39,2.4A2,2,0,0,0,9.87,40Z" style="fill:#2637cc;opacity:0.5;isolation:isolate"/><g style="opacity:0.5"><path d="M36.66,6.84a8.42,8.42,0,0,1,1.06,1.87,3.24,3.24,0,0,1,.13.41,28.58,28.58,0,0,1,6.35.93,27.65,27.65,0,0,1,6.3,2.52A2.36,2.36,0,0,1,51.24,10a6.78,6.78,0,0,1,1.24-.81,6.24,6.24,0,0,0,1.16-.82,2.78,2.78,0,0,0,1-1.69,3.45,3.45,0,0,0-.67-2.36A5,5,0,0,0,50.06,2a5.28,5.28,0,0,0-2.66.48,3.79,3.79,0,0,1-1.67.31,3.61,3.61,0,0,1-2-.82A4.2,4.2,0,0,0,40,1.14a7,7,0,0,0-3.41,2A2.36,2.36,0,0,0,36,5.77,4,4,0,0,0,36.66,6.84Z" style="fill:#2637cc;opacity:0.5;isolation:isolate"/><path d="M19.49,15.14l-.08,0a7,7,0,0,0-3.4,2,2.28,2.28,0,0,0-.7,2.05A30,30,0,0,1,19.49,15.14Z" style="fill:#2637cc;opacity:0.5;isolation:isolate"/><path d="M22.64,13a28.17,28.17,0,0,1,8.9-3.38,3.88,3.88,0,0,1-1.36-.72,4.22,4.22,0,0,0-3.73-.82,7,7,0,0,0-3.41,2,2.34,2.34,0,0,0-.52,2.67C22.57,12.82,22.6,12.91,22.64,13Z" style="fill:#2637cc;opacity:0.5;isolation:isolate"/><path d="M9.69,30.05A28.36,28.36,0,0,1,14,20.91a6.63,6.63,0,0,0-1.42.43,3.77,3.77,0,0,1-1.67.32,3.55,3.55,0,0,1-2-.83A4.2,4.2,0,0,0,5.13,20a7,7,0,0,0-3.4,2,2.34,2.34,0,0,0-.53,2.67,5.38,5.38,0,0,0,.64,1.09A8.84,8.84,0,0,1,2.9,27.6,2.79,2.79,0,0,1,3,29.53c-.11.3-.19.6-.28.91a8.75,8.75,0,0,0-.29,3.05,1.88,1.88,0,0,0,.84,1.66,2.24,2.24,0,0,0,1.27.35,10.94,10.94,0,0,0,4.08-.68l.29-.09A26.55,26.55,0,0,1,9.69,30.05Z" style="fill:#2637cc;opacity:0.5;isolation:isolate"/><path d="M34.39,9.23a28.82,28.82,0,0,1,3.09-.11A5.65,5.65,0,0,0,36.55,9,4.78,4.78,0,0,0,34.39,9.23Z" style="fill:#2637cc;opacity:0.5;isolation:isolate"/><path d="M60.7,52.45A28.29,28.29,0,0,1,45.81,64a10.67,10.67,0,0,0,3.95-.68,5.52,5.52,0,0,1,2.47-.4c.77.06,1.55.16,2.32.17a16.76,16.76,0,0,0,2.13,0,1,1,0,0,0,.9-1.41.23.23,0,0,1,0-.11,4.84,4.84,0,0,0-.48-1.06,2.39,2.39,0,0,1,.51-3.13,6.7,6.7,0,0,1,1.23-.81A5.53,5.53,0,0,0,60,55.7a2.75,2.75,0,0,0,1-1.69A2.89,2.89,0,0,0,60.7,52.45Z" style="fill:#2637cc;opacity:0.5;isolation:isolate"/><path d="M11,48.19a9,9,0,0,0-.25,2.93,1.9,1.9,0,0,0,.83,1.66,2.35,2.35,0,0,0,1.27.35c.27,0,.56,0,.82,0A27.86,27.86,0,0,1,11,48.19Z" style="fill:#2637cc;opacity:0.5;isolation:isolate"/><path d="M68.87,38.09A5.47,5.47,0,0,0,70,37.27a2.72,2.72,0,0,0,1-1.69,3.43,3.43,0,0,0-.67-2.35,5,5,0,0,0-3.86-2.3,4.71,4.71,0,0,0-2,.22A28.11,28.11,0,0,1,64.2,44.5s0,.11,0,.15l.46,0a15,15,0,0,0,2.12-.05,1,1,0,0,0,.9-1.4.53.53,0,0,1,0-.12,5,5,0,0,0-.47-1.05,2.38,2.38,0,0,1,.5-3.13A6,6,0,0,1,68.87,38.09Z" style="fill:#2637cc;opacity:0.5;isolation:isolate"/><path d="M39.18,68.54a4.84,4.84,0,0,0-.48-1.06,2.41,2.41,0,0,1-.22-2.1,28.44,28.44,0,0,1-18.62-5.71,3,3,0,0,1-.13.54c-.11.3-.19.6-.28.91a8.75,8.75,0,0,0-.29,3.05A1.88,1.88,0,0,0,20,65.83a2.24,2.24,0,0,0,1.27.35,10.94,10.94,0,0,0,4.08-.68l.29-.11c-.07.19-.11.37-.16.55A8.79,8.79,0,0,0,25.19,69,1.94,1.94,0,0,0,26,70.66,2.33,2.33,0,0,0,27.3,71a11,11,0,0,0,4.09-.68,5.51,5.51,0,0,1,2.47-.39c.77.06,1.55.16,2.32.17a15.08,15.08,0,0,0,2.13,0,1,1,0,0,0,.9-1.4A.35.35,0,0,1,39.18,68.54Z" style="fill:#2637cc;opacity:0.5;isolation:isolate"/></g></g></svg>