<svg width="74" height="74" viewBox="0 0 74 74" fill="none" xmlns="http://www.w3.org/2000/svg">
<g style="mix-blend-mode:screen">
<path d="M55.25 55.25C65.0531 45.4469 65.0531 29.553 55.25 19.75C45.447 9.94693 29.5531 9.94694 19.75 19.75C9.94695 29.5531 9.94694 45.4469 19.75 55.25C29.5531 65.0531 45.4469 65.053 55.25 55.25Z" fill="#C0F754"/>
</g>
<path style="mix-blend-mode:multiply" d="M55.25 55.25C65.0531 45.4469 65.0531 29.553 55.25 19.75C45.447 9.94693 29.5531 9.94694 19.75 19.75C9.94695 29.5531 9.94694 45.4469 19.75 55.25C29.5531 65.0531 45.4469 65.053 55.25 55.25Z" fill="url(#paint0_radial_302_54834)"/>
<path style="mix-blend-mode:screen" opacity="0.5" d="M19.4155 45.0892C17.5738 40.4909 17.7912 36.4509 17.9587 33.3536C18.2568 28.1282 19.6705 23.0247 22.1066 18.3796C20.2284 20.0957 12.0473 27.9391 12.4836 39.2231C12.5831 41.7073 13.0983 44.158 14.0084 46.4753C15.6573 50.8818 18.5414 54.7316 22.3225 57.573C26.1036 60.4145 30.6249 62.1299 35.3561 62.5179C40.0872 62.906 44.8321 61.9506 49.0341 59.7639C53.2361 57.5772 56.7211 54.2498 59.0803 50.172C57.624 51.6774 56.0004 53.015 54.2406 54.1594C51.8664 55.6998 42.5503 61.7498 32.3119 58.0613C23.6446 54.9394 20.1554 46.9433 19.4155 45.0892Z" fill="url(#paint1_radial_302_54834)"/>
<g style="mix-blend-mode:multiply" opacity="0.5">
<path d="M35.7428 30.1146C35.7428 29.8949 35.7428 29.6736 35.771 29.4588C35.8004 29.0019 35.663 28.5497 35.3838 28.1849C35.0871 27.785 34.7351 27.4285 34.3381 27.1259C34.1072 26.9463 33.8989 26.7399 33.7177 26.5111C33.5013 26.2508 33.3728 25.9298 33.3503 25.5934C33.3277 25.2569 33.4122 24.9219 33.5919 24.6356C34.0377 23.824 34.7112 23.1577 35.531 22.7174C35.9339 22.4889 36.386 22.3593 36.8497 22.3393C37.3134 22.3194 37.7752 22.4097 38.1965 22.6026C38.6684 22.8203 39.1972 22.8863 39.7088 22.7912C40.0987 22.7076 40.4632 22.534 40.7726 22.2846C41.2622 21.8764 41.8517 21.6033 42.4818 21.4927C43.6151 21.3288 44.6426 21.56 45.4947 22.337C45.9215 22.7289 46.274 23.1945 46.3616 23.8011C46.4311 24.2847 46.2624 24.7044 46.0208 25.1028C45.8427 25.3808 45.6304 25.6358 45.3888 25.8619C45.1347 26.0899 44.9062 26.3444 44.7071 26.6209C44.2107 27.3718 44.2918 28.1587 44.9239 28.8014C45.1168 28.9913 45.2893 29.2006 45.4384 29.426L45.4831 29.4949C45.7726 29.9769 45.6485 30.3818 45.1257 30.5966C44.6611 30.7661 44.1851 30.9031 43.7012 31.0064C43.1734 31.1409 42.634 31.2081 42.0996 31.3048C41.5196 31.4142 40.9727 31.6543 40.5013 32.0065C39.7096 32.5641 38.8162 32.9639 37.8706 33.1836C37.5709 33.2713 37.252 33.2713 36.9523 33.1836C36.4725 33.0279 36.2359 32.6524 36.0903 32.2163C35.852 31.5411 35.7344 30.8299 35.7428 30.1146V30.1146Z" fill="#E6D778"/>
</g>
<g style="mix-blend-mode:multiply" opacity="0.5">
<path d="M24.5963 51.0204C24.7076 50.9275 24.8241 50.841 24.9454 50.7613C25.2118 50.5974 25.3094 50.2908 25.3292 49.9301C25.3329 49.5133 25.2817 49.0977 25.177 48.694C25.1184 48.4555 25.0862 48.2115 25.0811 47.9661C25.0811 47.3759 25.3706 47.0742 25.9348 47.0742C26.7187 47.0916 27.4841 47.3138 28.1535 47.7185C28.946 48.1667 29.575 48.8519 29.9504 49.676C30.1592 50.138 30.4623 50.5521 30.8405 50.8925C31.1193 51.1405 31.4395 51.3386 31.7869 51.4778C32.3462 51.6954 32.8584 52.0171 33.2958 52.4254C34.1231 53.2057 34.6708 54.0796 34.8362 55.0485C34.9189 55.5403 34.9173 55.9993 34.6708 56.3223C34.4739 56.5813 34.1545 56.6322 33.7988 56.6191C33.5298 56.601 33.2641 56.5498 33.008 56.4666C32.7395 56.3754 32.4623 56.3117 32.1807 56.2764C31.4874 56.2272 31.1416 56.6174 31.2326 57.3666C31.2642 57.5838 31.272 57.8036 31.2558 58.0224V58.0847C31.2045 58.5077 30.9249 58.5766 30.4732 58.2847C30.0811 58.0191 29.7138 57.6962 29.3398 57.388C28.9295 57.0469 28.544 56.6699 28.1469 56.3108C27.7369 55.9353 27.2666 55.63 26.7554 55.4075C25.9224 55.0248 25.1477 54.5281 24.454 53.932C24.2133 53.7404 24.0117 53.505 23.86 53.2385C23.761 53.0819 23.7021 52.9037 23.6886 52.7194C23.675 52.5351 23.7072 52.3503 23.7822 52.1811C23.9484 51.7313 24.2288 51.3315 24.5963 51.0204V51.0204Z" fill="#E6D778"/>
</g>
<g style="mix-blend-mode:multiply" opacity="0.5">
<path d="M26.0219 34.4062C25.7092 34.3554 25.2674 34.5079 24.8555 34.8112C24.593 35.0251 24.3092 35.2119 24.0083 35.3686C23.8175 35.4715 23.5945 35.4996 23.3837 35.4474C23.1729 35.3952 22.9896 35.2664 22.87 35.0866C22.6896 34.8126 22.5602 34.5089 22.4878 34.1898C22.338 33.5212 22.4148 32.8222 22.7062 32.2012C22.9097 31.7356 23.0983 31.2634 23.2671 30.7814C23.4764 30.1582 23.588 29.5069 23.598 28.8501C23.6113 28.414 23.598 27.9796 23.5848 27.5468C23.5671 27.3201 23.5827 27.092 23.6311 26.8697C23.7155 26.5303 23.9322 26.368 24.2251 26.4107C24.4779 26.459 24.7203 26.5505 24.9415 26.6812C25.3667 26.9041 25.8101 27.0845 26.242 27.2927C26.7847 27.5533 27.3224 27.4566 27.8733 27.2336C28.3697 27.0304 28.8479 26.7418 29.3376 26.5057C29.5462 26.4042 29.7695 26.3356 29.9994 26.3024C30.5123 26.2287 30.8929 26.4959 31.0467 27.0517C31.2326 27.7536 31.3583 28.4699 31.4223 29.1928C31.4677 29.5687 31.4881 29.9471 31.4835 30.3256C31.486 30.6722 31.3989 31.0137 31.2307 31.3175C31.0624 31.6214 30.8186 31.8776 30.5223 32.0618C30.2358 32.2183 29.9595 32.3924 29.695 32.5832C29.2675 32.9665 28.9598 33.4632 28.8082 34.0144C28.7072 34.3308 28.694 34.662 28.6162 34.98C28.5926 35.0871 28.5611 35.1923 28.5219 35.2948C28.3565 35.7112 28.1364 35.7866 27.8022 35.6079C27.5495 35.4445 27.3258 35.2406 27.1404 35.0046C26.8438 34.6891 26.4508 34.4788 26.0219 34.4062V34.4062Z" fill="#E6D778"/>
</g>
<g style="mix-blend-mode:multiply" opacity="0.5">
<path d="M57.4597 43.8827C57.2297 43.922 56.9633 44.1942 56.7631 44.6007C56.6441 44.8719 56.4989 45.1311 56.3296 45.3746C56.0831 45.6877 55.7422 45.7172 55.4659 45.4287C55.2585 45.2077 55.0871 44.956 54.958 44.6827C54.6707 44.0687 54.5389 43.3945 54.5741 42.7187C54.589 42.217 54.5907 41.7137 54.5741 41.2055C54.5468 40.5532 54.4464 39.906 54.2747 39.2758C54.1638 38.8561 54.0397 38.4446 53.9107 38.0364C53.8363 37.8239 53.7853 37.604 53.7585 37.3806C53.7237 37.0331 53.8296 36.8167 54.0447 36.774C54.2354 36.7484 54.4295 36.7663 54.6122 36.8265C54.9679 36.9183 55.3236 36.9642 55.6794 37.0396C56.1228 37.1331 56.4702 36.8888 56.7896 36.5166C57.0808 36.1887 57.3306 35.7723 57.6053 35.4051C57.715 35.2543 57.8519 35.1248 58.009 35.0231C58.3399 34.8051 58.6708 34.9526 58.9372 35.4395C59.2603 36.0646 59.5411 36.7103 59.7777 37.3724C59.9051 37.72 60.0325 38.0676 60.1284 38.4364C60.2249 38.7541 60.2571 39.0874 60.2233 39.4174C60.1896 39.7474 60.0904 40.0675 59.9315 40.3595C59.7748 40.5946 59.6322 40.8388 59.5047 41.0907C59.3091 41.6073 59.2323 42.1607 59.2796 42.7105C59.2962 43.0383 59.3773 43.3662 59.4104 43.6941C59.4228 43.803 59.4294 43.9124 59.4302 44.022C59.4302 44.4663 59.2962 44.5975 59.0182 44.5253C58.7876 44.4369 58.5755 44.3068 58.3928 44.1417C58.2636 44.0373 58.114 43.9604 57.9535 43.9158C57.7929 43.8712 57.6248 43.86 57.4597 43.8827Z" fill="#E6D778"/>
</g>
<g style="mix-blend-mode:multiply" opacity="0.5">
<path d="M28.5797 21.8769C28.9233 20.8204 28.5489 19.7554 27.7435 19.4982C26.9381 19.2411 26.0067 19.8892 25.6631 20.9457C25.3195 22.0023 25.6939 23.0673 26.4993 23.3244C27.3047 23.5816 28.2361 22.9335 28.5797 21.8769Z" fill="#E6D778"/>
</g>
<g style="mix-blend-mode:multiply" opacity="0.5">
<path d="M19.2551 30.4465C18.8903 31.5221 17.9898 32.2709 17.2601 32.1182C16.5305 31.9655 16.2226 30.9687 16.5874 29.898C16.9522 28.8274 17.8527 28.0753 18.5824 28.2263C19.312 28.3774 19.6199 29.3725 19.2551 30.4465Z" fill="#E6D778"/>
</g>
<g style="mix-blend-mode:multiply" opacity="0.5">
<path d="M48.7779 44.1789C47.5194 45.759 44.0339 43.0462 41.8894 44.9375C40.1807 46.4445 41.0968 49.3138 39.8574 49.7713C38.5798 50.2458 36.4606 47.5925 35.4351 45.3168C34.893 44.1075 33.4792 40.9593 34.9057 38.5883C36.0295 36.7174 38.2549 36.4316 39.9144 36.2173C41.2981 36.037 44.7392 35.5931 47.093 38.1138C48.724 39.852 49.7685 42.9356 48.7779 44.1789Z" fill="#E6D778"/>
</g>
<path style="mix-blend-mode:screen" opacity="0.7" d="M48.2819 16.893C53.6049 18.4655 56.2054 23.5865 56.3948 23.9746C57.1119 25.4455 59.1064 29.5311 57.4422 31.717C56.3901 33.0964 54.0088 33.5523 52.2945 32.6626C49.4169 31.1663 50.826 27.1214 47.1484 21.5191C45.5139 19.0298 43.8481 17.7165 44.2692 16.893C44.7937 15.8644 47.9594 16.7981 48.2819 16.893Z" fill="url(#paint2_linear_302_54834)"/>
<g style="mix-blend-mode:multiply" opacity="0.5">
<path d="M41.8548 54.313C41.7907 56.5499 39.8559 57.5745 40.2994 58.2767C40.7708 59.0244 43.4512 58.6384 45.6538 57.7168C49.9734 55.9097 52.7623 51.9112 52.0133 51.0243C51.2643 50.1374 47.1878 52.6497 45.6538 51.1847C44.8555 50.428 45.4189 49.2324 44.6913 48.9146C43.8093 48.5302 41.8071 49.7712 41.4064 51.3603C41.1009 52.5135 41.8958 52.8586 41.8548 54.313Z" fill="#E6D778"/>
</g>
<defs>
<radialGradient id="paint0_radial_302_54834" cx="0" cy="0" r="1" gradientUnits="userSpaceOnUse" gradientTransform="translate(44.8206 26.2061) scale(30.1071)">
<stop stop-color="#E6D888"/>
<stop offset="0.79" stop-color="#35D433"/>
<stop offset="1" stop-color="#8CD567"/>
</radialGradient>
<radialGradient id="paint1_radial_302_54834" cx="0" cy="0" r="1" gradientUnits="userSpaceOnUse" gradientTransform="translate(36.4999 35.948) rotate(-20.1399) scale(26.4175 26.2128)">
<stop offset="0.83" stop-color="#2A2A2A"/>
<stop offset="1" stop-color="white"/>
</radialGradient>
<linearGradient id="paint2_linear_302_54834" x1="56.6923" y1="29.9174" x2="45.4104" y2="21.0826" gradientUnits="userSpaceOnUse">
<stop stop-color="#F0F0F0"/>
<stop offset="1" stop-color="#2B2B2B"/>
</linearGradient>
</defs>
</svg>
