<svg width="125" height="125" viewBox="0 0 125 125" fill="none" xmlns="http://www.w3.org/2000/svg">
<rect width="125" height="125" rx="30" fill="url(#paint0_linear_68_54248)"/>
<g clip-path="url(#clip0_68_54248)">
<g clip-path="url(#clip1_68_54248)">
<path d="M31.5844 80.651C32.9017 86.3983 38.0157 90.4728 43.912 90.4728C48.6945 90.4728 53.068 87.7751 55.2142 83.5013L63.7389 66.526C63.9184 66.1686 64.2841 65.943 64.684 65.943C65.2455 65.943 65.709 66.3816 65.7401 66.9422L66.1514 74.3797C66.4132 79.1126 70.3274 82.8164 75.0676 82.8164H76.421C80.2991 82.8164 83.8525 80.6504 85.6295 77.2033L95.8408 57.3951C97.2829 54.5976 95.2521 51.2658 92.1047 51.2658C90.6293 51.2658 89.2618 52.0394 88.5019 53.3041L78.9394 69.218C78.7225 69.5789 78.3322 69.7997 77.9111 69.7997C77.2692 69.7997 76.741 69.2944 76.7126 68.6532L75.9807 52.1208C75.7772 47.5232 71.9905 43.9004 67.3884 43.9004C64.186 43.9004 61.2488 45.6796 59.7657 48.5178L49.345 68.4591C49.1208 68.888 48.6769 69.1569 48.1929 69.1569C47.5853 69.1569 47.0588 68.7361 46.9249 68.1435L40.8886 41.4242C39.9702 37.3594 36.3588 34.4728 32.1915 34.4728C26.4631 34.4728 22.2209 39.7973 23.5006 45.3809L31.5844 80.651Z" fill="white"/>
<path d="M103.93 43.4728C103.41 46.7585 100.104 49.4728 96.5605 49.4728C93.0175 49.4728 90.5138 46.7585 91.0807 43.4728C91.6475 40.1394 94.9544 37.4728 98.4974 37.4728C102.04 37.4728 104.45 40.1394 103.93 43.4728Z" fill="white"/>
</g>
</g>
<defs>
<linearGradient id="paint0_linear_68_54248" x1="62.5" y1="0" x2="62.5" y2="125" gradientUnits="userSpaceOnUse">
<stop stop-color="#4457FF"/>
<stop offset="1" stop-color="#3C4DE1"/>
</linearGradient>
<clipPath id="clip0_68_54248">
<rect width="83" height="56" fill="white" transform="translate(21.0005 34.4728)"/>
</clipPath>
<clipPath id="clip1_68_54248">
<rect width="83" height="56" fill="white" transform="translate(21.0005 34.4728)"/>
</clipPath>
</defs>
</svg>
